<?xml version="1.0" encoding="iso-8859-1"?>
<!-- Generator: Adobe Illustrator 17.1.0, SVG Export Plug-In . SVG Version: 6.00 Build 0)  -->
<!DOCTYPE svg PUBLIC "-//W3C//DTD SVG 1.1//EN" "http://www.w3.org/Graphics/SVG/1.1/DTD/svg11.dtd">
<svg version="1.1" id="Capa_1" xmlns="http://www.w3.org/2000/svg" xmlns:xlink="http://www.w3.org/1999/xlink" x="0px" y="0px"
	 viewBox="0 0 325 325" style="enable-background:new 0 0 325 325;" xml:space="preserve">
<g>
	<path d="M44.233,2.02L25.458,2C17.21,2,10.5,8.754,10.5,17.056v290c0,8.24,6.71,14.944,14.958,14.944h18.178
		c0.537,0,2.439-0.061,4.405-0.857c3.418-1.383,5.459-4.344,5.459-7.921V10.389C53.5,5.205,48.696,2.416,44.233,2.02z"/>
	<path d="M294.5,0h-11.333c-5.305,0-8.448,2.243-10.15,4.124c-3.694,4.082-3.613,9.599-3.517,11.066v96.724L250.417,87.62
		c-1.938-2.462-4.732-3.874-7.666-3.874c-2.934,0-5.728,1.412-7.687,3.9L216.5,111.555V15.13c0.06-1.344,0.098-7.408-3.747-11.518
		C210.542,1.25,207.515,0,204,0H100.5c-11.028,0-20,8.972-20,20v285c0,11.028,8.972,20,20,20h194c11.028,0,20-8.972,20-20V20
		C314.5,8.972,305.528,0,294.5,0z"/>
</g>
<g>
</g>
<g>
</g>
<g>
</g>
<g>
</g>
<g>
</g>
<g>
</g>
<g>
</g>
<g>
</g>
<g>
</g>
<g>
</g>
<g>
</g>
<g>
</g>
<g>
</g>
<g>
</g>
<g>
</g>
</svg>
