<?xml version="1.0" encoding="iso-8859-1"?>
<!-- Generator: Adobe Illustrator 17.1.0, SVG Export Plug-In . SVG Version: 6.00 Build 0)  -->
<!DOCTYPE svg PUBLIC "-//W3C//DTD SVG 1.1//EN" "http://www.w3.org/Graphics/SVG/1.1/DTD/svg11.dtd">
<svg version="1.1" id="Capa_1" xmlns="http://www.w3.org/2000/svg" xmlns:xlink="http://www.w3.org/1999/xlink" x="0px" y="0px"
	 viewBox="0 0 345.237 345.237" style="enable-background:new 0 0 345.237 345.237;" xml:space="preserve">
<g>
	<path d="M183.297,298.609H118.13c-3.581,0-5.691,1.47-6.832,2.763c-1.668,1.892-2.388,4.472-2.026,7.33
		c2.587,20.462,20.113,35.875,40.767,35.875c20.88,0,38.429-15.631,40.819-36.347c0.157-1.357,0.276-4.721-1.991-7.265
		C187.474,299.402,185.497,298.609,183.297,298.609z"/>
	<path d="M345.058,222.649c-2.864-45.274-39.701-80.981-84.61-82.823c-3.848-22.061-12.222-51.062-30.418-75.693
		C215.94,45.059,198.31,32.355,177.58,26.324c-1.2-14.353-13.256-25.664-27.901-25.664c-14.663,0-26.729,11.339-27.906,25.715
		c-20.414,6.206-38.354,19.2-52.067,37.763c-19.898,26.931-27.972,59.84-31.25,82.772c-0.042,0.326-0.049,0.61-0.047,0.821
		c-0.118,1.195-0.229,2.433-0.344,3.706l-0.243,2.66c-1.461,15.536-3.905,41.539-10.679,52.374
		c-0.082,0.137-0.159,0.273-0.235,0.409l-0.096,0.169c-1.939,3.488-5.57,6.672-9.48,10.1c-9.156,8.026-26.2,22.966-11.713,49.869
		c2.52,4.683,7.442,7.591,12.85,7.591h162.944c15.652,25.331,43.652,42.13,75.253,42.13c1.877,0,3.782-0.061,5.661-0.179
		C311.027,313.478,348.14,271.35,345.058,222.649z M207.927,260.448c-5.468-8.26-8.908-17.997-9.574-28.515
		c-2.037-32.192,22.496-60.04,54.688-62.077c1.252-0.08,2.519-0.12,3.767-0.12c11.825,0,22.881,3.57,32.133,9.698L207.927,260.448z
		 M260.431,286.62c-1.252,0.08-2.519,0.12-3.767,0.12c-9.431,0-18.375-2.273-26.305-6.299l78.57-78.57
		c3.487,6.878,5.674,14.538,6.189,22.672C317.156,256.736,292.623,284.583,260.431,286.62z"/>
</g>
<g>
</g>
<g>
</g>
<g>
</g>
<g>
</g>
<g>
</g>
<g>
</g>
<g>
</g>
<g>
</g>
<g>
</g>
<g>
</g>
<g>
</g>
<g>
</g>
<g>
</g>
<g>
</g>
<g>
</g>
</svg>
