<?xml version="1.0" encoding="iso-8859-1"?>
<!-- Generator: Adobe Illustrator 17.1.0, SVG Export Plug-In . SVG Version: 6.00 Build 0)  -->
<!DOCTYPE svg PUBLIC "-//W3C//DTD SVG 1.1//EN" "http://www.w3.org/Graphics/SVG/1.1/DTD/svg11.dtd">
<svg version="1.1" id="Capa_1" xmlns="http://www.w3.org/2000/svg" xmlns:xlink="http://www.w3.org/1999/xlink" x="0px" y="0px"
	 viewBox="0 0 343.917 343.917" style="enable-background:new 0 0 343.917 343.917;" xml:space="preserve">
<g>
	<path d="M304.621,216.431c-3.848-3.37-7.48-6.553-9.388-9.981c-0.108-0.201-0.227-0.402-0.35-0.605l-0.061-0.101
		c-6.746-10.795-9.194-36.838-10.656-52.396c-0.215-2.294-0.423-4.492-0.631-6.563c-0.018-0.176-0.039-0.352-0.072-0.603
		c-3.259-22.796-11.34-55.649-31.33-82.709c-14.082-19.059-31.646-31.762-52.249-37.802C198.684,11.316,186.618,0,171.959,0
		c-14.661,0-26.729,11.317-27.925,25.675c-20.604,6.035-38.167,18.738-52.249,37.803c-19.99,27.054-28.071,59.907-31.34,82.775
		c-0.023,0.18-0.045,0.356-0.063,0.542c-0.208,2.065-0.415,4.258-0.63,6.551c-1.462,15.562-3.911,41.608-10.698,52.467
		c-0.105,0.175-0.206,0.349-0.335,0.576c-1.938,3.483-5.572,6.67-9.419,10.043c-9.19,8.056-26.298,22.967-11.779,49.927
		c2.548,4.733,7.471,7.59,12.848,7.59h263.182c5.371,0,10.293-2.854,12.848-7.589C330.913,239.403,313.812,224.491,304.621,216.431z
		"/>
	<path d="M205.197,297.949H140.03c-3.581,0-5.691,1.47-6.832,2.763c-1.668,1.892-2.388,4.472-2.026,7.33
		c2.589,20.462,20.114,35.874,40.767,35.874c20.88,0,38.429-15.631,40.819-36.347c0.157-1.357,0.276-4.721-1.991-7.265
		C209.374,298.742,207.396,297.949,205.197,297.949z"/>
</g>
<g>
</g>
<g>
</g>
<g>
</g>
<g>
</g>
<g>
</g>
<g>
</g>
<g>
</g>
<g>
</g>
<g>
</g>
<g>
</g>
<g>
</g>
<g>
</g>
<g>
</g>
<g>
</g>
<g>
</g>
</svg>
