<?xml version="1.0" encoding="iso-8859-1"?>
<!-- Generator: Adobe Illustrator 17.1.0, SVG Export Plug-In . SVG Version: 6.00 Build 0)  -->
<!DOCTYPE svg PUBLIC "-//W3C//DTD SVG 1.1//EN" "http://www.w3.org/Graphics/SVG/1.1/DTD/svg11.dtd">
<svg version="1.1" id="Capa_1" xmlns="http://www.w3.org/2000/svg" xmlns:xlink="http://www.w3.org/1999/xlink" x="0px" y="0px"
	 viewBox="0 0 317 317" style="enable-background:new 0 0 317 317;" xml:space="preserve">
<path d="M302,13H15C6.728,13,0,19.729,0,28v261c0,8.272,6.728,15,15,15h287c8.272,0,15-6.728,15-15V28C317,19.729,310.272,13,302,13
	z M179,262H77c-8.284,0-15-6.716-15-15s6.716-15,15-15h102c8.284,0,15,6.716,15,15S187.284,262,179,262z M239,203H77
	c-8.284,0-15-6.716-15-15s6.716-15,15-15h162c8.284,0,15,6.716,15,15S247.284,203,239,203z M239,145H77c-8.284,0-15-6.716-15-15
	s6.716-15,15-15h162c8.284,0,15,6.716,15,15S247.284,145,239,145z M239,86H77c-8.284,0-15-6.716-15-15s6.716-15,15-15h162
	c8.284,0,15,6.716,15,15S247.284,86,239,86z"/>
<g>
</g>
<g>
</g>
<g>
</g>
<g>
</g>
<g>
</g>
<g>
</g>
<g>
</g>
<g>
</g>
<g>
</g>
<g>
</g>
<g>
</g>
<g>
</g>
<g>
</g>
<g>
</g>
<g>
</g>
</svg>
