<?xml version="1.0" encoding="iso-8859-1"?>
<!-- Generator: Adobe Illustrator 17.1.0, SVG Export Plug-In . SVG Version: 6.00 Build 0)  -->
<!DOCTYPE svg PUBLIC "-//W3C//DTD SVG 1.1//EN" "http://www.w3.org/Graphics/SVG/1.1/DTD/svg11.dtd">
<svg version="1.1" id="Capa_1" xmlns="http://www.w3.org/2000/svg" xmlns:xlink="http://www.w3.org/1999/xlink" x="0px" y="0px"
	 viewBox="0 0 317 317" style="enable-background:new 0 0 317 317;" xml:space="preserve">
<path d="M302,13H15C6.729,13,0,19.729,0,28v261c0,8.272,6.729,15,15,15h287c8.272,0,15-6.728,15-15V28C317,19.729,310.272,13,302,13
	z M185,263h-52c-8.284,0-15-6.716-15-15c0-8.284,6.716-15,15-15h52c8.284,0,15,6.716,15,15C200,256.284,193.284,263,185,263z
	 M220,204H98c-8.284,0-15-6.716-15-15s6.716-15,15-15h122c8.284,0,15,6.716,15,15S228.284,204,220,204z M108,131
	c0-8.284,6.716-15,15-15h72c8.284,0,15,6.716,15,15s-6.716,15-15,15h-72C114.716,146,108,139.284,108,131z M230,87H88
	c-8.284,0-15-6.716-15-15s6.716-15,15-15h142c8.284,0,15,6.716,15,15S238.284,87,230,87z"/>
<g>
</g>
<g>
</g>
<g>
</g>
<g>
</g>
<g>
</g>
<g>
</g>
<g>
</g>
<g>
</g>
<g>
</g>
<g>
</g>
<g>
</g>
<g>
</g>
<g>
</g>
<g>
</g>
<g>
</g>
</svg>
