<?xml version="1.0" encoding="iso-8859-1"?>
<!-- Generator: Adobe Illustrator 17.1.0, SVG Export Plug-In . SVG Version: 6.00 Build 0)  -->
<!DOCTYPE svg PUBLIC "-//W3C//DTD SVG 1.1//EN" "http://www.w3.org/Graphics/SVG/1.1/DTD/svg11.dtd">
<svg version="1.1" id="Capa_1" xmlns="http://www.w3.org/2000/svg" xmlns:xlink="http://www.w3.org/1999/xlink" x="0px" y="0px"
	 viewBox="0 0 317 317" style="enable-background:new 0 0 317 317;" xml:space="preserve">
<path d="M302,13H15C6.729,13,0,19.729,0,28v261c0,8.272,6.729,15,15,15h287c8.271,0,15-6.728,15-15V28C317,19.729,310.271,13,302,13
	z M240,263H138c-8.284,0-15-6.716-15-15c0-8.284,6.716-15,15-15h102c8.284,0,15,6.716,15,15C255,256.284,248.284,263,240,263z
	 M240,204H78c-8.284,0-15-6.716-15-15s6.716-15,15-15h162c8.284,0,15,6.716,15,15S248.284,204,240,204z M240,146H108
	c-8.284,0-15-6.716-15-15s6.716-15,15-15h132c8.284,0,15,6.716,15,15S248.284,146,240,146z M240,87H138c-8.284,0-15-6.716-15-15
	s6.716-15,15-15h102c8.284,0,15,6.716,15,15S248.284,87,240,87z"/>
<g>
</g>
<g>
</g>
<g>
</g>
<g>
</g>
<g>
</g>
<g>
</g>
<g>
</g>
<g>
</g>
<g>
</g>
<g>
</g>
<g>
</g>
<g>
</g>
<g>
</g>
<g>
</g>
<g>
</g>
</svg>
