<?xml version="1.0" encoding="iso-8859-1"?>
<!-- Generator: Adobe Illustrator 17.1.0, SVG Export Plug-In . SVG Version: 6.00 Build 0)  -->
<!DOCTYPE svg PUBLIC "-//W3C//DTD SVG 1.1//EN" "http://www.w3.org/Graphics/SVG/1.1/DTD/svg11.dtd">
<svg version="1.1" id="Capa_1" xmlns="http://www.w3.org/2000/svg" xmlns:xlink="http://www.w3.org/1999/xlink" x="0px" y="0px"
	 viewBox="0 0 347.223 347.223" style="enable-background:new 0 0 347.223 347.223;" xml:space="preserve">
<g>
	<path d="M343.726,166.865l-44.009-30.833c-1.413-0.99-2.728-1.513-4.252-1.513c-3.307,0-6.417,2.512-6.417,7.313v9.78h-44.076
		c-4.962,0-8.924,3.743-8.924,8.705v25.87c0,4.962,3.962,9.425,8.924,9.425h44.076v9.064c0,4.8,3.111,6.936,6.418,6.936h-0.118
		c1.524,0,3.017-0.335,4.431-1.324l43.977-30.737c2.213-1.551,3.467-3.833,3.467-6.344
		C347.223,170.696,345.938,168.414,343.726,166.865z"/>
	<path d="M102.208,151.611H59.048v-9.78c0-4.801-3.569-7.313-6.876-7.313c-1.524,0-3.188,0.523-4.601,1.513L3.509,166.862
		C1.297,168.413,0,170.742,0,173.252c0,2.51,1.255,4.839,3.468,6.391l44.002,30.645c1.413,0.989,2.961,1.324,4.486,1.324h-0.001
		c2.082,0,4.203-0.77,5.438-2.441c0.939-1.272,1.655-2.703,1.655-4.495v-9.064h43.161c4.962,0,8.839-4.459,8.839-9.421v-25.87
		C111.048,155.358,107.171,151.611,102.208,151.611z"/>
	<path d="M192.048,17.611h-37c-4.962,0-9,4.038-9,9v294c0,4.962,4.038,9,9,9h37c4.962,0,9-4.038,9-9v-294
		C201.048,21.649,197.01,17.611,192.048,17.611z"/>
</g>
<g>
</g>
<g>
</g>
<g>
</g>
<g>
</g>
<g>
</g>
<g>
</g>
<g>
</g>
<g>
</g>
<g>
</g>
<g>
</g>
<g>
</g>
<g>
</g>
<g>
</g>
<g>
</g>
<g>
</g>
</svg>
