<?xml version="1.0" encoding="iso-8859-1"?>
<!-- Generator: Adobe Illustrator 17.1.0, SVG Export Plug-In . SVG Version: 6.00 Build 0)  -->
<!DOCTYPE svg PUBLIC "-//W3C//DTD SVG 1.1//EN" "http://www.w3.org/Graphics/SVG/1.1/DTD/svg11.dtd">
<svg version="1.1" id="Capa_1" xmlns="http://www.w3.org/2000/svg" xmlns:xlink="http://www.w3.org/1999/xlink" x="0px" y="0px"
	 viewBox="0 0 351 351" style="enable-background:new 0 0 351 351;" xml:space="preserve">
<g>
	<path d="M342.085,153.5H298v-9.78c0-4.801-3.106-7.313-6.414-7.313c-1.524,0-2.957,0.523-4.37,1.513l-43.946,30.831
		c-2.213,1.551-3.452,3.88-3.452,6.39c0,2.51,1.285,4.839,3.497,6.391l44.016,30.644c1.413,0.99,2.97,1.324,4.493,1.324
		c0.001,0,0.003,0,0.003,0c2.082,0,3.743-0.77,4.978-2.442c0.94-1.271,1.194-2.702,1.194-4.494V197.5h44.085
		c4.963,0,8.915-4.458,8.915-9.421v-25.87C351,157.247,347.048,153.5,342.085,153.5z"/>
	<path d="M107.754,168.753L63.745,137.92c-1.413-0.99-2.766-1.513-4.29-1.513c-3.307,0-6.455,2.512-6.455,7.313v9.78H9
		c-4.963,0-9,3.743-9,8.705v25.87c0,4.962,4.037,9.425,9,9.425h44v9.064c0,4.8,3.149,7.313,6.457,7.313
		c1.524,0,2.978-0.523,4.391-1.513l43.956-30.831c2.213-1.551,3.458-3.88,3.458-6.391
		C111.261,172.632,109.967,170.303,107.754,168.753z"/>
	<path d="M194,19.5h-37c-4.963,0-9,4.038-9,9v294c0,4.962,4.037,9,9,9h37c4.963,0,9-4.038,9-9v-294
		C203,23.538,198.963,19.5,194,19.5z"/>
</g>
<g>
</g>
<g>
</g>
<g>
</g>
<g>
</g>
<g>
</g>
<g>
</g>
<g>
</g>
<g>
</g>
<g>
</g>
<g>
</g>
<g>
</g>
<g>
</g>
<g>
</g>
<g>
</g>
<g>
</g>
</svg>
