<?xml version="1.0" encoding="iso-8859-1"?>
<!-- Generator: Adobe Illustrator 17.1.0, SVG Export Plug-In . SVG Version: 6.00 Build 0)  -->
<!DOCTYPE svg PUBLIC "-//W3C//DTD SVG 1.1//EN" "http://www.w3.org/Graphics/SVG/1.1/DTD/svg11.dtd">
<svg version="1.1" id="Capa_1" xmlns="http://www.w3.org/2000/svg" xmlns:xlink="http://www.w3.org/1999/xlink" x="0px" y="0px"
	 viewBox="0 0 348 348" style="enable-background:new 0 0 348 348;" xml:space="preserve">
<g>
	<path d="M339.489,150H234v-34.323c0-4.802-3.146-7.314-6.453-7.314c-1.524,0-2.977,0.523-4.389,1.514l-82.365,57.739
		c-2.214,1.551-3.457,3.881-3.457,6.391c0,2.51,1.281,4.839,3.494,6.39l82.427,57.745c1.413,0.989,2.968,1.512,4.492,1.512
		c2.082,0,3.782-0.958,5.016-2.629c0.939-1.271,1.234-2.891,1.234-4.684V198h105.489c4.963,0,8.511-4.149,8.511-9.112v-29.75
		C348,154.175,344.452,150,339.489,150z"/>
	<path d="M294.25,221H277.5c-1.901,0-3.434,0.59-4.554,1.752c-2.047,2.125-1.951,5.379-1.946,5.498l0,0V284h-8v0.369L262.321,284H29
		V65h233.215h0.248L263,64.293V65h8v53.639c0,0.194-0.239,4.781,2.309,7.478c1.181,1.25,2.759,1.884,4.691,1.884
		c5.625,0,11.813,0,15.75,0c7.167,0,7.25-8.911,7.25-9.001V58.052C301,45.126,290.874,35,277.948,35H24.052
		C10.79,35,0,45.341,0,58.052v230.896l0,0C0,301.983,11.012,312.997,24.047,313c0.002,0,0.003,0,0.005,0h0h253.896h0
		c0.002,0,0.003,0,0.005,0C290.662,312.997,301,302.208,301,288.948V229.25C301,229.168,300.923,221,294.25,221z M300,288.948
		C300,288.949,300,288.949,300,288.948L300,288.948L300,288.948z"/>
</g>
<g>
</g>
<g>
</g>
<g>
</g>
<g>
</g>
<g>
</g>
<g>
</g>
<g>
</g>
<g>
</g>
<g>
</g>
<g>
</g>
<g>
</g>
<g>
</g>
<g>
</g>
<g>
</g>
<g>
</g>
</svg>
