<?xml version="1.0" encoding="iso-8859-1"?>
<!-- Generator: Adobe Illustrator 17.1.0, SVG Export Plug-In . SVG Version: 6.00 Build 0)  -->
<!DOCTYPE svg PUBLIC "-//W3C//DTD SVG 1.1//EN" "http://www.w3.org/Graphics/SVG/1.1/DTD/svg11.dtd">
<svg version="1.1" id="Capa_1" xmlns="http://www.w3.org/2000/svg" xmlns:xlink="http://www.w3.org/1999/xlink" x="0px" y="0px"
	 viewBox="0 0 329 329" style="enable-background:new 0 0 329 329;" xml:space="preserve">
<path d="M309,3H20C8.972,3,0,11.972,0,23v283c0,11.028,8.972,20,20,20h289c11.028,0,20-8.972,20-20V23C329,11.972,320.028,3,309,3z
	 M276.537,75.735l-9.351,53.149c-0.859,4.886-4.192,8.85-8.53,10.219c-4.338,1.369-9.253,0.322-12.761-3.186l-3.643-3.643
	l-27.377,27.376c-5.671,5.671-14.892,6.722-20.563,1.051l-17.969-17.969c-2.743-2.743-4.08-6.744-4.08-10.632
	c0-3.889,1.685-7.89,4.428-10.633l27.378-27.377l-2.943-2.943c-2.547-2.546-3.715-5.997-3.715-9.29
	c0-5.842,4.444-10.802,10.638-11.891l53.214-9.418c3.985-0.701,7.986,0.285,10.929,2.755
	C275.697,66.244,277.38,70.974,276.537,75.735z"/>
<g>
</g>
<g>
</g>
<g>
</g>
<g>
</g>
<g>
</g>
<g>
</g>
<g>
</g>
<g>
</g>
<g>
</g>
<g>
</g>
<g>
</g>
<g>
</g>
<g>
</g>
<g>
</g>
<g>
</g>
</svg>
