<?xml version="1.0" encoding="iso-8859-1"?>
<!-- Generator: Adobe Illustrator 17.1.0, SVG Export Plug-In . SVG Version: 6.00 Build 0)  -->
<!DOCTYPE svg PUBLIC "-//W3C//DTD SVG 1.1//EN" "http://www.w3.org/Graphics/SVG/1.1/DTD/svg11.dtd">
<svg version="1.1" id="Capa_1" xmlns="http://www.w3.org/2000/svg" xmlns:xlink="http://www.w3.org/1999/xlink" x="0px" y="0px"
	 viewBox="0 0 338 338" style="enable-background:new 0 0 338 338;" xml:space="preserve">
<g>
	<path d="M242.09,206h-7.547c-0.158,0-0.336-0.069-0.453-0.143V198c0-5.607-4.193-10-9.547-10h-1.28c-5.515,0-10.173,4.58-10.173,10
		l-0.003,8h-7.997c-5.421,0-10,4.659-10,10.173v1.28c0,5.354,4.393,9.547,10,9.547h7.856c0.074,0.117,0.144,0.294,0.144,0.453V235
		c0,5.42,4.658,10,10.173,10h1.28c5.354,0,9.547-4.393,9.547-10v-7.456c0.078-0.188,0.357-0.466,0.544-0.544h7.456
		c5.607,0,10-4.193,10-9.547v-1.28C252.09,210.659,247.511,206,242.09,206z"/>
	<path d="M305.91,216.398c0-41.071-30.363-75.177-69.82-81.068V57.772C236.09,44.113,224.879,33,211.099,33H187.09V10
		c0-5.514-4.486-10-10-10h-87c-5.514,0-10,4.486-10,10v23H56.726C42.911,33,32.09,43.881,32.09,57.772v254.865
		C32.09,326.622,43.142,338,56.726,338h154.373c13.78,0,24.991-11.378,24.991-25.363v-15.171
		C275.547,291.576,305.91,257.47,305.91,216.398z M206.09,63v39h-144V63H206.09z M223.936,268.373
		c-28.659,0-51.975-23.315-51.975-51.974s23.315-51.974,51.975-51.974s51.975,23.315,51.975,51.974S252.595,268.373,223.936,268.373
		z"/>
</g>
<g>
</g>
<g>
</g>
<g>
</g>
<g>
</g>
<g>
</g>
<g>
</g>
<g>
</g>
<g>
</g>
<g>
</g>
<g>
</g>
<g>
</g>
<g>
</g>
<g>
</g>
<g>
</g>
<g>
</g>
</svg>
