<?xml version="1.0" encoding="iso-8859-1"?>
<!-- Generator: Adobe Illustrator 17.1.0, SVG Export Plug-In . SVG Version: 6.00 Build 0)  -->
<!DOCTYPE svg PUBLIC "-//W3C//DTD SVG 1.1//EN" "http://www.w3.org/Graphics/SVG/1.1/DTD/svg11.dtd">
<svg version="1.1" id="Capa_1" xmlns="http://www.w3.org/2000/svg" xmlns:xlink="http://www.w3.org/1999/xlink" x="0px" y="0px"
	 viewBox="0 0 338 338" style="enable-background:new 0 0 338 338;" xml:space="preserve">
<g>
	<path d="M323,42h-15V9.5c0-5.238-4.262-9.5-9.5-9.5h-8c-5.238,0-9.5,4.262-9.5,9.5V42h-13V9.5c0-5.238-4.262-9.5-9.5-9.5h-8
		c-5.238,0-9.5,4.262-9.5,9.5V42h-14c-3.859,0-7,3.14-7,7v19c0,3.86,3.141,7,7,7h3v45.718c0,10.476,8.718,19.282,19.194,19.282H257
		v183c0,8.284,6.716,15,15,15s15-6.716,15-15V140h13.348c10.477,0,18.652-8.805,18.652-19.282V75h4c3.859,0,7-3.14,7-7V49
		C330,45.14,326.859,42,323,42z"/>
	<path d="M187,33h-24V10c0-5.514-4.486-10-10-10H66c-5.514,0-10,4.486-10,10v23H33C19.215,33,8,44.215,8,58v255
		c0,13.785,11.215,25,25,25h154c13.785,0,25-11.215,25-25V58C212,44.215,200.785,33,187,33z M182,63v99H38V63H182z"/>
</g>
<g>
</g>
<g>
</g>
<g>
</g>
<g>
</g>
<g>
</g>
<g>
</g>
<g>
</g>
<g>
</g>
<g>
</g>
<g>
</g>
<g>
</g>
<g>
</g>
<g>
</g>
<g>
</g>
<g>
</g>
</svg>
