<?xml version="1.0" encoding="iso-8859-1"?>
<!-- Generator: Adobe Illustrator 17.1.0, SVG Export Plug-In . SVG Version: 6.00 Build 0)  -->
<!DOCTYPE svg PUBLIC "-//W3C//DTD SVG 1.1//EN" "http://www.w3.org/Graphics/SVG/1.1/DTD/svg11.dtd">
<svg version="1.1" id="Capa_1" xmlns="http://www.w3.org/2000/svg" xmlns:xlink="http://www.w3.org/1999/xlink" x="0px" y="0px"
	 viewBox="0 0 338 338" style="enable-background:new 0 0 338 338;" xml:space="preserve">
<g>
	<path d="M241.926,220h-38c-5.514,0-10,4.486-10,10v2c0,5.514,4.486,10,10,10h38c5.514,0,10-4.486,10-10v-2
		C251.926,224.486,247.44,220,241.926,220z"/>
	<path d="M308.074,229.398c0-43.046-32.437-78.636-74.148-83.669V57.772c0-13.659-11.211-24.772-24.991-24.772h-24.009V10
		c0-5.514-4.486-10-10-10h-87c-5.514,0-10,4.486-10,10v23H54.562c-13.814,0-24.636,10.881-24.636,24.772v254.865
		c0,13.985,11.052,25.363,24.636,25.363h154.373c13.637,0,24.751-11.145,24.98-24.931
		C275.631,308.041,308.074,272.448,308.074,229.398z M223.771,279.044c-27.374,0-49.646-22.271-49.646-49.646
		c0-27.375,22.271-49.646,49.646-49.646s49.645,22.271,49.645,49.646C273.417,256.773,251.146,279.044,223.771,279.044z M203.926,63
		v84.477c-35.615,8.629-62.474,39.919-64.35,77.692c-30.582,0.029-61.809,0.108-79.65,0.159V63H203.926z"/>
</g>
<g>
</g>
<g>
</g>
<g>
</g>
<g>
</g>
<g>
</g>
<g>
</g>
<g>
</g>
<g>
</g>
<g>
</g>
<g>
</g>
<g>
</g>
<g>
</g>
<g>
</g>
<g>
</g>
<g>
</g>
</svg>
