<?xml version="1.0" encoding="iso-8859-1"?>
<!-- Generator: Adobe Illustrator 17.1.0, SVG Export Plug-In . SVG Version: 6.00 Build 0)  -->
<!DOCTYPE svg PUBLIC "-//W3C//DTD SVG 1.1//EN" "http://www.w3.org/Graphics/SVG/1.1/DTD/svg11.dtd">
<svg version="1.1" id="Capa_1" xmlns="http://www.w3.org/2000/svg" xmlns:xlink="http://www.w3.org/1999/xlink" x="0px" y="0px"
	 viewBox="0 0 310.285 310.285" style="enable-background:new 0 0 310.285 310.285;" xml:space="preserve">
<path d="M264.845,45.441C235.542,16.139,196.583,0,155.143,0c-41.44,0-80.4,16.139-109.701,45.441
	C16.139,74.743,0,113.703,0,155.144c0,41.439,16.139,80.399,45.441,109.701c29.302,29.303,68.262,45.44,109.701,45.44
	c41.44,0,80.399-16.138,109.702-45.44c29.303-29.302,45.44-68.262,45.44-109.701C310.285,113.703,294.147,74.743,264.845,45.441z
	 M155.72,161.184c-15.594,3.295-30.907-6.675-34.203-22.27c-3.295-15.594,6.675-30.907,22.269-34.203
	c15.594-3.295,30.907,6.675,34.203,22.27C181.285,142.576,171.314,157.889,155.72,161.184z M163.903,63.828
	c-3.295-15.594,6.675-30.907,22.269-34.203s30.907,6.675,34.202,22.269c3.295,15.595-6.675,30.908-22.269,34.203
	C182.512,89.393,167.199,79.422,163.903,63.828z M243.145,167.025c-19.047,4.025-37.75-8.153-41.774-27.2
	c-4.025-19.046,8.153-37.749,27.199-41.774c19.047-4.024,37.75,8.153,41.775,27.2C274.37,144.297,262.192,163,243.145,167.025z"/>
<g>
</g>
<g>
</g>
<g>
</g>
<g>
</g>
<g>
</g>
<g>
</g>
<g>
</g>
<g>
</g>
<g>
</g>
<g>
</g>
<g>
</g>
<g>
</g>
<g>
</g>
<g>
</g>
<g>
</g>
</svg>
