<?xml version="1.0" encoding="iso-8859-1"?>
<!-- Generator: Adobe Illustrator 17.1.0, SVG Export Plug-In . SVG Version: 6.00 Build 0)  -->
<!DOCTYPE svg PUBLIC "-//W3C//DTD SVG 1.1//EN" "http://www.w3.org/Graphics/SVG/1.1/DTD/svg11.dtd">
<svg version="1.1" id="Capa_1" xmlns="http://www.w3.org/2000/svg" xmlns:xlink="http://www.w3.org/1999/xlink" x="0px" y="0px"
	 viewBox="0 0 329 329" style="enable-background:new 0 0 329 329;" xml:space="preserve">
<path d="M309,3H20C8.972,3,0,11.972,0,23v283c0,11.028,8.972,20,20,20h289c11.028,0,20-8.972,20-20V23C329,11.972,320.028,3,309,3z
	 M274.324,103.326l-27.378,27.377l2.944,2.943c2.547,2.546,3.715,5.997,3.715,9.29c0,5.842-4.444,10.802-10.638,11.892
	l-53.214,9.418c-3.985,0.701-7.986-0.285-10.929-2.754c-3.505-2.942-5.189-7.671-4.346-12.434l9.35-53.148
	c0.859-4.886,4.192-8.85,8.53-10.219c4.338-1.369,9.253-0.322,12.761,3.186l3.643,3.643l27.377-27.376
	c5.671-5.671,14.892-6.722,20.563-1.051l17.969,17.969c2.743,2.743,4.08,6.744,4.08,10.632
	C278.752,96.581,277.067,100.582,274.324,103.326z"/>
<g>
</g>
<g>
</g>
<g>
</g>
<g>
</g>
<g>
</g>
<g>
</g>
<g>
</g>
<g>
</g>
<g>
</g>
<g>
</g>
<g>
</g>
<g>
</g>
<g>
</g>
<g>
</g>
<g>
</g>
</svg>
