<?xml version="1.0" encoding="iso-8859-1"?>
<!-- Generator: Adobe Illustrator 17.1.0, SVG Export Plug-In . SVG Version: 6.00 Build 0)  -->
<!DOCTYPE svg PUBLIC "-//W3C//DTD SVG 1.1//EN" "http://www.w3.org/Graphics/SVG/1.1/DTD/svg11.dtd">
<svg version="1.1" id="Capa_1" xmlns="http://www.w3.org/2000/svg" xmlns:xlink="http://www.w3.org/1999/xlink" x="0px" y="0px"
	 viewBox="0 0 306 306" style="enable-background:new 0 0 306 306;" xml:space="preserve">
<g>
	<path d="M295.329,6.688C291.155,2.51,285.616,0,279.732,0H26.269c-5.885,0-11.424,2.51-15.598,6.688
		c-4.173,4.178-6.468,9.823-6.462,15.706l0.228,261.363C4.45,295.921,14.356,306,26.521,306h252.958
		c12.165,0,22.071-10.027,22.082-22.192l0.229-261.346C301.797,16.576,299.502,10.866,295.329,6.688z M268.038,270.929
		c0,1.144-0.927,2.071-2.071,2.071H39.109c-1.144,0-2.071-0.927-2.071-2.071V85.071c0-1.144,0.927-2.071,2.071-2.071h226.857
		c1.144,0,2.071,0.927,2.071,2.071V270.929z"/>
	<path d="M82.983,229h60.347c3.809,0,4.708-2.594,4.708-4.454v-13.214c0-1.834-0.986-4.332-5.036-4.332h-27.387l4.997-4.281
		c13.577-12.133,26.142-25.764,26.142-42.779c0-19.464-13.963-32.069-35.572-32.069c-10.024,0-20.039,2.604-28.198,7.359
		c-4.185,2.434-4.326,5.97-3.708,8.513l3.703,9.436l0.155,0.309c0.909,1.484,2.371,2.301,4.115,2.3c1.387,0,2.954-0.511,4.658-1.519
		c5.003-2.96,9.952-4.461,14.709-4.461c8.87,0,13.756,4.258,13.757,11.936c-0.271,10.294-9.689,20.413-30.707,39.211l-7.839,7.273
		c-1.17,1.096-4.789,4.922-4.789,8.167v7.757C77.038,227.602,79.928,229,82.983,229z"/>
	<path d="M160.321,224.656c7.084,3.844,17.503,6.139,27.871,6.139c24.624,0,41.169-12.58,41.169-31.303
		c0-10.796-6.736-19.94-17.138-23.801c8.999-4.676,13.898-12.368,13.898-21.994c0-12.87-10.453-25.855-33.807-25.855
		c-9.074,0-18.878,1.939-26.225,5.187c-2.916,1.287-5.609,3.934-4.689,6.726l3.216,11.411l0.064,0.189
		c1.018,2.596,3.479,3.571,6.04,2.342c2.04-0.981,9.266-4.183,16.59-4.183c7.599,0,12.135,2.995,12.135,8.013
		c0,8.504-13.571,9.014-15.08,9.044l-5.537,0.002c-2.394,0.112-4.79,1.434-4.79,4.07v11.044c0,1.902,0.655,3.414,2.171,4.256
		c1.07,0.594,2.094,0.872,2.662,0.872c0.077,0,0.048,0.187,0.094,0.187h5.84c7.976,0,17.29,2.873,17.29,11.504
		c0,6.668-5.948,10.716-15.522,10.716c-7.535,0-14.908-2.799-18.634-4.438c-0.583-0.256-1.241-0.415-1.902-0.415
		c-2.061,0-3.754,1.249-4.421,3.278l-3.156,11.59C157.626,221.834,158.79,223.826,160.321,224.656z"/>
</g>
<g>
</g>
<g>
</g>
<g>
</g>
<g>
</g>
<g>
</g>
<g>
</g>
<g>
</g>
<g>
</g>
<g>
</g>
<g>
</g>
<g>
</g>
<g>
</g>
<g>
</g>
<g>
</g>
<g>
</g>
</svg>
