<?xml version="1.0" encoding="iso-8859-1"?>
<!-- Generator: Adobe Illustrator 17.1.0, SVG Export Plug-In . SVG Version: 6.00 Build 0)  -->
<!DOCTYPE svg PUBLIC "-//W3C//DTD SVG 1.1//EN" "http://www.w3.org/Graphics/SVG/1.1/DTD/svg11.dtd">
<svg version="1.1" id="Capa_1" xmlns="http://www.w3.org/2000/svg" xmlns:xlink="http://www.w3.org/1999/xlink" x="0px" y="0px"
	 viewBox="0 0 371.223 371.223" style="enable-background:new 0 0 371.223 371.223;" xml:space="preserve">
<g>
	<path d="M310.344,248.932h-18v-23c0-7.456-6.044-13.5-13.5-13.5c-7.456,0-13.5,6.044-13.5,13.5v33.94
		c0,8.855,7.429,16.06,16.56,16.06h28.44c7.456,0,13.5-6.044,13.5-13.5C323.844,254.976,317.8,248.932,310.344,248.932z"/>
	<path d="M89.912,118.932H60.775c-6.304,0-11.432,5.128-11.432,11.432v24.137c0,6.303,5.128,11.432,11.432,11.432h29.137
		c6.304,0,11.432-5.128,11.432-11.432v-24.137C101.344,124.061,96.216,118.932,89.912,118.932z"/>
	<path d="M164.912,118.932h-29.137c-6.304,0-11.432,5.128-11.432,11.432v24.137c0,6.303,5.128,11.432,11.432,11.432h29.137
		c6.304,0,11.432-5.128,11.432-11.432v-24.137C176.344,124.061,171.216,118.932,164.912,118.932z"/>
	<path d="M240.912,118.932h-29.137c-6.304,0-11.432,5.128-11.432,11.432v24.137c0,6.303,5.128,11.432,11.432,11.432h29.137
		c6.304,0,11.432-5.128,11.432-11.432v-24.137C252.344,124.061,247.216,118.932,240.912,118.932z"/>
	<path d="M89.912,192.932H60.775c-6.304,0-11.432,5.128-11.432,11.432v24.137c0,6.303,5.128,11.432,11.432,11.432h29.137
		c6.304,0,11.432-5.128,11.432-11.432v-24.137C101.344,198.061,96.216,192.932,89.912,192.932z"/>
	<path d="M164.912,192.932h-29.137c-6.304,0-11.432,5.128-11.432,11.432v24.137c0,6.303,5.128,11.432,11.432,11.432h29.137
		c6.304,0,11.432-5.128,11.432-11.432v-24.137C176.344,198.061,171.216,192.932,164.912,192.932z"/>
	<path d="M300.157,170.34L300.85,42.1c0.005-5.719-2.212-10.807-6.241-14.327c-3.626-3.167-8.403-4.841-13.815-4.841H20.689
		c-5.231,0-10.135,1.623-13.811,4.572C2.438,31.066-0.005,36.25,0,42.1l0.203,232.317c0.012,11.663,9.495,21.515,20.71,21.515
		H199.52c14.271,30.878,45.535,52.358,81.726,52.358c49.614,0,89.977-40.364,89.977-89.978
		C371.223,215.184,340.72,179.051,300.157,170.34z M191.267,258.312c0,1.888,0.065,3.761,0.181,5.62H32.56
		c-1.306-0.377-3.638-2.46-4.216-3.744V98.491c0.97-0.291,2.379-0.559,3.963-0.559h235.037v71.476
		C224.307,176.111,191.267,213.425,191.267,258.312z M281.245,314.813c-31.155,0-56.502-25.346-56.502-56.501
		s25.347-56.501,56.502-56.501c31.154,0,56.501,25.346,56.501,56.501S312.399,314.813,281.245,314.813z"/>
</g>
<g>
</g>
<g>
</g>
<g>
</g>
<g>
</g>
<g>
</g>
<g>
</g>
<g>
</g>
<g>
</g>
<g>
</g>
<g>
</g>
<g>
</g>
<g>
</g>
<g>
</g>
<g>
</g>
<g>
</g>
</svg>
