<?xml version="1.0" encoding="iso-8859-1"?>
<!-- Generator: Adobe Illustrator 17.1.0, SVG Export Plug-In . SVG Version: 6.00 Build 0)  -->
<!DOCTYPE svg PUBLIC "-//W3C//DTD SVG 1.1//EN" "http://www.w3.org/Graphics/SVG/1.1/DTD/svg11.dtd">
<svg version="1.1" id="Capa_1" xmlns="http://www.w3.org/2000/svg" xmlns:xlink="http://www.w3.org/1999/xlink" x="0px" y="0px"
	 viewBox="0 0 384 384" style="enable-background:new 0 0 384 384;" xml:space="preserve">
<g>
	<path d="M182.094,138.544c-41.441,0-75.157,33.715-75.157,75.155c0,8.284,6.716,15,15,15c8.284,0,15-6.716,15-15
		c0-24.898,20.257-45.155,45.157-45.155c8.284,0,15-6.716,15-15C197.094,145.26,190.378,138.544,182.094,138.544z"/>
	<path d="M364.454,121.43H355v-18h3c8.822,0,16-7.178,16-16v-41c0-8.822-7.178-16-16-16h-75c-8.822,0-16,7.178-16,16v41
		c0,8.822,7.178,16,16,16h1v18h-11.166c-22.206-17-50.265-28.138-80.74-28.138c-30.475,0-58.534,11.138-80.74,28.138h-91.62
		C8.706,121.43,0,130.626,0,141.654v164.088c0,11.028,8.706,19.688,19.733,19.688h91.616c22.207,18,50.267,28.141,80.744,28.141
		c30.477,0,58.538-10.141,80.744-28.141h91.616c11.028,0,19.546-8.659,19.546-19.688V141.654
		C384,130.626,375.482,121.43,364.454,121.43z M65,186.43c0,2.761-2.239,5-5,5H34c-2.761,0-5-2.239-5-5v-22c0-2.761,2.239-5,5-5h26
		c2.761,0,5,2.239,5,5V186.43z M192.094,335.882c-61.959,0-112.181-50.222-112.181-112.182s50.222-112.184,112.181-112.184
		c61.956,0,112.181,50.224,112.181,112.184S254.05,335.882,192.094,335.882z M289.937,89.43c-2.727,0-4.937-2.21-4.937-4.937V50.366
		c0-2.726,2.21-4.937,4.937-4.937h62.127c2.727,0,4.937,2.21,4.937,4.937v34.127c0,2.727-2.21,4.937-4.937,4.937H289.937z"/>
</g>
<g>
</g>
<g>
</g>
<g>
</g>
<g>
</g>
<g>
</g>
<g>
</g>
<g>
</g>
<g>
</g>
<g>
</g>
<g>
</g>
<g>
</g>
<g>
</g>
<g>
</g>
<g>
</g>
<g>
</g>
</svg>
