<?xml version="1.0" encoding="iso-8859-1"?>
<!-- Generator: Adobe Illustrator 17.1.0, SVG Export Plug-In . SVG Version: 6.00 Build 0)  -->
<!DOCTYPE svg PUBLIC "-//W3C//DTD SVG 1.1//EN" "http://www.w3.org/Graphics/SVG/1.1/DTD/svg11.dtd">
<svg version="1.1" id="Capa_1" xmlns="http://www.w3.org/2000/svg" xmlns:xlink="http://www.w3.org/1999/xlink" x="0px" y="0px"
	 viewBox="0 0 352 352" style="enable-background:new 0 0 352 352;" xml:space="preserve">
<g>
	<path d="M209.006,0H31.722C20.761,0,11.5,9.302,11.5,20.312v311.378c0,11.01,9.261,20.311,20.222,20.311h177.284
		c11.109,0,20.494-9.301,20.494-20.311V20.312C229.5,9.302,220.115,0,209.006,0z M120.364,337c-11.782,0-21.333-9.551-21.333-21.333
		c0-11.782,9.551-21.333,21.333-21.333c11.782,0,21.333,9.551,21.333,21.333C141.697,327.449,132.146,337,120.364,337z
		 M200.5,271.157c0,5.52-4.34,9.843-9.88,9.843H50.107c-5.388,0-9.607-4.323-9.607-9.843V54.922c0-5.564,4.22-9.922,9.607-9.922
		H190.62c5.448,0,9.88,4.451,9.88,9.922V271.157z"/>
	<path d="M333.5,90h-14V62c0-3.86-3.141-7-7-7h-7c-3.859,0-7,3.14-7,7v28h-14V62c0-3.86-3.141-7-7-7h-7c-3.859,0-7,3.14-7,7v28h-13
		c-3.859,0-7,3.14-7,7v16c0,3.86,3.141,7,7,7h2v36.441c0,10.477,8.336,18.559,18.813,18.559h4.188v159c0,8.284,6.716,15,15,15
		s15-6.716,15-15V175h6.572c10.477,0,19.428-8.083,19.428-18.559V120h2c3.859,0,7-3.14,7-7V97C340.5,93.14,337.359,90,333.5,90z"/>
</g>
<g>
</g>
<g>
</g>
<g>
</g>
<g>
</g>
<g>
</g>
<g>
</g>
<g>
</g>
<g>
</g>
<g>
</g>
<g>
</g>
<g>
</g>
<g>
</g>
<g>
</g>
<g>
</g>
<g>
</g>
</svg>
