<?xml version="1.0" encoding="iso-8859-1"?>
<!-- Generator: Adobe Illustrator 17.1.0, SVG Export Plug-In . SVG Version: 6.00 Build 0)  -->
<!DOCTYPE svg PUBLIC "-//W3C//DTD SVG 1.1//EN" "http://www.w3.org/Graphics/SVG/1.1/DTD/svg11.dtd">
<svg version="1.1" id="Capa_1" xmlns="http://www.w3.org/2000/svg" xmlns:xlink="http://www.w3.org/1999/xlink" x="0px" y="0px"
	 viewBox="0 0 359.777 359.777" style="enable-background:new 0 0 359.777 359.777;" xml:space="preserve">
<path d="M301.806,245.695c-9.665,0-17.5,7.835-17.5,17.5c0,33.381-28.813,61.582-62.918,61.582s-62.917-28.203-62.917-61.585V241
	h45.583c17.093,0,31.417-14.384,31.417-31.477v-90.783c0-0.584-0.437-1.163-0.469-1.739h8.469c5.514,0,10-4.486,10-10V77
	c0-5.514-4.486-10-10-10h-34V10c0-5.514-4.486-10-10-10h-21c-5.514,0-10,4.486-10,10v57h-44V10c0-5.514-4.486-10-10-10h-21
	c-5.514,0-10,4.486-10,10v57h-33c-5.514,0-10,4.486-10,10v30c0,5.514,4.486,10,10,10h7.72c-0.032,0.576,0.28,1.155,0.28,1.739
	v90.783c0,17.093,13.575,31.477,30.668,31.477h34.332v22.192c0,25.794,10.334,50.099,29.099,68.437
	c18.574,18.151,43.014,28.148,68.818,28.148s50.245-9.996,68.818-28.146c18.765-18.337,29.099-42.641,29.099-68.436
	C319.306,253.53,311.471,245.695,301.806,245.695z"/>
<g>
</g>
<g>
</g>
<g>
</g>
<g>
</g>
<g>
</g>
<g>
</g>
<g>
</g>
<g>
</g>
<g>
</g>
<g>
</g>
<g>
</g>
<g>
</g>
<g>
</g>
<g>
</g>
<g>
</g>
</svg>
