<?xml version="1.0" encoding="iso-8859-1"?>
<!-- Generator: Adobe Illustrator 17.1.0, SVG Export Plug-In . SVG Version: 6.00 Build 0)  -->
<!DOCTYPE svg PUBLIC "-//W3C//DTD SVG 1.1//EN" "http://www.w3.org/Graphics/SVG/1.1/DTD/svg11.dtd">
<svg version="1.1" id="Capa_1" xmlns="http://www.w3.org/2000/svg" xmlns:xlink="http://www.w3.org/1999/xlink" x="0px" y="0px"
	 viewBox="0 0 366.24 366.24" style="enable-background:new 0 0 366.24 366.24;" xml:space="preserve">
<path d="M312.227,65.041c-34.532-28.103-80.383-43.579-129.106-43.579c-48.724,0-94.575,15.477-129.106,43.579
	C19.183,93.388,0,131.167,0,171.42c0,38.419,17.486,74.578,49.362,102.438c-0.574,1.293-1.031,2.653-1.322,4.083l-10.474,51.52
	c-1.245,6.123,0.428,9.774,2.05,11.76c1.875,2.294,4.654,3.558,7.826,3.558c0,0,0,0,0,0c2.395,0,4.969-0.707,7.651-2.101
	l60.921-31.649c21.092,6.789,43.767,10.349,67.106,10.349c48.724,0,94.574-15.477,129.106-43.579
	c34.831-28.346,54.014-66.125,54.014-106.378C366.24,131.167,347.058,93.388,312.227,65.041z M98.146,202.769
	c-15.082,0-27.353-12.27-27.353-27.353c0-15.083,12.271-27.354,27.353-27.354c15.082,0,27.352,12.271,27.352,27.354
	C125.499,190.498,113.229,202.769,98.146,202.769z M182.673,202.769c-15.083,0-27.353-12.27-27.353-27.353
	c0-15.083,12.27-27.354,27.353-27.354c15.082,0,27.353,12.271,27.353,27.354C210.025,190.498,197.755,202.769,182.673,202.769z
	 M267.198,202.769c-15.082,0-27.352-12.27-27.352-27.353c0-15.083,12.271-27.354,27.352-27.354
	c15.082,0,27.353,12.271,27.353,27.354C294.551,190.498,282.28,202.769,267.198,202.769z"/>
<g>
</g>
<g>
</g>
<g>
</g>
<g>
</g>
<g>
</g>
<g>
</g>
<g>
</g>
<g>
</g>
<g>
</g>
<g>
</g>
<g>
</g>
<g>
</g>
<g>
</g>
<g>
</g>
<g>
</g>
</svg>
