<?xml version="1.0" encoding="iso-8859-1"?>
<!-- Generator: Adobe Illustrator 17.1.0, SVG Export Plug-In . SVG Version: 6.00 Build 0)  -->
<!DOCTYPE svg PUBLIC "-//W3C//DTD SVG 1.1//EN" "http://www.w3.org/Graphics/SVG/1.1/DTD/svg11.dtd">
<svg version="1.1" id="Capa_1" xmlns="http://www.w3.org/2000/svg" xmlns:xlink="http://www.w3.org/1999/xlink" x="0px" y="0px"
	 viewBox="0 0 382 382" style="enable-background:new 0 0 382 382;" xml:space="preserve">
<g>
	<path d="M183.396,259.877h-39.79c-9.289,0-20.806,4.133-28.006,10.001l-27.756,22.633l-1.155-7.96
		c-2.013-13.821-14.529-24.673-28.495-24.673H36v-117h45.187c9.887,0,17.931-7.613,17.931-17.5c0-9.887-8.043-17.5-17.931-17.5
		h-53.48C12.639,107.877,0,119.739,0,134.808v133.675c0,15.068,12.639,27.395,27.706,27.395h24.376l3.477,23.846
		c1.292,8.875,6.652,15.942,14.334,18.932c2.513,0.979,5.167,1.467,7.89,1.467c5.439,0,10.938-2.044,15.482-5.748l44.985-36.62
		c0.908-0.703,4.217-1.877,5.356-1.877h39.79c9.887,0,17.931-8.113,17.931-18C201.328,267.99,193.284,259.877,183.396,259.877z"/>
	<path d="M354.822,41.877H153.96c-14.793,0-26.96,12.126-26.96,26.919v133.675c0,14.793,12.167,26.405,26.96,26.405h84.961
		c1.192,0,4.744,1.483,5.672,2.229l44.985,36.762c4.53,3.689,9.759,5.692,15.122,5.692c11.106,0,20.06-8.411,21.776-20.191
		l3.538-24.491h24.807c14.793,0,27.178-11.612,27.178-26.405V68.797C382,54.004,369.614,41.877,354.822,41.877z"/>
</g>
<g>
</g>
<g>
</g>
<g>
</g>
<g>
</g>
<g>
</g>
<g>
</g>
<g>
</g>
<g>
</g>
<g>
</g>
<g>
</g>
<g>
</g>
<g>
</g>
<g>
</g>
<g>
</g>
<g>
</g>
</svg>
