<?xml version="1.0" encoding="iso-8859-1"?>
<!-- Generator: Adobe Illustrator 17.1.0, SVG Export Plug-In . SVG Version: 6.00 Build 0)  -->
<!DOCTYPE svg PUBLIC "-//W3C//DTD SVG 1.1//EN" "http://www.w3.org/Graphics/SVG/1.1/DTD/svg11.dtd">
<svg version="1.1" id="Capa_1" xmlns="http://www.w3.org/2000/svg" xmlns:xlink="http://www.w3.org/1999/xlink" x="0px" y="0px"
	 viewBox="0 0 349.629 349.629" style="enable-background:new 0 0 349.629 349.629;" xml:space="preserve">
<g>
	<path d="M102.991,183.787c41.557,0,75.366-33.816,75.366-75.383c0-41.567-33.81-75.385-75.366-75.385
		c-41.564,0-75.38,33.817-75.38,75.385C27.611,149.971,61.427,183.787,102.991,183.787z"/>
	<path d="M193.429,220.771C191.351,210.246,181.331,202,170.618,202H35.351c-10.713,0-20.731,8.246-22.81,18.773l-12,60.82
		c-1.97,9.978,2.857,22.582,10.989,28.692c2.139,1.606,52.81,39.344,91.454,39.344c38.646,0,89.316-37.737,91.455-39.344
		c8.132-6.11,12.959-18.713,10.989-28.691L193.429,220.771z"/>
	<path d="M329.088,0H163.411c-5.299,0-10.286,2.096-14.044,5.902c-1.907,1.933-2.813,4.916-2.31,7.601
		c0.309,1.646,1.434,4.676,5.489,6.517c33.562,16.026,52.811,48.239,52.811,88.385c0,16.665-4.732,33.371-14.893,52.576
		c-0.844,1.596-3.414,6.453-0.901,10.624c0.834,1.384,2.907,3.706,7.427,3.706c1.186,0,2.263-0.161,2.968-0.298
		c5.235,0.264,9.569,4.766,9.569,10.064v16.809c0,9.169,5.259,13.273,10.47,13.273c3.048,0,6.182-1.283,9.315-3.816l34.567-27.987
		c5.509-4.451,16.494-8.355,23.51-8.355h41.698c11.079,0,20.44-9.124,20.44-19.923V20.094C349.527,9.202,340.167,0,329.088,0z"/>
</g>
<g>
</g>
<g>
</g>
<g>
</g>
<g>
</g>
<g>
</g>
<g>
</g>
<g>
</g>
<g>
</g>
<g>
</g>
<g>
</g>
<g>
</g>
<g>
</g>
<g>
</g>
<g>
</g>
<g>
</g>
</svg>
