<?xml version="1.0" encoding="iso-8859-1"?>
<!-- Generator: Adobe Illustrator 17.1.0, SVG Export Plug-In . SVG Version: 6.00 Build 0)  -->
<!DOCTYPE svg PUBLIC "-//W3C//DTD SVG 1.1//EN" "http://www.w3.org/Graphics/SVG/1.1/DTD/svg11.dtd">
<svg version="1.1" id="Capa_1" xmlns="http://www.w3.org/2000/svg" xmlns:xlink="http://www.w3.org/1999/xlink" x="0px" y="0px"
	 viewBox="0 0 313.123 313.123" style="enable-background:new 0 0 313.123 313.123;" xml:space="preserve">
<path d="M284.599,0H28.515C17.487,0,8.061,9.177,8.061,20.205v211.209c0,11.028,9.426,19.586,20.454,19.586h66.582
	c5.514,0,9.964,4.9,9.964,10.414v38.436c0,9.169,5.286,13.273,10.508,13.273c3.053,0,6.198-1.283,9.329-3.813l61.349-49.786
	c5.482-4.431,16.48-8.524,23.529-8.524h74.823c11.028,0,20.463-8.558,20.463-19.586V20.205C305.061,9.177,295.627,0,284.599,0z
	 M243.061,187h-84c-8.284,0-15-6.716-15-15s6.716-15,15-15h84c8.284,0,15,6.716,15,15S251.346,187,243.061,187z M243.061,103h-174
	c-8.284,0-15-6.716-15-15s6.716-15,15-15h174c8.284,0,15,6.716,15,15S251.346,103,243.061,103z"/>
<g>
</g>
<g>
</g>
<g>
</g>
<g>
</g>
<g>
</g>
<g>
</g>
<g>
</g>
<g>
</g>
<g>
</g>
<g>
</g>
<g>
</g>
<g>
</g>
<g>
</g>
<g>
</g>
<g>
</g>
</svg>
