<?xml version="1.0" encoding="iso-8859-1"?>
<!-- Generator: Adobe Illustrator 17.1.0, SVG Export Plug-In . SVG Version: 6.00 Build 0)  -->
<!DOCTYPE svg PUBLIC "-//W3C//DTD SVG 1.1//EN" "http://www.w3.org/Graphics/SVG/1.1/DTD/svg11.dtd">
<svg version="1.1" id="Capa_1" xmlns="http://www.w3.org/2000/svg" xmlns:xlink="http://www.w3.org/1999/xlink" x="0px" y="0px"
	 viewBox="0 0 310.501 310.501" style="enable-background:new 0 0 310.501 310.501;" xml:space="preserve">
<g>
	<path d="M290,202.751c-8.284,0-15,6.716-15,15v60H30v-245h245v10c0,8.284,6.716,15,15,15s15-6.716,15-15V30.126
		c0-15.351-12.338-27.375-28.089-27.375H28.948C12.986,2.751,0,15.463,0,31.089v247.963c0,15.824,12.986,28.698,28.948,28.698
		h247.963c15.488,0,28.089-12.874,28.089-28.698v-61.302C305,209.466,298.284,202.751,290,202.751z"/>
	<path d="M278.097,93.061l-123.916,97.958l-56.8-51.132c-8.209-7.39-20.854-6.726-28.245,1.483
		c-7.391,8.209-6.726,20.855,1.483,28.246l63.396,57.07c5.521,4.971,12.633,7.482,19.754,7.482c6.474,0,12.954-2.075,18.254-6.264
		L302.903,124.44c8.665-6.85,10.137-19.428,3.286-28.093C299.34,87.683,286.764,86.211,278.097,93.061z"/>
</g>
<g>
</g>
<g>
</g>
<g>
</g>
<g>
</g>
<g>
</g>
<g>
</g>
<g>
</g>
<g>
</g>
<g>
</g>
<g>
</g>
<g>
</g>
<g>
</g>
<g>
</g>
<g>
</g>
<g>
</g>
</svg>
