<?xml version="1.0" encoding="iso-8859-1"?>
<!-- Generator: Adobe Illustrator 17.1.0, SVG Export Plug-In . SVG Version: 6.00 Build 0)  -->
<!DOCTYPE svg PUBLIC "-//W3C//DTD SVG 1.1//EN" "http://www.w3.org/Graphics/SVG/1.1/DTD/svg11.dtd">
<svg version="1.1" id="Capa_1" xmlns="http://www.w3.org/2000/svg" xmlns:xlink="http://www.w3.org/1999/xlink" x="0px" y="0px"
	 viewBox="0 0 346.453 346.453" style="enable-background:new 0 0 346.453 346.453;" xml:space="preserve">
<g>
	<path d="M179.618,246.235c-1.551-2.212-3.88-3.481-6.39-3.481c-2.511,0-4.839,1.269-6.39,3.482l-37.393,53.371
		c-1.683,2.402-1.976,5.054-0.785,7.342c1.191,2.288,3.653,3.505,6.586,3.505h13.088v27.453c0,4.962,3.856,8.547,8.819,8.547h32.141
		c4.962,0,9.04-3.585,9.04-8.547v-27.453h12.873c2.934,0,5.396-1.219,6.586-3.507c1.19-2.288,0.897-5.015-0.787-7.417
		L179.618,246.235z"/>
	<path d="M289.741,95.609c1.955-6.746,2.943-13.723,2.943-20.809c0-41.245-33.555-74.801-74.8-74.801
		c-17.158,0-33.92,5.958-47.198,16.776c-11.879,9.679-20.542,22.856-24.724,37.474c-1.86-0.183-3.715-0.275-5.55-0.275
		c-25.524,0-47.886,16.941-55.081,40.982c-4.268-0.995-8.633-1.497-13.033-1.497c-31.703,0-57.495,25.794-57.495,57.496
		c0,31.703,25.792,57.496,57.495,57.496h201.859c31.703,0,57.495-25.794,57.495-57.496
		C331.651,124.911,314.338,102.48,289.741,95.609z"/>
</g>
<g>
</g>
<g>
</g>
<g>
</g>
<g>
</g>
<g>
</g>
<g>
</g>
<g>
</g>
<g>
</g>
<g>
</g>
<g>
</g>
<g>
</g>
<g>
</g>
<g>
</g>
<g>
</g>
<g>
</g>
</svg>
