<?xml version="1.0" encoding="iso-8859-1"?>
<!-- Generator: Adobe Illustrator 17.1.0, SVG Export Plug-In . SVG Version: 6.00 Build 0)  -->
<!DOCTYPE svg PUBLIC "-//W3C//DTD SVG 1.1//EN" "http://www.w3.org/Graphics/SVG/1.1/DTD/svg11.dtd">
<svg version="1.1" id="Capa_1" xmlns="http://www.w3.org/2000/svg" xmlns:xlink="http://www.w3.org/1999/xlink" x="0px" y="0px"
	 viewBox="0 0 318.315 318.315" style="enable-background:new 0 0 318.315 318.315;" xml:space="preserve">
<g>
	<path d="M276.404,168.415c1.955-6.747,2.943-13.723,2.943-20.809c0-41.245-33.556-74.801-74.801-74.801
		c-17.158,0-33.92,5.958-47.197,16.776c-11.879,9.679-20.542,22.855-24.725,37.474c-1.86-0.183-3.716-0.275-5.551-0.275
		c-25.523,0-47.886,16.941-55.081,40.981c-4.269-0.995-8.633-1.497-13.033-1.497c-31.702,0-57.494,25.716-57.494,57.419
		s25.792,57.419,57.494,57.419h201.859c31.703,0,57.495-25.716,57.495-57.419C318.315,197.639,301.002,175.285,276.404,168.415z"/>
	<path d="M10.567,152.047l4.49-2.449c10.385-5.515,22.099-8.496,33.923-8.496c0.008,0,0.017,0,0.023,0
		c0.168,0,0.335,0.08,0.503,0.081l2.943,0.086l1.448-2.563c11.509-20.37,32.231-34.023,55.432-36.522l2.788-0.3l1.198-2.536
		c4.993-10.575,11.886-19.951,20.484-27.867l3.498-3.221l-3.041-3.655c-14.479-17.41-35.755-27.395-58.368-27.395
		C34.044,37.212,0,71.256,0,113.102c0,12.087,2.778,23.666,8.259,34.415L10.567,152.047z"/>
</g>
<g>
</g>
<g>
</g>
<g>
</g>
<g>
</g>
<g>
</g>
<g>
</g>
<g>
</g>
<g>
</g>
<g>
</g>
<g>
</g>
<g>
</g>
<g>
</g>
<g>
</g>
<g>
</g>
<g>
</g>
</svg>
