<?xml version="1.0" encoding="iso-8859-1"?>
<!-- Generator: Adobe Illustrator 17.1.0, SVG Export Plug-In . SVG Version: 6.00 Build 0)  -->
<!DOCTYPE svg PUBLIC "-//W3C//DTD SVG 1.1//EN" "http://www.w3.org/Graphics/SVG/1.1/DTD/svg11.dtd">
<svg version="1.1" id="Capa_1" xmlns="http://www.w3.org/2000/svg" xmlns:xlink="http://www.w3.org/1999/xlink" x="0px" y="0px"
	 viewBox="0 0 318.048 318.048" style="enable-background:new 0 0 318.048 318.048;" xml:space="preserve">
<g>
	<path d="M159.024,0C71.338,0,0,71.338,0,159.024c0,87.687,71.338,159.024,159.024,159.024c87.686,0,159.024-71.338,159.024-159.024
		C318.048,71.338,246.71,0,159.024,0z M174.409,287.127v-22.304c0-6.617-5.383-12-12-12h-9c-6.617,0-12,5.383-12,12v22.017
		c-58.345-8.001-104.382-55.151-110.67-114.017h19.67c6.617,0,12-5.383,12-12v-9c0-6.617-5.383-12-12-12H31.43
		C39.871,83.493,84.86,38.963,141.409,31.208v17.615c0,6.617,5.383,12,12,12h9c6.617,0,12-5.383,12-12V30.921
		c57.594,6.874,103.658,51.833,112.209,108.902h-20.209c-6.617,0-12,5.383-12,12v9c0,6.617,5.383,12,12,12h20.9
		C280.941,232.438,233.808,280.038,174.409,287.127z"/>
	<path d="M226.368,90.579c-1.94,0-3.878,0.645-5.922,1.97l-76.315,49.47c-3.392,2.199-7.209,6.398-9.077,9.984l-37.299,71.624
		c-2.313,4.442-1.412,7.66-0.249,9.576c1.469,2.42,4.065,3.866,6.945,3.866c1.94,0,3.877-0.645,5.922-1.97l76.315-49.47
		c3.392-2.199,7.209-6.398,9.077-9.984l37.299-71.623c2.313-4.442,1.412-7.66,0.249-9.576
		C231.844,92.024,229.248,90.579,226.368,90.579z"/>
</g>
<g>
</g>
<g>
</g>
<g>
</g>
<g>
</g>
<g>
</g>
<g>
</g>
<g>
</g>
<g>
</g>
<g>
</g>
<g>
</g>
<g>
</g>
<g>
</g>
<g>
</g>
<g>
</g>
<g>
</g>
</svg>
