<?xml version="1.0" encoding="iso-8859-1"?>
<!-- Generator: Adobe Illustrator 17.1.0, SVG Export Plug-In . SVG Version: 6.00 Build 0)  -->
<!DOCTYPE svg PUBLIC "-//W3C//DTD SVG 1.1//EN" "http://www.w3.org/Graphics/SVG/1.1/DTD/svg11.dtd">
<svg version="1.1" id="Capa_1" xmlns="http://www.w3.org/2000/svg" xmlns:xlink="http://www.w3.org/1999/xlink" x="0px" y="0px"
	 viewBox="0 0 325 325" style="enable-background:new 0 0 325 325;" xml:space="preserve">
<g>
	<path d="M295,2.5H30c-16.542,0-30,13.458-30,30v201c0,16.542,13.458,30,30,30h107v16.729c0,2.857-2.201,5.271-4.808,5.271H65.119
		C56.782,285.5,50,292.107,50,300.229v7.271c0,8.271,6.782,15,15.119,15h196.523c8.324,0,15.357-6.869,15.357-15v-7.271
		c0-8.122-6.89-14.729-15.357-14.729h-67.073c-2.822,0-4.569-2.736-4.569-5.271V263.5h105c16.542,0,30-13.458,30-30v-201
		C325,15.958,311.542,2.5,295,2.5z M295,32.5l0.016,178H30v-178H295z"/>
	<path d="M56,178.5h52.274c6.306,0,12.867-3.227,16.713-8.222l35.045-45.484l49.2,21.587c7.54,3.305,16.864,1.136,22.155-5.139
		l48.272-57.065c5.351-6.325,4.561-15.79-1.765-21.14c-6.325-5.351-15.789-4.559-21.14,1.765l-42.982,50.811l-49.686-21.8
		c-7.821-3.433-17.278-1.013-22.488,5.751L103.896,148.5H56c-8.284,0-15,6.716-15,15S47.716,178.5,56,178.5z"/>
</g>
<g>
</g>
<g>
</g>
<g>
</g>
<g>
</g>
<g>
</g>
<g>
</g>
<g>
</g>
<g>
</g>
<g>
</g>
<g>
</g>
<g>
</g>
<g>
</g>
<g>
</g>
<g>
</g>
<g>
</g>
</svg>
