<?xml version="1.0" encoding="iso-8859-1"?>
<!-- Generator: Adobe Illustrator 17.1.0, SVG Export Plug-In . SVG Version: 6.00 Build 0)  -->
<!DOCTYPE svg PUBLIC "-//W3C//DTD SVG 1.1//EN" "http://www.w3.org/Graphics/SVG/1.1/DTD/svg11.dtd">
<svg version="1.1" id="Capa_1" xmlns="http://www.w3.org/2000/svg" xmlns:xlink="http://www.w3.org/1999/xlink" x="0px" y="0px"
	 viewBox="0 0 325 325" style="enable-background:new 0 0 325 325;" xml:space="preserve">
<g>
	<path d="M295,3H30C13.458,3,0,16.458,0,33v201c0,16.542,13.458,30,30,30h106v15.729c0,2.906-2.08,5.271-4.636,5.271H64.291
		C55.859,285,49,291.607,49,299.729V307c0,8.131,7.002,15,15.291,15h196.523c8.374,0,15.186-6.729,15.186-15v-7.271
		c0-8.122-6.813-14.729-15.186-14.729h-67.073c-2.57,0-4.741-2.414-4.741-5.271V264h106c16.542,0,30-13.458,30-30V33
		C325,16.458,311.542,3,295,3z M295,33l0.017,178H30V33H295z"/>
	<path d="M132.057,184.771c2.251,0,4.551-0.799,6.837-2.376l73.309-50.601c3.518-2.426,5.535-5.985,5.535-9.764
		c0-3.798-2.034-7.378-5.577-9.823l-73.268-50.603c-2.285-1.576-4.585-2.375-6.836-2.375c-4.362,0-9.057,3.384-9.057,10.813v103.916
		C123,181.387,127.695,184.771,132.057,184.771z"/>
</g>
<g>
</g>
<g>
</g>
<g>
</g>
<g>
</g>
<g>
</g>
<g>
</g>
<g>
</g>
<g>
</g>
<g>
</g>
<g>
</g>
<g>
</g>
<g>
</g>
<g>
</g>
<g>
</g>
<g>
</g>
</svg>
