<?xml version="1.0" encoding="iso-8859-1"?>
<!-- Generator: Adobe Illustrator 17.1.0, SVG Export Plug-In . SVG Version: 6.00 Build 0)  -->
<!DOCTYPE svg PUBLIC "-//W3C//DTD SVG 1.1//EN" "http://www.w3.org/Graphics/SVG/1.1/DTD/svg11.dtd">
<svg version="1.1" id="Capa_1" xmlns="http://www.w3.org/2000/svg" xmlns:xlink="http://www.w3.org/1999/xlink" x="0px" y="0px"
	 viewBox="0 0 349 349" style="enable-background:new 0 0 349 349;" xml:space="preserve">
<path d="M338,47H11C4.935,47,0,51.935,0,58v233c0,6.065,4.935,11,11,11h327c6.065,0,11-4.935,11-11V58C349,51.935,344.065,47,338,47
	z M326,272c0,2.209-1.791,4-4,4H157c-2.209,0-4-1.791-4-4v-17c0-2.209,1.791-4,4-4h165c2.209,0,4,1.791,4,4V272z M155,217v-19
	c0-1.657,1.343-3,3-3h32c1.657,0,3,1.343,3,3v19c0,1.657-1.343,3-3,3h-32C156.343,220,155,218.657,155,217z M220,217v-19
	c0-1.657,1.343-3,3-3h32c1.657,0,3,1.343,3,3v19c0,1.657-1.343,3-3,3h-32C221.343,220,220,218.657,220,217z M285,217v-19
	c0-1.657,1.343-3,3-3h32c1.657,0,3,1.343,3,3v19c0,1.657-1.343,3-3,3h-32C286.343,220,285,218.657,285,217z M327,123
	c0,2.2-1.8,4-4,4H26c-2.2,0-4-1.8-4-4v-17c0-2.2,1.8-4,4-4h297c2.2,0,4,1.8,4,4V123z"/>
<g>
</g>
<g>
</g>
<g>
</g>
<g>
</g>
<g>
</g>
<g>
</g>
<g>
</g>
<g>
</g>
<g>
</g>
<g>
</g>
<g>
</g>
<g>
</g>
<g>
</g>
<g>
</g>
<g>
</g>
</svg>
