<?xml version="1.0" encoding="iso-8859-1"?>
<!-- Generator: Adobe Illustrator 17.1.0, SVG Export Plug-In . SVG Version: 6.00 Build 0)  -->
<!DOCTYPE svg PUBLIC "-//W3C//DTD SVG 1.1//EN" "http://www.w3.org/Graphics/SVG/1.1/DTD/svg11.dtd">
<svg version="1.1" id="Capa_1" xmlns="http://www.w3.org/2000/svg" xmlns:xlink="http://www.w3.org/1999/xlink" x="0px" y="0px"
	 viewBox="0 0 329 329" style="enable-background:new 0 0 329 329;" xml:space="preserve">
<path d="M309,3H20C8.972,3,0,11.972,0,23v283c0,11.028,8.972,20,20,20h289c11.028,0,20-8.972,20-20V23C329,11.972,320.028,3,309,3z
	 M146,177.2c0,3.879-1.878,7.159-4.628,9.908c-2.75,2.75-6.765,3.892-10.643,3.892H92v5.153c0,3.601-1.608,6.868-3.936,9.196
	c-4.131,4.131-10.778,4.496-15.928,0.886L27.85,175.267c-3.313-2.322-5.445-6.015-5.78-9.843C21.742,161.662,23.097,157,25.854,155
	h-0.002c0.583-1,1.227-0.956,1.918-1.44l44.203-30.886c4.063-2.848,9.222-3.253,13.257-1.153c4.036,2.099,6.77,6.356,6.77,11.318
	V137h38.728c8.02,0,15.272,6.768,15.272,14.788V177.2z M299.222,175.264l-44.194,30.97c-4.062,2.848-9.222,3.294-13.257,1.194
	c-4.036-2.099-6.77-6.315-6.77-11.276V191h-38.716c-8.02,0-15.284-5.777-15.284-13.797V151.79c0-3.879,1.884-7.654,4.633-10.403
	c2.75-2.75,6.77-4.388,10.649-4.388H235v-4.163c0-3.601,1.613-6.867,3.942-9.196c4.131-4.131,10.78-4.496,15.931-0.886
	l44.287,30.969c3.313,2.322,5.446,5.848,5.78,9.676C305.339,167.958,303.185,172.493,299.222,175.264z"/>
<g>
</g>
<g>
</g>
<g>
</g>
<g>
</g>
<g>
</g>
<g>
</g>
<g>
</g>
<g>
</g>
<g>
</g>
<g>
</g>
<g>
</g>
<g>
</g>
<g>
</g>
<g>
</g>
<g>
</g>
</svg>
