<?xml version="1.0" encoding="iso-8859-1"?>
<!-- Generator: Adobe Illustrator 17.1.0, SVG Export Plug-In . SVG Version: 6.00 Build 0)  -->
<!DOCTYPE svg PUBLIC "-//W3C//DTD SVG 1.1//EN" "http://www.w3.org/Graphics/SVG/1.1/DTD/svg11.dtd">
<svg version="1.1" id="Capa_1" xmlns="http://www.w3.org/2000/svg" xmlns:xlink="http://www.w3.org/1999/xlink" x="0px" y="0px"
	 viewBox="0 0 366 366" style="enable-background:new 0 0 366 366;" xml:space="preserve">
<path d="M294.896,172.257c-1.004-2.039-3.074-3.257-5.54-3.257H209v-37h45.051c2.558,0,5.405-1.295,7.083-3.222l32.679-37.486
	c2.38-2.732,2.38-6.852-0.002-9.586l-32.675-37.483c-1.68-1.928-4.527-3.224-7.085-3.224H209V14.558C209,6.531,202.078,0,193.569,0
	h-22.377C162.673,0,156,6.394,156,14.558V41H76.645c-2.466,0-4.536,1.218-5.54,3.257c-1.004,2.04-0.706,4.423,0.798,6.377
	L99.52,86.5l-27.617,35.866c-1.504,1.954-1.802,4.337-0.798,6.377c1.004,2.039,3.074,3.257,5.54,3.257H156v37h-44.051
	c-2.558,0-5.405,1.295-7.083,3.222l-32.679,37.486c-2.38,2.732-2.38,6.852,0.002,9.586l32.675,37.483
	c1.68,1.928,4.527,3.224,7.085,3.224H156v63.729c0,2.857-2.201,5.271-4.808,5.271h-47.073C95.782,329,89,335.607,89,343.729V351
	c0,8.271,6.782,15,15.119,15h156.523c8.324,0,15.357-6.869,15.357-15v-7.271c0-8.122-6.89-14.729-15.357-14.729h-47.073
	c-2.822,0-4.569-2.736-4.569-5.271V260h80.355c2.466,0,4.536-1.218,5.54-3.257c1.004-2.04,0.706-4.423-0.798-6.378L266.48,214.5
	l27.617-35.866C295.602,176.681,295.899,174.297,294.896,172.257z"/>
<g>
</g>
<g>
</g>
<g>
</g>
<g>
</g>
<g>
</g>
<g>
</g>
<g>
</g>
<g>
</g>
<g>
</g>
<g>
</g>
<g>
</g>
<g>
</g>
<g>
</g>
<g>
</g>
<g>
</g>
</svg>
