<?xml version="1.0" encoding="iso-8859-1"?>
<!-- Generator: Adobe Illustrator 17.1.0, SVG Export Plug-In . SVG Version: 6.00 Build 0)  -->
<!DOCTYPE svg PUBLIC "-//W3C//DTD SVG 1.1//EN" "http://www.w3.org/Graphics/SVG/1.1/DTD/svg11.dtd">
<svg version="1.1" id="Capa_1" xmlns="http://www.w3.org/2000/svg" xmlns:xlink="http://www.w3.org/1999/xlink" x="0px" y="0px"
	 viewBox="0 0 329 329" style="enable-background:new 0 0 329 329;" xml:space="preserve">
<path d="M309,3H20C8.972,3,0,11.972,0,23v283c0,11.028,8.972,20,20,20h289c11.028,0,20-8.972,20-20V23C329,11.972,320.028,3,309,3z
	 M302.217,175.02l-41.627,29.246c-3.838,2.688-8.167,3.108-11.977,1.126c-3.811-1.983-5.614-5.964-5.614-10.648V191h-52v51.087
	l3.987-0.002c3.401,0.001,6.313,1.208,8.513,3.408c0,0,0-0.001,0,0c3.901,3.901,4.242,10.026,0.834,14.89l-29.252,41.781
	c-2.192,3.128-5.524,5.134-9.139,5.45c-4.305,0.377-8.591-1.629-11.205-5.365l-29.246-41.631c-2.688-3.838-3.109-8.175-1.126-11.985
	c1.983-3.811,5.963-5.631,10.647-5.631H139v-52H87.67l0.002,4.017c0,3.401-1.208,6.342-3.407,8.541c0,0.001,0,0.001,0,0.001
	c-3.902,3.901-10.027,4.242-14.891,0.834l-41.772-29.252c-3.129-2.191-5.127-5.523-5.442-9.139
	c-0.377-4.305,1.645-8.591,5.38-11.206l41.661-29.246c3.838-2.688,8.236-3.108,12.046-1.126c3.811,1.982,5.753,5.963,5.753,10.647
	V139h52V87.705l-4.138,0.002c-3.401,0-6.465-1.208-8.663-3.407c0,0,0-0.001-0.001-0.001c-3.901-3.901-4.242-10.027-0.834-14.891
	l29.252-41.772c2.192-3.129,5.524-5.128,9.139-5.443c4.305-0.377,8.591,1.642,11.205,5.378l29.246,41.657
	c2.688,3.838,3.109,8.228,1.126,12.037C203.349,85.076,199.369,87,194.685,87H191v52h51.052l-0.002-4.108
	c0-3.401,1.208-6.435,3.407-8.634c0,0,0,0,0-0.001c3.901-3.901,10.026-4.242,14.89-0.834l41.781,29.252
	c3.129,2.191,5.136,5.524,5.451,9.138C307.957,168.118,305.953,172.405,302.217,175.02z"/>
<g>
</g>
<g>
</g>
<g>
</g>
<g>
</g>
<g>
</g>
<g>
</g>
<g>
</g>
<g>
</g>
<g>
</g>
<g>
</g>
<g>
</g>
<g>
</g>
<g>
</g>
<g>
</g>
<g>
</g>
</svg>
