<?xml version="1.0" encoding="iso-8859-1"?>
<!-- Generator: Adobe Illustrator 17.1.0, SVG Export Plug-In . SVG Version: 6.00 Build 0)  -->
<!DOCTYPE svg PUBLIC "-//W3C//DTD SVG 1.1//EN" "http://www.w3.org/Graphics/SVG/1.1/DTD/svg11.dtd">
<svg version="1.1" id="Capa_1" xmlns="http://www.w3.org/2000/svg" xmlns:xlink="http://www.w3.org/1999/xlink" x="0px" y="0px"
	 viewBox="0 0 329 329" style="enable-background:new 0 0 329 329;" xml:space="preserve">
<path d="M309,3H20C8.972,3,0,11.972,0,23v283c0,11.028,8.972,20,20,20h289c11.028,0,20-8.972,20-20V23C329,11.972,320.028,3,309,3z
	 M238,177.139c0,9.503-8.414,16.861-17.917,16.861H174v5.593c0,5.88-3.14,10.875-7.922,13.363
	c-4.782,2.488-10.796,1.958-15.609-1.416l-52.373-36.699c-4.696-3.284-7.255-8.658-6.783-14.06
	c0.396-4.536,2.911-8.714,6.837-11.465l52.454-36.698c6.104-4.277,13.932-3.845,18.827,1.05c2.759,2.759,4.569,6.629,4.569,10.897
	V130h46.085c4.597,0,9.264,1.69,12.522,4.948c3.258,3.258,5.393,7.48,5.393,12.077V177.139z"/>
<g>
</g>
<g>
</g>
<g>
</g>
<g>
</g>
<g>
</g>
<g>
</g>
<g>
</g>
<g>
</g>
<g>
</g>
<g>
</g>
<g>
</g>
<g>
</g>
<g>
</g>
<g>
</g>
<g>
</g>
</svg>
