<?xml version="1.0" encoding="iso-8859-1"?>
<!-- Generator: Adobe Illustrator 17.1.0, SVG Export Plug-In . SVG Version: 6.00 Build 0)  -->
<!DOCTYPE svg PUBLIC "-//W3C//DTD SVG 1.1//EN" "http://www.w3.org/Graphics/SVG/1.1/DTD/svg11.dtd">
<svg version="1.1" id="Capa_1" xmlns="http://www.w3.org/2000/svg" xmlns:xlink="http://www.w3.org/1999/xlink" x="0px" y="0px"
	 viewBox="0 0 329 329" style="enable-background:new 0 0 329 329;" xml:space="preserve">
<path d="M309,3H20C8.972,3,0,11.972,0,23v283c0,11.028,8.972,20,20,20h289c11.028,0,20-8.972,20-20V23C329,11.972,320.028,3,309,3z
	 M145.586,165.424c-0.334,3.828-2.443,7.521-5.757,9.843l-44.24,30.969c-5.151,3.61-11.705,3.245-15.837-0.886
	c-2.328-2.328-3.753-5.595-3.753-9.196V191H36.905c-3.878,0-7.711-1.142-10.46-3.892C23.695,184.358,22,181.079,22,177.2v-25.412
	C22,143.768,28.887,137,36.907,137H76v-4.162c0-4.961,2.551-9.219,6.587-11.318c4.035-2.1,9.012-1.695,13.074,1.153l44.203,30.886
	c0.691,0.484,1.335,0.44,1.918,1.44h-0.002C144.536,157,145.915,161.662,145.586,165.424z M305,177.203
	c0,8.02-7.056,13.797-15.076,13.797H251v5.152c0,4.961-2.633,9.177-6.669,11.276c-4.035,2.1-9.093,1.653-13.155-1.194l-44.197-30.97
	c-3.963-2.771-6.124-7.306-5.725-11.864c0.334-3.828,2.454-7.354,5.767-9.676l44.261-30.969c5.151-3.609,11.748-3.245,15.879,0.886
	c2.328,2.329,3.838,5.595,3.838,9.196V137h38.925c3.879,0,7.796,1.638,10.546,4.388c2.749,2.749,4.529,6.523,4.529,10.403V177.203z"
	/>
<g>
</g>
<g>
</g>
<g>
</g>
<g>
</g>
<g>
</g>
<g>
</g>
<g>
</g>
<g>
</g>
<g>
</g>
<g>
</g>
<g>
</g>
<g>
</g>
<g>
</g>
<g>
</g>
<g>
</g>
</svg>
