<?xml version="1.0" encoding="iso-8859-1"?>
<!-- Generator: Adobe Illustrator 17.1.0, SVG Export Plug-In . SVG Version: 6.00 Build 0)  -->
<!DOCTYPE svg PUBLIC "-//W3C//DTD SVG 1.1//EN" "http://www.w3.org/Graphics/SVG/1.1/DTD/svg11.dtd">
<svg version="1.1" id="Capa_1" xmlns="http://www.w3.org/2000/svg" xmlns:xlink="http://www.w3.org/1999/xlink" x="0px" y="0px"
	 viewBox="0 0 329 329" style="enable-background:new 0 0 329 329;" xml:space="preserve">
<path d="M309,3H20C8.972,3,0,11.972,0,23v283c0,11.028,8.972,20,20,20h289c11.028,0,20-8.972,20-20V23C329,11.972,320.028,3,309,3z
	 M237.506,165.491c-0.396,4.536-2.898,8.714-6.825,11.466l-52.43,36.697c-6.104,4.278-13.883,3.845-18.779-1.05
	c-2.759-2.759-4.472-6.63-4.472-10.898V196h-46.278c-4.597,0-9.167-1.554-12.426-4.812C93.039,187.93,91,183.844,91,179.248v-30.113
	C91,139.631,99.22,132,108.724,132H155v-5.32c0-5.879,3.045-10.875,7.827-13.362c4.782-2.488,10.701-1.959,15.514,1.415
	l52.376,36.699C235.414,154.716,237.978,160.089,237.506,165.491z"/>
<g>
</g>
<g>
</g>
<g>
</g>
<g>
</g>
<g>
</g>
<g>
</g>
<g>
</g>
<g>
</g>
<g>
</g>
<g>
</g>
<g>
</g>
<g>
</g>
<g>
</g>
<g>
</g>
<g>
</g>
</svg>
