<?xml version="1.0" encoding="iso-8859-1"?>
<!-- Generator: Adobe Illustrator 17.1.0, SVG Export Plug-In . SVG Version: 6.00 Build 0)  -->
<!DOCTYPE svg PUBLIC "-//W3C//DTD SVG 1.1//EN" "http://www.w3.org/Graphics/SVG/1.1/DTD/svg11.dtd">
<svg version="1.1" id="Capa_1" xmlns="http://www.w3.org/2000/svg" xmlns:xlink="http://www.w3.org/1999/xlink" x="0px" y="0px"
	 viewBox="0 0 329 329" style="enable-background:new 0 0 329 329;" xml:space="preserve">
<path d="M309,3H20C8.972,3,0,11.972,0,23v283c0,11.028,8.972,20,20,20h289c11.028,0,20-8.972,20-20V23C329,11.972,320.028,3,309,3z
	 M159.918,215.159l-32.994,32.995l3.691,3.69c4.157,4.158,5.67,9.709,4.048,14.85c-1.622,5.141-6.048,8.817-11.838,9.835
	l-62.989,11.089c-0.985,0.174-1.979,0.261-2.955,0.261H56.88c-4.619,0-8.918-1.966-11.794-5.393
	c-2.927-3.487-4.129-8.194-3.299-12.916l11.09-62.988c1.291-7.341,7.03-12.468,13.953-12.468c3.902,0,7.713,1.663,10.731,4.68
	l3.695,3.696l32.998-32.998c3.249-3.251,7.578-5.041,12.186-5.041c4.608,0,8.935,1.79,12.186,5.041l21.293,21.294
	C166.637,197.505,166.637,208.439,159.918,215.159z M289.029,58.429l-11.09,62.989c-1.291,7.34-7.03,12.468-13.953,12.468
	c-3.902,0-7.713-1.663-10.731-4.68l-3.695-3.696l-32.997,32.998c-3.251,3.25-7.578,5.041-12.186,5.041
	c-4.607,0-8.935-1.791-12.186-5.041l-21.293-21.293c-6.72-6.72-6.72-17.654,0-24.374l32.995-32.995l-3.691-3.69
	c-4.157-4.158-5.67-9.709-4.048-14.85c1.623-5.141,6.047-8.817,11.837-9.835l62.99-11.089c5.643-0.999,11.265,0.979,14.75,5.132
	C288.657,49,289.859,53.707,289.029,58.429z"/>
<g>
</g>
<g>
</g>
<g>
</g>
<g>
</g>
<g>
</g>
<g>
</g>
<g>
</g>
<g>
</g>
<g>
</g>
<g>
</g>
<g>
</g>
<g>
</g>
<g>
</g>
<g>
</g>
<g>
</g>
</svg>
