<?xml version="1.0" encoding="iso-8859-1"?>
<!-- Generator: Adobe Illustrator 17.1.0, SVG Export Plug-In . SVG Version: 6.00 Build 0)  -->
<!DOCTYPE svg PUBLIC "-//W3C//DTD SVG 1.1//EN" "http://www.w3.org/Graphics/SVG/1.1/DTD/svg11.dtd">
<svg version="1.1" id="Capa_1" xmlns="http://www.w3.org/2000/svg" xmlns:xlink="http://www.w3.org/1999/xlink" x="0px" y="0px"
	 viewBox="0 0 375.394 375.394" style="enable-background:new 0 0 375.394 375.394;" xml:space="preserve">
<path d="M320.416,54.972C284.967,19.523,237.833,0,187.697,0c-50.137,0-97.27,19.523-132.72,54.972
	c-73.183,73.185-73.183,192.263,0,265.446c35.449,35.452,82.583,54.976,132.72,54.976c50.136,0,97.27-19.524,132.719-54.976
	C393.599,247.235,393.599,128.157,320.416,54.972z M142.813,311.616c-1.483,7.069-7.718,11.921-14.664,11.921
	c-1.021,0-2.059-0.105-3.098-0.323c-15.381-3.229-33.072-13.372-46.172-26.47c-13.225-13.227-23.407-31.099-26.57-46.644
	c-1.652-8.118,3.589-16.038,11.707-17.69c8.112-1.656,16.037,3.589,17.689,11.707c1.991,9.782,9.381,22.407,18.387,31.414
	c8.927,8.926,21.434,16.289,31.123,18.323C139.322,295.557,144.515,303.509,142.813,311.616z M166.422,265.211
	c-1.483,7.068-7.718,11.921-14.664,11.921c-1.021,0-2.058-0.105-3.098-0.323c-12.55-2.634-25.142-11.709-32.111-18.679
	c-7.035-7.035-16.167-19.753-18.746-32.44c-1.65-8.118,3.593-16.037,11.711-17.688c8.116-1.653,16.037,3.593,17.688,11.711
	c0.815,4.01,5.085,11.727,10.561,17.203c5.434,5.434,13.086,9.697,17.062,10.532C162.932,249.151,168.124,257.103,166.422,265.211z
	 M221.274,221.275c-8.97,8.969-20.894,13.909-33.577,13.909c-12.683,0-24.606-4.939-33.576-13.909
	c-8.969-8.969-13.909-20.895-13.909-33.579c0-12.685,4.94-24.611,13.909-33.58c8.967-8.967,20.891-13.905,33.575-13.905
	c12.684,0,24.609,4.938,33.578,13.905c8.97,8.97,13.909,20.895,13.909,33.58C235.183,200.38,230.243,212.306,221.274,221.275z
	 M266.497,170.159c-1.008,0.205-2.014,0.304-3.004,0.304c-6.985,0-13.238-4.904-14.684-12.015
	c-0.815-4.01-5.085-11.727-10.561-17.204c-5.434-5.434-13.086-9.697-17.062-10.531c-8.107-1.702-13.3-9.654-11.598-17.762
	c1.702-8.107,9.652-13.297,17.762-11.599c12.55,2.634,25.142,11.709,32.111,18.679c7.035,7.036,16.167,19.753,18.746,32.44
	C279.859,160.589,274.616,168.508,266.497,170.159z M311.995,145.751c-1.009,0.206-2.016,0.304-3.007,0.304
	c-6.983,0-13.236-4.903-14.683-12.011c-1.991-9.782-9.381-22.407-18.387-31.414c-8.927-8.926-21.434-16.289-31.123-18.323
	c-8.107-1.702-13.3-9.654-11.598-17.762c1.702-8.108,9.66-13.296,17.762-11.599c15.381,3.229,33.073,13.372,46.172,26.47
	c13.226,13.227,23.407,31.099,26.57,46.644C325.355,136.178,320.113,144.098,311.995,145.751z"/>
<g>
</g>
<g>
</g>
<g>
</g>
<g>
</g>
<g>
</g>
<g>
</g>
<g>
</g>
<g>
</g>
<g>
</g>
<g>
</g>
<g>
</g>
<g>
</g>
<g>
</g>
<g>
</g>
<g>
</g>
</svg>
