<?xml version="1.0" encoding="iso-8859-1"?>
<!-- Generator: Adobe Illustrator 17.1.0, SVG Export Plug-In . SVG Version: 6.00 Build 0)  -->
<!DOCTYPE svg PUBLIC "-//W3C//DTD SVG 1.1//EN" "http://www.w3.org/Graphics/SVG/1.1/DTD/svg11.dtd">
<svg version="1.1" id="Capa_1" xmlns="http://www.w3.org/2000/svg" xmlns:xlink="http://www.w3.org/1999/xlink" x="0px" y="0px"
	 viewBox="0 0 356 356" style="enable-background:new 0 0 356 356;" xml:space="preserve">
<path d="M251.694,179.492c-11.762-13.688-29.727-25.179-54.9-35.121c-36.858-14.778-39.707-21.461-39.707-29.289
	c0-10.707,9.777-17.1,26.153-17.1c20.688,0,37.09,8.181,37.168,8.22c3.351,1.785,7.105,2.729,10.859,2.729
	c9.316,0,17.537-5.62,20.943-14.32l6.538-16.722c4.418-11.826-2.331-22.152-10.91-25.858c-11.224-4.888-29.068-8.805-39.294-10.803
	l-0.065-17.86C208.479,10.482,197.95,0,185.007,0h-11.632c-12.937,0-23.462,10.488-23.462,23.387l0.022,19.883
	c-17.491,5.038-32.308,14.238-43.03,26.757C95.07,83.846,88.813,101.04,88.813,119.749c0,21.972,8.199,39.877,25.066,54.738
	c15.384,13.556,36.046,22.397,52.277,28.567c30.885,12.122,35.142,22.158,35.142,31.198c0,12.835-12.917,21.8-31.412,21.8
	c-18.436,0-44.762-12.253-45.012-12.37c-3.151-1.493-6.502-2.25-9.959-2.25c-9.585,0-17.939,5.807-21.288,14.805l-6.242,16.907
	c-4.182,11.887,2.357,21.701,10.204,25.789c10.362,5.397,26.91,10.262,49.22,14.473v18.997c0,12.791,10.873,23.597,23.742,23.597
	h12.02c12.814,0,23.237-10.585,23.237-23.597v-20.927c18.405-5.143,33.941-14.673,45.107-27.711
	c12.433-14.521,19.004-32.59,19.004-52.255C269.92,210.778,263.958,193.764,251.694,179.492z"/>
<g>
</g>
<g>
</g>
<g>
</g>
<g>
</g>
<g>
</g>
<g>
</g>
<g>
</g>
<g>
</g>
<g>
</g>
<g>
</g>
<g>
</g>
<g>
</g>
<g>
</g>
<g>
</g>
<g>
</g>
</svg>
