<?xml version="1.0" encoding="iso-8859-1"?>
<!-- Generator: Adobe Illustrator 17.1.0, SVG Export Plug-In . SVG Version: 6.00 Build 0)  -->
<!DOCTYPE svg PUBLIC "-//W3C//DTD SVG 1.1//EN" "http://www.w3.org/Graphics/SVG/1.1/DTD/svg11.dtd">
<svg version="1.1" id="Capa_1" xmlns="http://www.w3.org/2000/svg" xmlns:xlink="http://www.w3.org/1999/xlink" x="0px" y="0px"
	 viewBox="0 0 362.88 362.88" style="enable-background:new 0 0 362.88 362.88;" xml:space="preserve">
<g>
	<path d="M174.757,194.234c1.55,2.213,3.879,3.483,6.39,3.483c2.51,0,4.839-1.27,6.39-3.482l60.798-86.778
		c1.684-2.402,1.977-5.388,0.787-7.676c-1.191-2.289-3.653-3.84-6.587-3.84h-25.097V32.188c0-4.962-4.062-9.249-9.024-9.249h-54.521
		c-4.962,0-9.455,4.286-9.455,9.249V95.94h-24.675c-2.934,0-5.396,1.554-6.586,3.842c-1.19,2.288-0.897,5.182,0.786,7.585
		L174.757,194.234z"/>
	<path d="M362.435,329.449l-32.186-97.451c-1.348-4.089-5.554-7.058-10.001-7.058H42.629c-4.458,0-8.665,2.942-10.001,6.995
		L0.443,329.57c-0.837,2.539-0.477,5.157,0.989,7.184c1.465,2.025,3.836,3.186,6.507,3.186h347c2.644,0,5.005-1.167,6.478-3.204
		C362.91,334.672,363.281,332.017,362.435,329.449z"/>
</g>
<g>
</g>
<g>
</g>
<g>
</g>
<g>
</g>
<g>
</g>
<g>
</g>
<g>
</g>
<g>
</g>
<g>
</g>
<g>
</g>
<g>
</g>
<g>
</g>
<g>
</g>
<g>
</g>
<g>
</g>
</svg>
