<?xml version="1.0" encoding="iso-8859-1"?>
<!-- Generator: Adobe Illustrator 17.1.0, SVG Export Plug-In . SVG Version: 6.00 Build 0)  -->
<!DOCTYPE svg PUBLIC "-//W3C//DTD SVG 1.1//EN" "http://www.w3.org/Graphics/SVG/1.1/DTD/svg11.dtd">
<svg version="1.1" id="Capa_1" xmlns="http://www.w3.org/2000/svg" xmlns:xlink="http://www.w3.org/1999/xlink" x="0px" y="0px"
	 viewBox="0 0 293.826 293.826" style="enable-background:new 0 0 293.826 293.826;" xml:space="preserve">
<path d="M286.606,219.015c-5.18-5.917-12.661-9.311-20.528-9.311c-6.605,0-12.983,2.399-17.961,6.758
	c-17.627,15.436-35.722,22.624-56.944,22.624c-26.629,0-48.777-10.711-65.964-31.865H160c15.039,0,27.273-12.112,27.273-27.001
	c0-14.888-12.234-26.999-27.273-26.999h-57.107c-0.148-2.103-0.223-4.201-0.223-6.269c0-2.586,0.02-4.046,0.15-5.731h66.304
	c15.039,0,27.273-12.336,27.273-27.498c0-15.165-12.234-27.502-27.273-27.502h-43.682C143.218,65.197,165.3,54.55,191.172,54.55
	c14.901,0,27.164,3.581,42.328,12.361c4.151,2.404,8.872,3.675,13.652,3.675c9.706,0,18.757-5.214,23.619-13.607
	c3.65-6.305,4.628-13.653,2.753-20.69c-1.875-7.04-6.381-12.928-12.685-16.577C237.309,6.079,215.823,0,191.172,0
	C135.882,0,87.848,31.119,62.681,83.242c-0.188,0.391-0.383,0.845-0.584,1.323l-0.085,0.201c-0.265,0.624-0.484,1.11-0.657,1.454
	H36.864c-15.038,0-27.272,12.337-27.272,27.502c0,15.162,12.234,27.498,27.272,27.498h11.352c-0.072,1.823-0.09,3.593-0.09,5.767
	c0,2.051,0.046,4.136,0.137,6.233H27.739c-15.039,0-27.273,12.111-27.273,26.999c0,14.889,12.234,27.001,27.273,27.001h33.406
	c11.558,25.57,29.139,47.038,50.881,62.116c23.104,16.021,50.472,24.489,79.146,24.489c34.571,0,64.953-11.888,92.88-36.341
	c5.482-4.798,8.766-11.441,9.247-18.708C293.781,231.513,291.404,224.494,286.606,219.015z"/>
<g>
</g>
<g>
</g>
<g>
</g>
<g>
</g>
<g>
</g>
<g>
</g>
<g>
</g>
<g>
</g>
<g>
</g>
<g>
</g>
<g>
</g>
<g>
</g>
<g>
</g>
<g>
</g>
<g>
</g>
</svg>
