<?xml version="1.0" encoding="iso-8859-1"?>
<!-- Generator: Adobe Illustrator 17.1.0, SVG Export Plug-In . SVG Version: 6.00 Build 0)  -->
<!DOCTYPE svg PUBLIC "-//W3C//DTD SVG 1.1//EN" "http://www.w3.org/Graphics/SVG/1.1/DTD/svg11.dtd">
<svg version="1.1" id="Capa_1" xmlns="http://www.w3.org/2000/svg" xmlns:xlink="http://www.w3.org/1999/xlink" x="0px" y="0px"
	 viewBox="0 0 329 329" style="enable-background:new 0 0 329 329;" xml:space="preserve">
<path d="M309,3H20C8.972,3,0,11.972,0,23v283c0,11.028,8.972,20,20,20h289c11.028,0,20-8.972,20-20V23C329,11.972,320.028,3,309,3z
	 M44.484,46.597c2.894-3.449,7.573-5.087,12.252-4.261l52.308,9.209c4.809,0.848,8.482,3.901,9.828,8.17
	c1.347,4.269,0.09,8.878-3.361,12.329l-3.069,3.07l27.403,27.402c5.581,5.581,5.581,14.662,0,20.242l-17.684,17.684
	c-2.701,2.699-6.295,4.186-10.12,4.186c-3.825,0-7.418-1.485-10.118-4.183l-27.404-27.404l-3.065,3.068
	c-2.506,2.505-5.671,3.891-8.912,3.891c0,0,0,0-0.001,0c-5.749,0-10.513-4.262-11.586-10.357l-9.21-52.317
	C41.055,53.405,42.053,49.493,44.484,46.597z M139.848,227.486l-27.401,27.401l3.065,3.065c3.452,3.453,4.709,8.063,3.362,12.333
	c-1.347,4.269-5.023,7.322-9.831,8.168l-52.311,9.209c-0.818,0.145-1.643,0.217-2.454,0.217h-0.001
	c-3.836,0-7.406-1.632-9.795-4.479c-2.431-2.896-3.429-6.805-2.739-10.726l9.21-52.311c1.072-6.096,5.838-10.354,11.587-10.354
	c3.24,0,6.405,1.381,8.912,3.887l3.069,3.069l27.404-27.404c2.698-2.699,6.293-4.187,10.12-4.187c3.827,0,7.421,1.487,10.12,4.187
	l17.684,17.684C145.429,212.825,145.429,221.906,139.848,227.486z M284.331,283.402c-2.389,2.846-5.959,4.479-9.794,4.479h0
	c-0.813,0-1.639-0.073-2.457-0.217l-52.309-9.209c-4.809-0.848-8.482-3.901-9.829-8.17c-1.346-4.269-0.089-8.878,3.362-12.33
	l3.068-3.068l-27.402-27.403c-5.581-5.581-5.581-14.661,0-20.242l17.684-17.684c2.7-2.699,6.294-4.185,10.12-4.185
	c3.826,0,7.419,1.486,10.119,4.183l27.403,27.405l3.066-3.066c2.506-2.506,5.671-3.887,8.912-3.887
	c5.748,0,10.513,4.257,11.587,10.351l9.21,52.317C287.76,276.596,286.762,280.506,284.331,283.402z M287.072,57.326l-9.21,52.311
	c-1.072,6.096-5.838,10.354-11.587,10.354c-3.24,0-6.405-1.381-8.912-3.887l-3.069-3.069l-27.404,27.404
	c-2.7,2.699-6.294,4.186-10.12,4.186c-3.826,0-7.42-1.487-10.12-4.186l-17.684-17.684c-5.581-5.581-5.581-14.661,0-20.242
	l27.402-27.401l-3.066-3.065c-3.452-3.453-4.709-8.063-3.362-12.332c1.347-4.269,5.022-7.323,9.83-8.168l52.312-9.209
	c4.686-0.83,9.355,0.813,12.25,4.263C286.763,49.496,287.762,53.405,287.072,57.326z"/>
<g>
</g>
<g>
</g>
<g>
</g>
<g>
</g>
<g>
</g>
<g>
</g>
<g>
</g>
<g>
</g>
<g>
</g>
<g>
</g>
<g>
</g>
<g>
</g>
<g>
</g>
<g>
</g>
<g>
</g>
</svg>
