<?xml version="1.0" encoding="iso-8859-1"?>
<!-- Generator: Adobe Illustrator 17.1.0, SVG Export Plug-In . SVG Version: 6.00 Build 0)  -->
<!DOCTYPE svg PUBLIC "-//W3C//DTD SVG 1.1//EN" "http://www.w3.org/Graphics/SVG/1.1/DTD/svg11.dtd">
<svg version="1.1" id="Capa_1" xmlns="http://www.w3.org/2000/svg" xmlns:xlink="http://www.w3.org/1999/xlink" x="0px" y="0px"
	 viewBox="0 0 346.373 346.373" style="enable-background:new 0 0 346.373 346.373;" xml:space="preserve">
<g>
	<path d="M254.09,254h-38c-5.514,0-10,4.486-10,10v2c0,5.514,4.486,10,10,10h38c5.514,0,10-4.486,10-10v-2
		C264.09,258.486,259.603,254,254.09,254z"/>
	<path d="M270.09,189.454v-83.201c0-9.719-5.52-21.589-12.84-27.612L173.453,9.894C166.599,4.253,154.484,0,145.274,0H48.85
		C37.057,0,27.463,9.413,27.463,20.982c0.002,2.773,0.149,277.372,0.149,278.812c0,10.513,7.362,17.854,17.902,17.854
		c3.329,0,54.135,0.023,104.173,0.047l25.051,0.012c15.046,17.529,37.338,28.666,62.197,28.666
		c45.201,0,81.975-36.773,81.975-81.975C318.91,230.994,298.816,202.212,270.09,189.454z M159.09,27.532L250.55,100h-77.682
		c-12.435,0-13.778-9.987-13.778-14.281V27.532z M158.09,85.724c0-0.001,0-0.003,0-0.004v0
		C158.09,85.72,158.09,85.722,158.09,85.724z M145.274,1c0.001,0,0.001,0,0.001,0S145.274,1,145.274,1L145.274,1z M236.935,316.373
		c-28.659,0-51.975-23.315-51.975-51.975c0-28.659,23.315-51.975,51.975-51.975s51.975,23.316,51.975,51.975
		C288.91,293.058,265.595,316.373,236.935,316.373z"/>
</g>
<g>
</g>
<g>
</g>
<g>
</g>
<g>
</g>
<g>
</g>
<g>
</g>
<g>
</g>
<g>
</g>
<g>
</g>
<g>
</g>
<g>
</g>
<g>
</g>
<g>
</g>
<g>
</g>
<g>
</g>
</svg>
