<?xml version="1.0" encoding="iso-8859-1"?>
<!-- Generator: Adobe Illustrator 17.1.0, SVG Export Plug-In . SVG Version: 6.00 Build 0)  -->
<!DOCTYPE svg PUBLIC "-//W3C//DTD SVG 1.1//EN" "http://www.w3.org/Graphics/SVG/1.1/DTD/svg11.dtd">
<svg version="1.1" id="Capa_1" xmlns="http://www.w3.org/2000/svg" xmlns:xlink="http://www.w3.org/1999/xlink" x="0px" y="0px"
	 viewBox="0 0 355.756 355.756" style="enable-background:new 0 0 355.756 355.756;" xml:space="preserve">
<g>
	<path d="M303.726,67.513L232.237,8.631C226.159,3.63,216.052,0,208.203,0H141.03c-10.112,0-18.339,8.146-18.339,18.158
		c0,0,0.127,236.966,0.127,238.209c0,9.046,6.317,15.364,15.363,15.364c5.692,0,158.664,0.1,158.664,0.1h0
		c9.933,0,17.713-8.019,17.713-18.256V91.15C314.558,82.755,309.901,72.593,303.726,67.513z M226.558,73.613V24.122L290.405,79
		h-58.634C229.578,79,226.558,75.879,226.558,73.613z M208.203,1L208.203,1C208.204,1,208.203,1,208.203,1L208.203,1z
		 M313.558,253.575l0,0.007L313.558,253.575L313.558,253.575z"/>
	<path d="M243.173,302.945l-15.298-0.01c-6.138,0-8.316,4.082-8.316,7.577v10.864c0,1.166,0.077,2.201,0.194,3.111l-8.959,0.021
		c-36.078,0.088-130.316,0.316-139.536,0.328l0.001-11.52c0.017-123.397,0.026-196.346,0.026-217.517
		C72.133,95.922,73.09,96,74.156,96h9.28c3.047,0,5.546-1.7,6.683-4.548c0.693-1.736,0.692-3.448,0.692-4.013l-0.01-13.269
		c0-4.842-3.435-8.224-8.352-8.224c-0.421,0-0.782,0.024-1.055,0.053h-7.237c-20.638,0-32.959,9.859-32.959,26.379
		c0.002,2.854,0.127,233.456,0.127,234.995c0,16.711,12.33,28.382,29.984,28.382c4.227,0,84.93-0.383,128.286-0.589
		c14.123-0.067,23.646-0.112,24.004-0.113c16.255,0,25.96-12.59,25.96-33.677v-11.018
		C249.558,303.908,245.555,302.945,243.173,302.945z"/>
</g>
<g>
</g>
<g>
</g>
<g>
</g>
<g>
</g>
<g>
</g>
<g>
</g>
<g>
</g>
<g>
</g>
<g>
</g>
<g>
</g>
<g>
</g>
<g>
</g>
<g>
</g>
<g>
</g>
<g>
</g>
</svg>
