<?xml version="1.0" encoding="iso-8859-1"?>
<!-- Generator: Adobe Illustrator 17.1.0, SVG Export Plug-In . SVG Version: 6.00 Build 0)  -->
<!DOCTYPE svg PUBLIC "-//W3C//DTD SVG 1.1//EN" "http://www.w3.org/Graphics/SVG/1.1/DTD/svg11.dtd">
<svg version="1.1" id="Capa_1" xmlns="http://www.w3.org/2000/svg" xmlns:xlink="http://www.w3.org/1999/xlink" x="0px" y="0px"
	 viewBox="0 0 382.456 382.456" style="enable-background:new 0 0 382.456 382.456;" xml:space="preserve">
<path d="M339.126,73.027L261.457,9.233C255.06,3.97,243.828,0,235.331,0h-89.4c-10.954,0-19.866,8.767-19.866,19.544
	c0,0,0.043,67.085,0.081,137.043c-30.334,32.579-32.866,81.805-7.594,117.166l-11.555,11.555l-2.023-2.023
	c-2.825-2.825-6.592-4.381-10.606-4.381c-4.015,0-7.781,1.556-10.606,4.381l-47.918,47.918c-2.825,2.826-4.381,6.592-4.381,10.606
	c0,4.015,1.556,7.781,4.381,10.607L61.5,378.075c2.826,2.825,6.592,4.381,10.607,4.381c4.015,0,7.781-1.556,10.607-4.381
	l47.918-47.918c5.848-5.849,5.848-15.365,0-21.213l-2.422-2.422l11.478-11.478c15.732,11.43,34.596,17.616,54.417,17.616
	c20.289,0,39.58-6.472,55.53-18.425c2.013,0.274,4.773,0.447,8.578,0.447c46.701,0.031,73.47,0.061,73.47,0.061h0.001
	c10.647,0,19.31-8.865,19.31-19.761V98.656C350.995,89.612,345.892,78.594,339.126,73.027z M240.995,83.284v-63.8L331.043,99
	h-73.794C241.762,99,240.995,83.438,240.995,83.284z M244.17,81.343c-0.123-0.74-0.174-1.341-0.175-1.724
	C243.995,79.656,244.016,80.315,244.17,81.343z M260.912,96c-0.459,0-0.906-0.015-1.342-0.042C260.006,95.983,260.451,96,260.912,96
	z M194.106,282.658c-16.787,0-32.569-6.537-44.439-18.407c-24.504-24.504-24.504-64.375,0-88.879
	c11.87-11.87,27.652-18.408,44.439-18.408c16.787,0,32.569,6.538,44.439,18.408c11.87,11.87,18.407,27.652,18.407,44.439
	c0,16.787-6.537,32.569-18.407,44.44C226.675,276.121,210.893,282.658,194.106,282.658z M349.995,274.98c0,0.001,0,0.002,0,0.004
	C349.995,274.983,349.995,274.981,349.995,274.98L349.995,274.98z"/>
<g>
</g>
<g>
</g>
<g>
</g>
<g>
</g>
<g>
</g>
<g>
</g>
<g>
</g>
<g>
</g>
<g>
</g>
<g>
</g>
<g>
</g>
<g>
</g>
<g>
</g>
<g>
</g>
<g>
</g>
</svg>
