<?xml version="1.0" encoding="iso-8859-1"?>
<!-- Generator: Adobe Illustrator 17.1.0, SVG Export Plug-In . SVG Version: 6.00 Build 0)  -->
<!DOCTYPE svg PUBLIC "-//W3C//DTD SVG 1.1//EN" "http://www.w3.org/Graphics/SVG/1.1/DTD/svg11.dtd">
<svg version="1.1" id="Capa_1" xmlns="http://www.w3.org/2000/svg" xmlns:xlink="http://www.w3.org/1999/xlink" x="0px" y="0px"
	 viewBox="0 0 358.25 358.25" style="enable-background:new 0 0 358.25 358.25;" xml:space="preserve">
<g>
	<path d="M160.051,52.124l-35.291,6.213c-2.888,0.509-5.076,2.281-5.852,4.741c-0.775,2.459,0,5.166,2.074,7.24l2.916,2.917
		l-23.094,23.094c-3.51,3.509-3.51,9.219,0,12.728l11.348,11.348c1.696,1.697,3.956,2.632,6.363,2.632
		c2.408,0,4.668-0.936,6.363-2.632l23.096-23.096l2.918,2.918c1.959,1.96,3.969,2.371,5.31,2.371c2.782,0,5.925-1.9,6.673-6.148
		l6.214-35.289c0.422-2.403-0.171-4.776-1.627-6.511C165.731,52.588,162.917,51.619,160.051,52.124z"/>
	<path d="M251.214,256.138c-1.696-1.697-3.956-2.632-6.363-2.632s-4.667,0.935-6.363,2.632l-23.096,23.094l-2.919-2.917
		c-1.958-1.959-3.968-2.37-5.309-2.37c-2.782,0-5.925,1.9-6.673,6.148l-6.212,35.286c-0.424,2.403,0.169,4.777,1.625,6.513
		c1.42,1.691,3.561,2.662,5.873,2.662c0,0,0,0,0.001,0c0.506,0,1.023-0.046,1.537-0.137l35.288-6.212
		c2.89-0.508,5.078-2.28,5.854-4.74c0.776-2.46,0.002-5.167-2.073-7.241l-2.916-2.917l23.092-23.093
		c1.697-1.697,2.633-3.957,2.633-6.365c0-2.407-0.935-4.667-2.632-6.363L251.214,256.138z"/>
	<path d="M141.586,196.525l-55.859-46.263c-4.907-4.039-13.035-7.085-18.906-7.085H14.417C6.602,143.178,0,149.865,0,157.78
		c0,0,0.1,185.026,0.1,185.997c0,7.17,4.974,12.177,12.095,12.177c4.441,0,123.952,0.118,123.952,0.118h0.001
		c7.776,0,14.102-6.42,14.102-14.31V215.05C150.25,208.553,146.524,200.588,141.586,196.525z M81.25,201.369v-38.374l49.395,42.183
		H85.206C83.469,205.178,81.25,203.042,81.25,201.369z M66.82,144.178c0.001,0,0.001,0,0.001,0S66.821,144.178,66.82,144.178
		L66.82,144.178z M149.25,215.05l0-0.004L149.25,215.05L149.25,215.05z"/>
	<path d="M349.587,55.985l-55.86-46.493c-4.31-3.546-12.4-7.315-18.906-7.315h-52.403C214.602,2.178,208,8.97,208,17.01
		c0,0,0.1,185.142,0.1,186.112c0,8.032,6.084,12.234,12.095,12.234c4.391,0,122.758,0.145,123.952,0.146h0.001
		c7.776,0,14.103-6.406,14.103-14.281V74.51C358.25,68.013,354.524,60.048,349.587,55.985z M289.25,60.828V22.446l49.385,41.731
		h-45.429C291.516,64.178,289.25,62.522,289.25,60.828z M274.82,3.178c0.001,0,0.002,0,0.003,0
		C274.822,3.178,274.821,3.178,274.82,3.178L274.82,3.178z M357.25,201.222c0,0.002,0,0.004,0,0.004S357.25,201.224,357.25,201.222
		L357.25,201.222z"/>
</g>
<g>
</g>
<g>
</g>
<g>
</g>
<g>
</g>
<g>
</g>
<g>
</g>
<g>
</g>
<g>
</g>
<g>
</g>
<g>
</g>
<g>
</g>
<g>
</g>
<g>
</g>
<g>
</g>
<g>
</g>
</svg>
