<?xml version="1.0" encoding="iso-8859-1"?>
<!-- Generator: Adobe Illustrator 17.1.0, SVG Export Plug-In . SVG Version: 6.00 Build 0)  -->
<!DOCTYPE svg PUBLIC "-//W3C//DTD SVG 1.1//EN" "http://www.w3.org/Graphics/SVG/1.1/DTD/svg11.dtd">
<svg version="1.1" id="Capa_1" xmlns="http://www.w3.org/2000/svg" xmlns:xlink="http://www.w3.org/1999/xlink" x="0px" y="0px"
	 viewBox="0 0 356.675 356.675" style="enable-background:new 0 0 356.675 356.675;" xml:space="preserve">
<path d="M300.356,87.69l-94.073-76.966C198.731,4.51,185.503,0,174.831,0h-108.5c-13.46,0-24.003,10.171-24.003,23.155
	c0.002,3.119,0.167,311.915,0.167,313.535c0,13.693,10.41,19.93,20.082,19.93c7.5,0,228.815,0.055,228.815,0.055
	c12.871,0,22.954-10.528,22.954-23.969V118.712C314.347,107.406,308.463,94.36,300.356,87.69z M235.347,187.713
	c0,3.757-2.7,6.591-6.367,6.591c-0.567,0-1.161-0.071-1.73-0.211l-36.904-9.099v97.206c2,15.59-11.602,32.858-32.938,39.945
	c-6.243,2.074-12.537,3.126-18.755,3.126c-16.554,0-29.26-7.331-33.179-19.131c-2.742-8.256-0.738-17.436,5.632-25.849
	c6.061-8.003,15.454-14.422,26.445-18.072c6.243-2.074,12.566-3.125,18.784-3.125c4.291,0,8.01,0.502,12.01,1.438V149.935
	c0-6.105,4.945-11.054,11.051-11.054c1.448,0,2.826,0.286,4.094,0.793c0.099-0.004,0.196-0.014,0.297-0.014
	c0.567,0,1.143,0.071,1.712,0.211l43.535,10.755c3.637,0.897,6.313,4.399,6.313,8.145V187.713z M204.437,113.954
	c0.469,0.028,0.948,0.046,1.445,0.046h-0.001C205.386,114,204.906,113.984,204.437,113.954z M205.882,113
	c-16.348,0-16.535-16.683-16.535-17.393V30.006L293.48,113H205.882z M313.347,332.707c0,0.003,0,0.006,0,0.01
	C313.347,332.713,313.347,332.71,313.347,332.707L313.347,332.707z M313.347,118.712c0-0.001,0-0.003,0-0.004
	C313.347,118.709,313.347,118.71,313.347,118.712L313.347,118.712z"/>
<g>
</g>
<g>
</g>
<g>
</g>
<g>
</g>
<g>
</g>
<g>
</g>
<g>
</g>
<g>
</g>
<g>
</g>
<g>
</g>
<g>
</g>
<g>
</g>
<g>
</g>
<g>
</g>
<g>
</g>
</svg>
