<?xml version="1.0" encoding="iso-8859-1"?>
<!-- Generator: Adobe Illustrator 17.1.0, SVG Export Plug-In . SVG Version: 6.00 Build 0)  -->
<!DOCTYPE svg PUBLIC "-//W3C//DTD SVG 1.1//EN" "http://www.w3.org/Graphics/SVG/1.1/DTD/svg11.dtd">
<svg version="1.1" id="Capa_1" xmlns="http://www.w3.org/2000/svg" xmlns:xlink="http://www.w3.org/1999/xlink" x="0px" y="0px"
	 viewBox="0 0 357.576 357.576" style="enable-background:new 0 0 357.576 357.576;" xml:space="preserve">
<path d="M300.808,88.652l-94.163-77.446C198.754,4.713,185.488,0,175.104,0h-108.5C53.368,0,42.601,10.602,42.601,23.636
	c0.002,3.122,0.168,312.155,0.168,313.775c0,11.805,8.258,20.05,20.082,20.05c7.499,0,228.993,0.115,228.993,0.115
	c12.971,0,23.132-10.502,23.132-23.909V119.673C314.976,108.451,309.018,95.405,300.808,88.652z M261.864,185.025l-87.426,99.069
	c-2.391,2.71-5.842,4.281-9.47,4.309c-3.149,0.025-6.18-1.106-8.535-3.184L88.386,225.17c-2.55-2.25-4.072-5.365-4.284-8.771
	c-0.212-3.405,0.91-6.685,3.161-9.235l18.262-20.695c2.391-2.71,5.843-4.281,9.469-4.309c3.149-0.025,6.181,1.107,8.536,3.185
	l37.786,33.346l60.723-68.81c2.392-2.71,5.843-4.281,9.47-4.309c3.15-0.025,6.181,1.106,8.536,3.186l20.694,18.262
	c2.55,2.251,4.072,5.365,4.284,8.77C265.237,179.195,264.115,182.475,261.864,185.025z M206.154,113
	c-15.398,0-16.179-13.688-16.179-16.433V30.961L293.743,113H206.154z"/>
<g>
</g>
<g>
</g>
<g>
</g>
<g>
</g>
<g>
</g>
<g>
</g>
<g>
</g>
<g>
</g>
<g>
</g>
<g>
</g>
<g>
</g>
<g>
</g>
<g>
</g>
<g>
</g>
<g>
</g>
</svg>
