<?xml version="1.0" encoding="iso-8859-1"?>
<!-- Generator: Adobe Illustrator 17.1.0, SVG Export Plug-In . SVG Version: 6.00 Build 0)  -->
<!DOCTYPE svg PUBLIC "-//W3C//DTD SVG 1.1//EN" "http://www.w3.org/Graphics/SVG/1.1/DTD/svg11.dtd">
<svg version="1.1" id="Capa_1" xmlns="http://www.w3.org/2000/svg" xmlns:xlink="http://www.w3.org/1999/xlink" x="0px" y="0px"
	 viewBox="0 0 357.202 357.202" style="enable-background:new 0 0 357.202 357.202;" xml:space="preserve">
<path d="M300.62,88.252l-94.255-77.247C198.614,4.629,185.309,0,174.729,0h-108.5C52.994,0,42.226,10.513,42.226,23.437
	c0.001,3.12,0.167,312.056,0.167,313.675c0,11.776,8.258,20.001,20.082,20.001c7.5,0,229.181,0.09,229.181,0.09
	c12.858,0,23.319-10.737,23.319-23.934V119.274C314.976,108.321,308.805,94.985,300.62,88.252z M189.976,30.568L293.378,113H205.78
	c-14.664,0-15.804-12.883-15.804-16.831V30.568z M188.976,96.169L188.976,96.169L188.976,96.169L188.976,96.169z M174.729,1
	C174.729,1,174.729,1,174.729,1C174.729,1,174.729,1,174.729,1L174.729,1z"/>
<g>
</g>
<g>
</g>
<g>
</g>
<g>
</g>
<g>
</g>
<g>
</g>
<g>
</g>
<g>
</g>
<g>
</g>
<g>
</g>
<g>
</g>
<g>
</g>
<g>
</g>
<g>
</g>
<g>
</g>
</svg>
