<?xml version="1.0" encoding="iso-8859-1"?>
<!-- Generator: Adobe Illustrator 17.1.0, SVG Export Plug-In . SVG Version: 6.00 Build 0)  -->
<!DOCTYPE svg PUBLIC "-//W3C//DTD SVG 1.1//EN" "http://www.w3.org/Graphics/SVG/1.1/DTD/svg11.dtd">
<svg version="1.1" id="Capa_1" xmlns="http://www.w3.org/2000/svg" xmlns:xlink="http://www.w3.org/1999/xlink" x="0px" y="0px"
	 viewBox="0 0 384.404 384.404" style="enable-background:new 0 0 384.404 384.404;" xml:space="preserve">
<g>
	<path style="fill:#000001;" d="M145.344,100.404h93.756c6.065,0,11.103-4.795,11.103-10.86V53.79
		c0-6.065-5.037-11.386-11.103-11.386h-0.682C236.395,19.404,216.456,0,192.222,0c-24.233,0-44.171,19.404-46.194,42.404h-0.685
		c-6.065,0-11.142,5.321-11.142,11.386v35.753C134.202,95.609,139.278,100.404,145.344,100.404z M192.222,30
		c7.658,0,14.087,5.404,15.869,12.404h-31.738C178.136,35.404,184.565,30,192.222,30z"/>
	<path style="fill:#000001;" d="M302.974,71.404h-9.439c-6.341,0-18.333,3.135-18.333,15v26.833c0,8.418-4.827,10.185-8.877,10.185
		c-0.141,0-0.225-0.001-0.222-0.002l-0.2-0.016H120.12c-1.915-0.146-9.918-1.271-9.918-9.75v-27.25
		c0-10.738-9.5-14.853-15.886-14.999l-12.847-0.001c-11.365,0-20.267,8.823-20.267,20.086v272.427
		c0,11.296,9.092,20.487,20.267,20.487h221.505c11.153,0,20.228-9.19,20.228-20.487V91.49
		C323.202,80.227,314.317,71.404,302.974,71.404z M260.863,325.404H123.581c-8.284,0-15-6.716-15-15c0-8.284,6.716-15,15-15h137.282
		c8.284,0,15,6.716,15,15C275.863,318.688,269.147,325.404,260.863,325.404z M260.863,260.404H123.581c-8.284,0-15-6.716-15-15
		c0-8.284,6.716-15,15-15h137.282c8.284,0,15,6.716,15,15C275.863,253.688,269.147,260.404,260.863,260.404z M260.863,194.404
		H123.581c-8.284,0-15-6.716-15-15c0-8.284,6.716-15,15-15h137.282c8.284,0,15,6.716,15,15
		C275.863,187.688,269.147,194.404,260.863,194.404z"/>
</g>
<g>
</g>
<g>
</g>
<g>
</g>
<g>
</g>
<g>
</g>
<g>
</g>
<g>
</g>
<g>
</g>
<g>
</g>
<g>
</g>
<g>
</g>
<g>
</g>
<g>
</g>
<g>
</g>
<g>
</g>
</svg>
