<?xml version="1.0" encoding="iso-8859-1"?>
<!-- Generator: Adobe Illustrator 17.1.0, SVG Export Plug-In . SVG Version: 6.00 Build 0)  -->
<!DOCTYPE svg PUBLIC "-//W3C//DTD SVG 1.1//EN" "http://www.w3.org/Graphics/SVG/1.1/DTD/svg11.dtd">
<svg version="1.1" id="Capa_1" xmlns="http://www.w3.org/2000/svg" xmlns:xlink="http://www.w3.org/1999/xlink" x="0px" y="0px"
	 viewBox="0 0 357.576 357.576" style="enable-background:new 0 0 357.576 357.576;" xml:space="preserve">
<path d="M300.808,88.652l-94.017-77.446C198.901,4.713,185.698,0,175.398,0h-108.5C53.663,0,42.895,10.602,42.895,23.636
	c0.002,3.122,0.168,312.155,0.168,313.775c0,11.805,8.258,20.05,20.082,20.05c7.5,0,228.699,0.115,228.699,0.115
	c12.806,0,22.837-10.502,22.837-23.909V119.673C314.681,108.311,308.846,95.265,300.808,88.652z M66.884,1c0.005,0,0.009,0,0.014,0
	h0C66.893,1,66.888,1,66.884,1z M246.691,246.328c4.887,4.812,4.948,12.703,0.138,17.59l-17.834,18.114
	c-2.327,2.363-5.44,3.679-8.767,3.705c-3.327,0.026-6.46-1.24-8.824-3.567l-31.848-31.355l-31.355,31.849
	c-2.327,2.363-5.44,3.679-8.767,3.705c-3.327,0.026-6.46-1.241-8.823-3.567l-18.115-17.833c-4.887-4.812-4.948-12.703-0.138-17.59
	l31.355-31.849l-33.302-32.786c-4.887-4.812-4.949-12.703-0.138-17.59l17.834-18.114c2.327-2.363,5.44-3.679,8.767-3.705
	c3.327-0.026,6.46,1.241,8.823,3.567l33.303,32.787l32.786-33.302c2.327-2.363,5.44-3.679,8.767-3.705
	c3.327-0.026,6.46,1.241,8.823,3.567l18.115,17.834c4.887,4.813,4.949,12.703,0.137,17.59l-32.786,33.302L246.691,246.328z
	 M206.449,113c-16.577,0-16.768-15.762-16.768-16.433V30.958L294.031,113H206.449z"/>
<g>
</g>
<g>
</g>
<g>
</g>
<g>
</g>
<g>
</g>
<g>
</g>
<g>
</g>
<g>
</g>
<g>
</g>
<g>
</g>
<g>
</g>
<g>
</g>
<g>
</g>
<g>
</g>
<g>
</g>
</svg>
