<?xml version="1.0" encoding="iso-8859-1"?>
<!-- Generator: Adobe Illustrator 17.1.0, SVG Export Plug-In . SVG Version: 6.00 Build 0)  -->
<!DOCTYPE svg PUBLIC "-//W3C//DTD SVG 1.1//EN" "http://www.w3.org/Graphics/SVG/1.1/DTD/svg11.dtd">
<svg version="1.1" id="Capa_1" xmlns="http://www.w3.org/2000/svg" xmlns:xlink="http://www.w3.org/1999/xlink" x="0px" y="0px"
	 viewBox="0 0 346 346" style="enable-background:new 0 0 346 346;" xml:space="preserve">
<path d="M338.898,21.763c-0.814,0-1.63,0.133-2.424,0.396L174.256,75.715c-0.106,0.035-0.573,0.137-1.292,0.137
	c-0.72,0-1.186-0.101-1.293-0.137L9.515,22.159c-0.795-0.263-1.611-0.396-2.424-0.396C3.115,21.763,0,24.927,0,28.966V261.35
	c0,3.75,2.748,7.485,6.392,8.689l162.216,53.557c1.603,0.529,3.294,0.641,4.429,0.641c1.136,0,2.827-0.111,4.429-0.641
	l162.156-53.557c3.636-1.201,6.378-4.938,6.378-8.689V28.966C346,24.927,342.88,21.763,338.898,21.763z M141.309,246.668
	c-2.083,6.304-7.945,10.298-14.24,10.298c-1.56,0-3.146-0.245-4.708-0.761L40.983,229.32c-7.866-2.6-12.136-11.083-9.537-18.949
	s11.083-12.134,18.948-9.537l81.378,26.886C139.638,230.319,143.908,238.802,141.309,246.668z M141.309,186.168
	c-2.083,6.304-7.945,10.298-14.24,10.298c-1.56,0-3.146-0.245-4.708-0.761L40.983,168.82c-7.866-2.6-12.136-11.083-9.537-18.949
	s11.083-12.134,18.948-9.537l81.378,26.886C139.638,169.819,143.908,178.302,141.309,186.168z M141.309,125.668
	c-2.083,6.304-7.945,10.298-14.24,10.298c-1.56,0-3.146-0.245-4.708-0.761L40.983,108.32c-7.866-2.6-12.136-11.083-9.537-18.949
	c2.599-7.865,11.083-12.133,18.948-9.537l81.378,26.886C139.638,109.319,143.908,117.802,141.309,125.668z M304.771,229.32
	l-81.377,26.886c-1.562,0.516-3.148,0.761-4.708,0.761c-6.295,0-12.158-3.994-14.24-10.298c-2.599-7.866,1.671-16.35,9.537-18.949
	l81.377-26.886c7.866-2.599,16.35,1.672,18.948,9.537C316.908,218.237,312.638,226.72,304.771,229.32z M304.771,168.82
	l-81.377,26.886c-1.562,0.516-3.148,0.761-4.708,0.761c-6.295,0-12.158-3.994-14.24-10.298c-2.599-7.866,1.671-16.35,9.537-18.949
	l81.377-26.886c7.866-2.598,16.35,1.672,18.948,9.537C316.908,157.737,312.638,166.22,304.771,168.82z M304.771,108.32
	l-81.377,26.886c-1.562,0.516-3.148,0.761-4.708,0.761c-6.295,0-12.158-3.994-14.24-10.298c-2.599-7.866,1.671-16.35,9.537-18.949
	l81.377-26.886c7.866-2.596,16.35,1.671,18.948,9.537C316.908,97.237,312.638,105.72,304.771,108.32z"/>
<g>
</g>
<g>
</g>
<g>
</g>
<g>
</g>
<g>
</g>
<g>
</g>
<g>
</g>
<g>
</g>
<g>
</g>
<g>
</g>
<g>
</g>
<g>
</g>
<g>
</g>
<g>
</g>
<g>
</g>
</svg>
