<?xml version="1.0" encoding="iso-8859-1"?>
<!-- Generator: Adobe Illustrator 17.1.0, SVG Export Plug-In . SVG Version: 6.00 Build 0)  -->
<!DOCTYPE svg PUBLIC "-//W3C//DTD SVG 1.1//EN" "http://www.w3.org/Graphics/SVG/1.1/DTD/svg11.dtd">
<svg version="1.1" id="Capa_1" xmlns="http://www.w3.org/2000/svg" xmlns:xlink="http://www.w3.org/1999/xlink" x="0px" y="0px"
	 viewBox="0 0 346.373 346.373" style="enable-background:new 0 0 346.373 346.373;" xml:space="preserve">
<g>
	<path d="M255.09,254h-7.547c-0.159,0-0.336-0.069-0.453-0.144V246c0-5.607-4.193-10-9.547-10h-1.28
		c-5.515,0-10.173,4.579-10.173,10l-0.003,8h-7.997c-5.42,0-10,4.658-10,10.173v1.28c0,5.354,4.393,9.547,10,9.547h7.857
		c0.074,0.117,0.143,0.295,0.143,0.453V283c0,5.421,4.659,10,10.173,10h1.28c5.354,0,9.547-4.393,9.547-10v-7.456
		c0.079-0.187,0.357-0.466,0.544-0.544h7.456c5.607,0,10-4.193,10-9.547v-1.28C265.09,258.658,260.51,254,255.09,254z"/>
	<path d="M270.09,189.454v-83.201c0-9.719-5.52-21.59-12.841-27.612L173.454,9.894C166.6,4.253,154.485,0,145.274,0H48.851
		C37.058,0,27.463,9.413,27.463,20.982c0.002,2.773,0.149,277.372,0.149,278.812c0,10.513,7.362,17.854,17.902,17.854
		c3.328,0,54.127,0.023,104.162,0.047l25.063,0.012c15.046,17.529,37.338,28.666,62.197,28.666
		c45.201,0,81.974-36.773,81.974-81.975C318.91,230.994,298.816,202.212,270.09,189.454z M159.09,27.532L250.55,100h-77.682
		c-12.436,0-13.779-9.987-13.779-14.281V27.532z M172.869,101L172.869,101c-0.001,0-0.002,0-0.002,0
		C172.867,101,172.868,101,172.869,101z M158.09,85.724c0-0.001,0-0.003,0-0.004v0C158.09,85.72,158.09,85.722,158.09,85.724z
		 M145.274,1c0.001,0,0.001,0,0.001,0S145.275,1,145.274,1L145.274,1z M236.936,316.373c-28.659,0-51.974-23.315-51.974-51.975
		c0-28.659,23.315-51.975,51.974-51.975s51.974,23.316,51.974,51.975C288.91,293.058,265.594,316.373,236.936,316.373z"/>
</g>
<g>
</g>
<g>
</g>
<g>
</g>
<g>
</g>
<g>
</g>
<g>
</g>
<g>
</g>
<g>
</g>
<g>
</g>
<g>
</g>
<g>
</g>
<g>
</g>
<g>
</g>
<g>
</g>
<g>
</g>
</svg>
