<?xml version="1.0" encoding="iso-8859-1"?>
<!-- Generator: Adobe Illustrator 17.1.0, SVG Export Plug-In . SVG Version: 6.00 Build 0)  -->
<!DOCTYPE svg PUBLIC "-//W3C//DTD SVG 1.1//EN" "http://www.w3.org/Graphics/SVG/1.1/DTD/svg11.dtd">
<svg version="1.1" id="Capa_1" xmlns="http://www.w3.org/2000/svg" xmlns:xlink="http://www.w3.org/1999/xlink" x="0px" y="0px"
	 viewBox="0 0 339 339" style="enable-background:new 0 0 339 339;" xml:space="preserve">
<g>
	<path d="M324.003,56h-145c-0.465,0-0.886-0.004-1.266-0.007l-0.939-0.006c-1.501,0-4.014,0-5.922,1.926
		c-1.927,1.944-1.906,4.316-1.883,6.828C168.996,65.12,169,65.538,169,66v247c0,0.463-0.004,0.882-0.007,1.261
		c-0.023,2.511-0.045,4.882,1.882,6.827c1.909,1.926,4.422,1.926,5.923,1.926l0.939-0.006c0.38-0.003,0.801-0.007,1.266-0.007h145
		c8.27,0,14.997-6.729,14.997-15V71C339,62.729,332.272,56,324.003,56z M221,302c0,1.657-1.343,3-3,3h-27c-1.657,0-3-1.343-3-3v-10
		c0-1.657,1.343-3,3-3h27c1.657,0,3,1.343,3,3V302z M221,83c0,1.657-1.343,3-3,3h-27c-1.657,0-3-1.343-3-3V73c0-1.657,1.343-3,3-3
		h27c1.657,0,3,1.343,3,3V83z M271,302c0,1.657-1.343,3-3,3h-29c-1.657,0-3-1.343-3-3v-10c0-1.657,1.343-3,3-3h29
		c1.657,0,3,1.343,3,3V302z M271,83c0,1.657-1.343,3-3,3h-29c-1.657,0-3-1.343-3-3V73c0-1.657,1.343-3,3-3h29c1.657,0,3,1.343,3,3
		V83z M321,302c0,1.657-1.343,3-3,3h-28c-1.657,0-3-1.343-3-3v-10c0-1.657,1.343-3,3-3h28c1.657,0,3,1.343,3,3V302z M321,83
		c0,1.657-1.343,3-3,3h-28c-1.657,0-3-1.343-3-3V73c0-1.657,1.343-3,3-3h28c1.657,0,3,1.343,3,3V83z"/>
	<path d="M129,44h-4V20c0-5.514-4.486-10-10-10H28c-5.514,0-10,4.486-10,10v24h-3C6.728,44,0,50.729,0,59v255
		c0,8.271,6.728,15,15,15h114c8.271,0,15-6.729,15-15V59C144,50.729,137.271,44,129,44z"/>
</g>
<g>
</g>
<g>
</g>
<g>
</g>
<g>
</g>
<g>
</g>
<g>
</g>
<g>
</g>
<g>
</g>
<g>
</g>
<g>
</g>
<g>
</g>
<g>
</g>
<g>
</g>
<g>
</g>
<g>
</g>
</svg>
