<?xml version="1.0" encoding="iso-8859-1"?>
<!-- Generator: Adobe Illustrator 17.1.0, SVG Export Plug-In . SVG Version: 6.00 Build 0)  -->
<!DOCTYPE svg PUBLIC "-//W3C//DTD SVG 1.1//EN" "http://www.w3.org/Graphics/SVG/1.1/DTD/svg11.dtd">
<svg version="1.1" id="Capa_1" xmlns="http://www.w3.org/2000/svg" xmlns:xlink="http://www.w3.org/1999/xlink" x="0px" y="0px"
	 viewBox="0 0 375 375" style="enable-background:new 0 0 375 375;" xml:space="preserve">
<path d="M284.177,83.117c-1.306-1.812-1.306-5.239,0-7.051l36.54-50.684c2.359-3.273,2.852-6.832,1.351-9.764
	c-1.503-2.935-4.685-4.619-8.73-4.619H137.078v-0.767C137.078,4.495,132.88,0,127.521,0h-17.946
	c-5.592,0-10.498,4.782-10.498,10.233V344H62.371c-5.58,0-10.293,4.669-10.293,10.195v11.277c0,5.342,4.521,9.527,10.293,9.527
	h112.356c5.804,0,10.351-4.185,10.351-9.527v-11.277c0-5.431-4.837-10.195-10.351-10.195h-37.205c-0.163,0-0.332-0.066-0.444-0.133
	V148h176.261c4.065,0,7.25-1.67,8.741-4.583c1.482-2.895,0.985-6.424-1.365-9.685L284.177,83.117z"/>
<g>
</g>
<g>
</g>
<g>
</g>
<g>
</g>
<g>
</g>
<g>
</g>
<g>
</g>
<g>
</g>
<g>
</g>
<g>
</g>
<g>
</g>
<g>
</g>
<g>
</g>
<g>
</g>
<g>
</g>
</svg>
