<?xml version="1.0" encoding="iso-8859-1"?>
<!-- Generator: Adobe Illustrator 17.1.0, SVG Export Plug-In . SVG Version: 6.00 Build 0)  -->
<!DOCTYPE svg PUBLIC "-//W3C//DTD SVG 1.1//EN" "http://www.w3.org/Graphics/SVG/1.1/DTD/svg11.dtd">
<svg version="1.1" id="Capa_1" xmlns="http://www.w3.org/2000/svg" xmlns:xlink="http://www.w3.org/1999/xlink" x="0px" y="0px"
	 viewBox="0 0 360.473 360.473" style="enable-background:new 0 0 360.473 360.473;" xml:space="preserve">
<g>
	<path d="M298.653,221.236h-7.547c-0.158,0-0.336-0.069-0.453-0.143v-7.857c0-5.607-4.193-10-9.547-10h-1.28
		c-5.515,0-10.173,4.58-10.173,10l-0.003,8h-7.997c-5.421,0-10,4.659-10,10.173v1.28c0,5.354,4.393,9.547,10,9.547h7.856
		c0.074,0.117,0.144,0.294,0.144,0.453v7.547c0,5.42,4.658,10,10.173,10h1.28c5.353,0,9.547-4.393,9.547-10v-7.456
		c0.078-0.188,0.357-0.466,0.544-0.544h7.456c5.607,0,10-4.193,10-9.547v-1.28C308.653,225.895,304.074,221.236,298.653,221.236z"/>
	<path d="M301.767,153.045l0.806-3.121c1.337-5.299,0.354-10.583-2.696-14.498c-3.064-3.934-7.978-6.189-13.483-6.189H26.653v-23
		h249.095c4.925,0,7.806-4.724,7.905-13.021v-9.632c0-7.359-5.907-13.347-13.168-13.347H152.788c-2.966,0-7.406-2.24-9.143-4.615
		l-14.447-19.705c-3.617-4.948-11.017-8.68-17.211-8.68h-47.94c-6.747,0-13.522,4.773-15.76,11.098l-6.196,17.477
		c-0.805,2.274-3.882,4.425-6.333,4.425H13.715c-4.275,0-8.28,2.132-10.713,5.702L2.89,76.1c-0.07,0.107-0.138,0.215-0.198,0.314
		c-1.334,2.099-2.039,4.513-2.039,6.982v4.105c-0.017,0.266-0.023,0.599,0,0.981v209.185l-0.538,4.946
		c-0.584,5.368,1.084,10.679,4.576,14.572c3.501,3.902,8.392,6.051,13.772,6.051h227.93c7.626,0,15.517-4.244,20.548-10.458
		c3.778,0.536,7.633,0.83,11.557,0.83c45.201,0,81.975-36.773,81.975-81.974C360.473,194.516,335.667,163.099,301.767,153.045z
		 M278.498,283.609c-28.659,0-51.975-23.315-51.975-51.974s23.315-51.974,51.975-51.974c28.659,0,51.975,23.315,51.975,51.974
		S307.158,283.609,278.498,283.609z"/>
</g>
<g>
</g>
<g>
</g>
<g>
</g>
<g>
</g>
<g>
</g>
<g>
</g>
<g>
</g>
<g>
</g>
<g>
</g>
<g>
</g>
<g>
</g>
<g>
</g>
<g>
</g>
<g>
</g>
<g>
</g>
</svg>
