<?xml version="1.0" encoding="iso-8859-1"?>
<!-- Generator: Adobe Illustrator 17.1.0, SVG Export Plug-In . SVG Version: 6.00 Build 0)  -->
<!DOCTYPE svg PUBLIC "-//W3C//DTD SVG 1.1//EN" "http://www.w3.org/Graphics/SVG/1.1/DTD/svg11.dtd">
<svg version="1.1" id="Capa_1" xmlns="http://www.w3.org/2000/svg" xmlns:xlink="http://www.w3.org/1999/xlink" x="0px" y="0px"
	 viewBox="0 0 360.472 360.472" style="enable-background:new 0 0 360.472 360.472;" xml:space="preserve">
<g>
	<path d="M296.653,220.236h-38c-5.514,0-10,4.486-10,10v2c0,5.514,4.486,10,10,10h38c5.514,0,10-4.486,10-10v-2
		C306.653,224.722,302.167,220.236,296.653,220.236z"/>
	<path d="M301.768,153.045l0.806-3.121c1.336-5.299,0.353-10.583-2.697-14.498c-3.065-3.933-7.98-6.189-13.484-6.189
		c0,0-255.115,0.375-259.74,0.375v-23.375h249.095c4.924,0,7.806-4.724,7.905-13.021v-9.632c0-7.359-5.907-13.347-13.168-13.347
		H152.789c-2.966,0-7.407-2.24-9.143-4.615l-14.447-19.705c-3.617-4.949-11.016-8.681-17.211-8.681H64.048
		c-6.747,0-13.523,4.773-15.76,11.098L42.091,65.81c-0.805,2.275-3.882,4.426-6.333,4.426H13.716c-4.274,0-8.279,2.131-10.671,5.641
		l-0.144,0.207c-0.08,0.12-0.156,0.242-0.207,0.329c-1.335,2.098-2.041,4.513-2.041,6.984v4.105c-0.017,0.266-0.023,0.599,0,0.981
		v209.185l-0.538,4.946c-0.584,5.368,1.084,10.679,4.577,14.572c3.5,3.902,8.391,6.051,13.772,6.051h227.93
		c7.626,0,15.517-4.244,20.548-10.458c3.779,0.536,7.634,0.83,11.558,0.83c45.201,0,81.974-36.774,81.974-81.974
		C360.472,194.517,335.667,163.1,301.768,153.045z M278.498,283.609c-28.659,0-51.974-23.316-51.974-51.974
		s23.315-51.974,51.974-51.974s51.974,23.315,51.974,51.974S307.157,283.609,278.498,283.609z"/>
</g>
<g>
</g>
<g>
</g>
<g>
</g>
<g>
</g>
<g>
</g>
<g>
</g>
<g>
</g>
<g>
</g>
<g>
</g>
<g>
</g>
<g>
</g>
<g>
</g>
<g>
</g>
<g>
</g>
<g>
</g>
</svg>
