<?xml version="1.0" encoding="iso-8859-1"?>
<!-- Generator: Adobe Illustrator 17.1.0, SVG Export Plug-In . SVG Version: 6.00 Build 0)  -->
<!DOCTYPE svg PUBLIC "-//W3C//DTD SVG 1.1//EN" "http://www.w3.org/Graphics/SVG/1.1/DTD/svg11.dtd">
<svg version="1.1" id="Capa_1" xmlns="http://www.w3.org/2000/svg" xmlns:xlink="http://www.w3.org/1999/xlink" x="0px" y="0px"
	 viewBox="0 0 367.082 367.082" style="enable-background:new 0 0 367.082 367.082;" xml:space="preserve">
<path style="fill:#000001;" d="M366.518,166.276c-0.621-2.5-2.428-4.914-4.356-6.89c0,0-1.183-1.205-1.567-1.567L278.57,73.789
	c-5.788-5.929-15.288-6.043-21.215-0.257c-5.929,5.787-6.045,15.059-0.258,20.987l56.227,57.381H211.609
	c-11.028,0-19.528,9.422-19.528,20.45v38.55h-17v-38.55c0-11.028-8.936-20.45-19.965-20.45H51.954l57.203-58.381
	c5.786-5.929,5.671-15.313-0.257-21.099c-5.928-5.786-15.425-5.616-21.212,0.313L4.141,158.357
	c-3.201,3.28-4.467,7.665-4.071,11.896c-0.071,0.685,0.01,1.393,0.01,2.097v106.718c0,11.028,8.731,19.832,19.76,19.832h135.275
	c11.028,0,19.965-8.804,19.965-19.832v-38.168h17v38.168c0,11.028,8.5,19.832,19.528,19.832h135.275
	c11.028,0,20.196-8.804,20.196-19.832V172.351C367.081,170.218,367.14,168.205,366.518,166.276z M145.081,268.901h-115v-87h115
	V268.901z M337.081,268.901h-115v-87h115V268.901z"/>
<g>
</g>
<g>
</g>
<g>
</g>
<g>
</g>
<g>
</g>
<g>
</g>
<g>
</g>
<g>
</g>
<g>
</g>
<g>
</g>
<g>
</g>
<g>
</g>
<g>
</g>
<g>
</g>
<g>
</g>
</svg>
