<?xml version="1.0" encoding="iso-8859-1"?>
<!-- Generator: Adobe Illustrator 17.1.0, SVG Export Plug-In . SVG Version: 6.00 Build 0)  -->
<!DOCTYPE svg PUBLIC "-//W3C//DTD SVG 1.1//EN" "http://www.w3.org/Graphics/SVG/1.1/DTD/svg11.dtd">
<svg version="1.1" id="Capa_1" xmlns="http://www.w3.org/2000/svg" xmlns:xlink="http://www.w3.org/1999/xlink" x="0px" y="0px"
	 viewBox="0 0 365.043 365.043" style="enable-background:new 0 0 365.043 365.043;" xml:space="preserve">
<path d="M308.374,64.28c-9.265,0-17,7.512-17,16.778v73.128c0,4.024-3.537,7.288-8,7.288c-4.463,0-8-3.264-8-7.288V50.482
	c0-11.127-8.944-20.141-20.07-20.141c-11.138,0-20.047,9.027-20.047,20.162c0,0,0.117,103.623,0.117,103.647v0.036
	c0,4.024-3.292,7.288-7.499,7.288c-4.208,0-7.501-3.264-7.501-7.288V21.836C220.374,9.775,210.393,0,198.332,0
	c-12.071,0-21.951,9.784-21.951,21.856c0,0-0.07,131.242-0.07,132.765c-0.227,3.821-3.579,6.854-7.458,6.854
	c-4.025,0-7.479-3.264-7.479-7.288V40.94c0-12.071-9.617-21.855-21.686-21.855c-12.071,0-21.772,9.784-21.772,21.855
	c-0.202,158.355-0.159,158.355-0.174,171.466c0,4.949,0.116,15.584-2.269,17.363c-1.981,1.477-4.609-0.357-7.803-4.671
	c-7.248-9.787-17.707-25.332-25.329-35.72c-7.225-9.85-18.634-20.545-31.587-13.46c-12.319,6.739-14.404,24.007-6.074,35.315
	c0,0,53.968,79.196,72.411,106.731c10.796,16.118,13.693,21.102,17.414,26.396c14.184,20.174,22.1,20.682,44.975,20.682
	c24.676,0,94.792,0,94.792,0c50.996,0,51.104-60.284,51.104-86.119V90.282C325.374,71.792,317.641,64.28,308.374,64.28z"/>
<g>
</g>
<g>
</g>
<g>
</g>
<g>
</g>
<g>
</g>
<g>
</g>
<g>
</g>
<g>
</g>
<g>
</g>
<g>
</g>
<g>
</g>
<g>
</g>
<g>
</g>
<g>
</g>
<g>
</g>
</svg>
