<?xml version="1.0" encoding="iso-8859-1"?>
<!-- Generator: Adobe Illustrator 17.1.0, SVG Export Plug-In . SVG Version: 6.00 Build 0)  -->
<!DOCTYPE svg PUBLIC "-//W3C//DTD SVG 1.1//EN" "http://www.w3.org/Graphics/SVG/1.1/DTD/svg11.dtd">
<svg version="1.1" id="Capa_1" xmlns="http://www.w3.org/2000/svg" xmlns:xlink="http://www.w3.org/1999/xlink" x="0px" y="0px"
	 viewBox="0 0 372.391 372.391" style="enable-background:new 0 0 372.391 372.391;" xml:space="preserve">
<path d="M328.205,200.807c-0.151-0.208-0.122-0.406-0.278-0.61c0.345-1.263,0.741-2.585,0.741-3.958v-16.264
	c0-38.299-14.864-74.097-41.5-100.801c-26.66-26.728-62.524-41.447-100.809-41.447c-38.285,0-73.889,14.72-100.549,41.447
	c-26.636,26.703-41.142,62.502-41.142,100.801v16.264c0,1.397-0.006,2.744,0.351,4.027c-0.146,0.177-0.404,0.346-0.548,0.527
	C19.774,202.335,0,228.567,0,260.589c0,32.026,19.695,58.26,44.394,59.801c7.257,9.11,17.497,14.275,28.536,14.275
	c19.713,0,35.738-15.937,35.738-35.525v-77.103c0-19.145-15-34.792-34-35.49v-6.573c0-62.942,49.187-112.248,112.001-112.248
	c62.813,0,111.999,49.306,111.999,112.248v6.568c-20,0.604-35,16.288-35,35.495v77.103c0,19.588,16.039,35.525,35.754,35.525
	c11.47,0,22.415-5.519,28.782-14.29c24.589-1.693,44.189-27.861,44.189-59.785C372.391,228.667,352.794,202.5,328.205,200.807z"/>
<g>
</g>
<g>
</g>
<g>
</g>
<g>
</g>
<g>
</g>
<g>
</g>
<g>
</g>
<g>
</g>
<g>
</g>
<g>
</g>
<g>
</g>
<g>
</g>
<g>
</g>
<g>
</g>
<g>
</g>
</svg>
