<?xml version="1.0" encoding="iso-8859-1"?>
<!-- Generator: Adobe Illustrator 17.1.0, SVG Export Plug-In . SVG Version: 6.00 Build 0)  -->
<!DOCTYPE svg PUBLIC "-//W3C//DTD SVG 1.1//EN" "http://www.w3.org/Graphics/SVG/1.1/DTD/svg11.dtd">
<svg version="1.1" id="Capa_1" xmlns="http://www.w3.org/2000/svg" xmlns:xlink="http://www.w3.org/1999/xlink" x="0px" y="0px"
	 viewBox="0 0 374.334 374.334" style="enable-background:new 0 0 374.334 374.334;" xml:space="preserve">
<path d="M374.155,273.548c-1.165-18.419-7.969-35.245-18.636-48.864c0.083-1.432,0.136-2.869,0.136-4.315
	c0-30.471-18.834-55.469-42.281-57.326c0.385-1.328,0.401-2.728,0.401-4.18v-15.546c0-36.782-13.889-71.165-39.472-96.813
	c-25.607-25.672-59.859-39.811-96.629-39.811c-36.77,0-70.871,14.139-96.479,39.811c-25.583,25.647-39.421,60.029-39.421,96.813
	v15.546c0,1.453,0.016,2.853,0.401,4.181C18.732,164.902,0,189.9,0,220.369c0,30.607,18.743,55.701,42.335,57.359
	c6.307,8.499,16.481,13.663,27.314,13.663c18.831,0,34.127-15.331,34.127-34.175v-73.694c0-18.258-14-33.218-32-34.131v-6.074
	c0-59.789,46.335-106.623,106-106.623c59.665,0,105.999,46.834,105.999,106.623v6.074c-18,0.916-32,15.874-32,34.131v13.93
	c-33.86,14.151-56.709,48.643-54.265,87.275c2.942,46.493,41.708,82.912,88.252,82.912c1.877,0,3.781-0.061,5.66-0.18
	C340.124,364.378,377.237,322.249,374.155,273.548z M282.137,220.755c1.252-0.079,2.52-0.119,3.767-0.119
	c11.824,0,22.881,3.57,32.133,9.698l-81.013,81.013c-5.467-8.26-8.908-17.996-9.574-28.514
	C225.413,250.641,249.946,222.792,282.137,220.755z M289.528,337.52c-1.251,0.079-2.517,0.119-3.766,0.119
	c-9.432,0-18.375-2.273-26.306-6.299l78.57-78.57c3.487,6.878,5.674,14.538,6.189,22.672
	C346.253,307.635,321.719,335.482,289.528,337.52z"/>
<g>
</g>
<g>
</g>
<g>
</g>
<g>
</g>
<g>
</g>
<g>
</g>
<g>
</g>
<g>
</g>
<g>
</g>
<g>
</g>
<g>
</g>
<g>
</g>
<g>
</g>
<g>
</g>
<g>
</g>
</svg>
