<?xml version="1.0" encoding="iso-8859-1"?>
<!-- Generator: Adobe Illustrator 17.1.0, SVG Export Plug-In . SVG Version: 6.00 Build 0)  -->
<!DOCTYPE svg PUBLIC "-//W3C//DTD SVG 1.1//EN" "http://www.w3.org/Graphics/SVG/1.1/DTD/svg11.dtd">
<svg version="1.1" id="Capa_1" xmlns="http://www.w3.org/2000/svg" xmlns:xlink="http://www.w3.org/1999/xlink" x="0px" y="0px"
	 viewBox="0 0 371 371" style="enable-background:new 0 0 371 371;" xml:space="preserve">
<g>
	<path d="M96.88,117.264h177.106c6.065,0,11.014-4.705,11.014-10.771V58.767c0-6.065-4.949-10.503-11.014-10.503H229.51
		c-1.895-23-20.932-40.528-44.076-40.528c-23.144,0-42.181,17.528-44.076,40.528H96.88c-6.065,0-10.88,4.438-10.88,10.503v47.727
		C86,112.559,90.814,117.264,96.88,117.264z"/>
	<path d="M348.209,78.264h-12.512C325.729,78.264,315,83.4,315,94.677v41.032c0,10.394-5.855,12.575-10.766,12.575
		c-0.17,0-0.289-0.004-0.29-0.004l-0.202-0.017H68.871C67.205,148.153,57,147.027,57,136.191V94.677
		c0-11.9-10.765-16.335-18.054-16.413h-16.29C9.952,78.264,0,88.057,0,100.559v239.407c0,12.847,10.164,23.298,22.656,23.298
		h325.553c12.567,0,22.791-10.451,22.791-23.298V100.559C371,88.057,360.989,78.264,348.209,78.264z M100.518,171.956
		c20.193,0,36.564,16.378,36.564,36.573c0,20.192-16.371,36.573-36.564,36.573c-20.203,0-36.571-16.38-36.571-36.573
		C63.947,188.334,80.316,171.956,100.518,171.956z M147.911,317.95c0,0-27.951,21.001-47.396,21.001S53.119,317.95,53.119,317.95
		c-2.638-1.982-4.274-6.253-3.635-9.491l6.93-35.211c0.639-3.237,3.862-5.984,7.162-5.984h73.877c3.3,0,6.523,2.747,7.162,5.984
		l6.93,35.211C152.185,311.697,150.549,315.968,147.911,317.95z M276,299.264h-70c-8.284,0-15-6.716-15-15c0-8.284,6.716-15,15-15
		h70c8.284,0,15,6.716,15,15C291,292.548,284.284,299.264,276,299.264z M316,236.264H206c-8.284,0-15-6.716-15-15
		c0-8.284,6.716-15,15-15h110c8.284,0,15,6.716,15,15C331,229.548,324.284,236.264,316,236.264z"/>
</g>
<g>
</g>
<g>
</g>
<g>
</g>
<g>
</g>
<g>
</g>
<g>
</g>
<g>
</g>
<g>
</g>
<g>
</g>
<g>
</g>
<g>
</g>
<g>
</g>
<g>
</g>
<g>
</g>
<g>
</g>
</svg>
