<?xml version="1.0" encoding="iso-8859-1"?>
<!-- Generator: Adobe Illustrator 17.1.0, SVG Export Plug-In . SVG Version: 6.00 Build 0)  -->
<!DOCTYPE svg PUBLIC "-//W3C//DTD SVG 1.1//EN" "http://www.w3.org/Graphics/SVG/1.1/DTD/svg11.dtd">
<svg version="1.1" id="Capa_1" xmlns="http://www.w3.org/2000/svg" xmlns:xlink="http://www.w3.org/1999/xlink" x="0px" y="0px"
	 viewBox="0 0 371 371" style="enable-background:new 0 0 371 371;" xml:space="preserve">
<g>
	<path d="M348.543,66.5H337.5c-4.623,0-11.5,3.329-11.5,12.5v38.5c0,2.757-2.243,5-5,5h-79c-2.757,0-5-2.243-5-5V80.75
		c0-10.455-8.821-14.25-14.75-14.25H150c-6.029,0-15,3.662-15,13.75v37.25c0,2.757-2.243,5-5,5H51c-2.757,0-5-2.243-5-5v-38
		c0-9.538-7.177-13-12.001-13h-11.01C10.098,66.5,0,76.293,0,88.795v244.407C0,345.831,10.528,356.5,22.989,356.5h325.554
		c12.383,0,22.457-10.451,22.457-23.298V88.795C371,76.293,361.136,66.5,348.543,66.5z M115.518,160.192
		c20.193,0,36.564,16.378,36.564,36.573c0,20.192-16.371,36.573-36.564,36.573c-20.203,0-36.571-16.38-36.571-36.573
		C78.947,176.57,95.316,160.192,115.518,160.192z M162.911,306.186c0,0-27.951,21.001-47.396,21.001s-47.396-21.001-47.396-21.001
		c-2.638-1.982-4.274-6.253-3.635-9.491l6.93-35.211c0.639-3.237,3.862-5.984,7.162-5.984h73.877c3.3,0,6.523,2.747,7.162,5.984
		l6.93,35.211C167.185,299.933,165.549,304.204,162.911,306.186z M291,287.5h-70c-8.284,0-15-6.716-15-15s6.716-15,15-15h70
		c8.284,0,15,6.716,15,15S299.284,287.5,291,287.5z M331,224.5H221c-8.284,0-15-6.716-15-15s6.716-15,15-15h110
		c8.284,0,15,6.716,15,15S339.284,224.5,331,224.5z"/>
	<path d="M71,101.5h39c3.86,0,7-3.141,7-7v-73c0-3.859-3.14-7-7-7H71c-3.86,0-7,3.141-7,7v73C64,98.359,67.14,101.5,71,101.5z"/>
	<path d="M262,101.5h39c3.859,0,7-3.141,7-7v-73c0-3.859-3.141-7-7-7h-39c-3.859,0-7,3.141-7,7v73
		C255,98.359,258.141,101.5,262,101.5z"/>
</g>
<g>
</g>
<g>
</g>
<g>
</g>
<g>
</g>
<g>
</g>
<g>
</g>
<g>
</g>
<g>
</g>
<g>
</g>
<g>
</g>
<g>
</g>
<g>
</g>
<g>
</g>
<g>
</g>
<g>
</g>
</svg>
