<?xml version="1.0" encoding="iso-8859-1"?>
<!-- Generator: Adobe Illustrator 17.1.0, SVG Export Plug-In . SVG Version: 6.00 Build 0)  -->
<!DOCTYPE svg PUBLIC "-//W3C//DTD SVG 1.1//EN" "http://www.w3.org/Graphics/SVG/1.1/DTD/svg11.dtd">
<svg version="1.1" id="Capa_1" xmlns="http://www.w3.org/2000/svg" xmlns:xlink="http://www.w3.org/1999/xlink" x="0px" y="0px"
	 viewBox="0 0 345 345" style="enable-background:new 0 0 345 345;" xml:space="preserve">
<g>
	<path d="M261,0H84C72.954,0,64,8.954,64,20v305c0,11.046,8.954,20,20,20h177c11.046,0,20-8.954,20-20V20C281,8.954,272.046,0,261,0
		z M172.783,310.688c-35.174,0-63.688-28.514-63.688-63.688s28.514-63.688,63.688-63.688c35.174,0,63.688,28.514,63.688,63.688
		S207.956,310.688,172.783,310.688z M251,137c0,2.75-2.25,5-5,5H100c-2.75,0-5-2.25-5-5V44c0-2.75,2.25-5,5-5h146c2.75,0,5,2.25,5,5
		V137z"/>
	<path d="M207.207,240.754l-48.338-33.408c-4.98-3.435-8.869-1.296-8.869,4.754v69.8c0,6.05,3.889,8.189,8.869,4.754l48.384-33.408
		C212.234,249.811,212.187,244.189,207.207,240.754z"/>
</g>
<g>
</g>
<g>
</g>
<g>
</g>
<g>
</g>
<g>
</g>
<g>
</g>
<g>
</g>
<g>
</g>
<g>
</g>
<g>
</g>
<g>
</g>
<g>
</g>
<g>
</g>
<g>
</g>
<g>
</g>
</svg>
