<?xml version="1.0" encoding="iso-8859-1"?>
<!-- Generator: Adobe Illustrator 17.1.0, SVG Export Plug-In . SVG Version: 6.00 Build 0)  -->
<!DOCTYPE svg PUBLIC "-//W3C//DTD SVG 1.1//EN" "http://www.w3.org/Graphics/SVG/1.1/DTD/svg11.dtd">
<svg version="1.1" id="Capa_1" xmlns="http://www.w3.org/2000/svg" xmlns:xlink="http://www.w3.org/1999/xlink" x="0px" y="0px"
	 viewBox="0 0 374.507 374.507" style="enable-background:new 0 0 374.507 374.507;" xml:space="preserve">
<path d="M319.253,263.507h-5v-17c0-11.333-6.333-21-17-21h-86V121.058c22.796-9.466,38.872-31.955,38.872-58.135
	C250.126,28.228,221.898,0,187.202,0c-34.696,0-62.923,28.228-62.923,62.923c0,25.446,15.192,47.396,36.975,57.3v105.284h-85
	c-10.667,0-17,10.333-17,21v17h-4c-11.028,0-20,8.972-20,20v71c0,11.028,8.972,20,20,20h264c11.028,0,20-8.972,20-20v-71
	C339.253,272.478,330.282,263.507,319.253,263.507z"/>
<g>
</g>
<g>
</g>
<g>
</g>
<g>
</g>
<g>
</g>
<g>
</g>
<g>
</g>
<g>
</g>
<g>
</g>
<g>
</g>
<g>
</g>
<g>
</g>
<g>
</g>
<g>
</g>
<g>
</g>
</svg>
