<?xml version="1.0" encoding="iso-8859-1"?>
<!-- Generator: Adobe Illustrator 17.1.0, SVG Export Plug-In . SVG Version: 6.00 Build 0)  -->
<!DOCTYPE svg PUBLIC "-//W3C//DTD SVG 1.1//EN" "http://www.w3.org/Graphics/SVG/1.1/DTD/svg11.dtd">
<svg version="1.1" id="Capa_1" xmlns="http://www.w3.org/2000/svg" xmlns:xlink="http://www.w3.org/1999/xlink" x="0px" y="0px"
	 viewBox="0 0 366 366" style="enable-background:new 0 0 366 366;" xml:space="preserve">
<g>
	<path d="M129.564,71.746c14.711-11.674,32.411-17.845,51.188-17.845c18.979,0,36.823,6.284,51.606,18.172
		c2.771,2.229,6.092,3.312,9.391,3.312c4.387,0,8.735-1.915,11.699-5.6c5.191-6.456,4.167-15.898-2.289-21.089
		c-19.882-15.989-44.887-24.794-70.407-24.794c-25.618,0-49.768,8.418-69.836,24.346c-6.489,5.15-7.575,14.585-2.426,21.074
		C113.641,75.809,123.075,76.896,129.564,71.746z"/>
	<path d="M227.72,95.187c-13.235-10.645-29.883-16.507-46.873-16.507c-16.811,0-33.322,5.756-46.491,16.208
		c-6.488,5.15-7.574,14.585-2.424,21.074c5.15,6.49,14.585,7.575,21.074,2.425c8.001-6.35,17.628-9.706,27.841-9.706
		c10.324,0,20.031,3.418,28.072,9.885c2.771,2.229,6.092,3.312,9.391,3.312c4.387,0,8.735-1.916,11.698-5.6
		C235.2,109.821,234.176,100.378,227.72,95.187z"/>
	<path d="M346,139.099H20c-11.046,0-20,8.954-20,20v163c0,11.046,8.954,20,20,20h326c11.046,0,20-8.954,20-20v-163
		C366,148.053,357.046,139.099,346,139.099z M168,197.099c0-2.209,1.791-4,4-4h23c2.209,0,4,1.791,4,4v17c0,2.209-1.791,4-4,4h-23
		c-2.209,0-4-1.791-4-4V197.099z M168,242.099c0-2.209,1.791-4,4-4h23c2.209,0,4,1.791,4,4v17c0,2.209-1.791,4-4,4h-23
		c-2.209,0-4-1.791-4-4V242.099z M107,197.099c0-2.209,1.791-4,4-4h23c2.209,0,4,1.791,4,4v17c0,2.209-1.791,4-4,4h-23
		c-2.209,0-4-1.791-4-4V197.099z M107,242.099c0-2.209,1.791-4,4-4h23c2.209,0,4,1.791,4,4v17c0,2.209-1.791,4-4,4h-23
		c-2.209,0-4-1.791-4-4V242.099z M76,304.099c0,2.209-1.791,4-4,4H49c-2.209,0-4-1.791-4-4v-17c0-2.209,1.791-4,4-4h23
		c2.209,0,4,1.791,4,4V304.099z M76,259.099c0,2.209-1.791,4-4,4H49c-2.209,0-4-1.791-4-4v-17c0-2.209,1.791-4,4-4h23
		c2.209,0,4,1.791,4,4V259.099z M76,214.099c0,2.209-1.791,4-4,4H49c-2.209,0-4-1.791-4-4v-17c0-2.209,1.791-4,4-4h23
		c2.209,0,4,1.791,4,4V214.099z M260,304.099c0,2.209-1.791,4-4,4H111c-2.209,0-4-1.791-4-4v-17c0-2.209,1.791-4,4-4h145
		c2.209,0,4,1.791,4,4V304.099z M260,259.099c0,2.209-1.791,4-4,4h-23c-2.209,0-4-1.791-4-4v-17c0-2.209,1.791-4,4-4h23
		c2.209,0,4,1.791,4,4V259.099z M260,214.099c0,2.209-1.791,4-4,4h-23c-2.209,0-4-1.791-4-4v-17c0-2.209,1.791-4,4-4h23
		c2.209,0,4,1.791,4,4V214.099z M322,304.099c0,2.209-1.791,4-4,4h-23c-2.209,0-4-1.791-4-4v-17c0-2.209,1.791-4,4-4h23
		c2.209,0,4,1.791,4,4V304.099z M322,259.099c0,2.209-1.791,4-4,4h-23c-2.209,0-4-1.791-4-4v-17c0-2.209,1.791-4,4-4h23
		c2.209,0,4,1.791,4,4V259.099z M322,214.099c0,2.209-1.791,4-4,4h-23c-2.209,0-4-1.791-4-4v-17c0-2.209,1.791-4,4-4h23
		c2.209,0,4,1.791,4,4V214.099z"/>
</g>
<g>
</g>
<g>
</g>
<g>
</g>
<g>
</g>
<g>
</g>
<g>
</g>
<g>
</g>
<g>
</g>
<g>
</g>
<g>
</g>
<g>
</g>
<g>
</g>
<g>
</g>
<g>
</g>
<g>
</g>
</svg>
