<?xml version="1.0" encoding="iso-8859-1"?>
<!-- Generator: Adobe Illustrator 17.1.0, SVG Export Plug-In . SVG Version: 6.00 Build 0)  -->
<!DOCTYPE svg PUBLIC "-//W3C//DTD SVG 1.1//EN" "http://www.w3.org/Graphics/SVG/1.1/DTD/svg11.dtd">
<svg version="1.1" id="Capa_1" xmlns="http://www.w3.org/2000/svg" xmlns:xlink="http://www.w3.org/1999/xlink" x="0px" y="0px"
	 viewBox="0 0 367 367" style="enable-background:new 0 0 367 367;" xml:space="preserve">
<path d="M346.528,150.978H198v-60h29.649c13.864,0,28.95-9.48,35.094-21.91L279.699,34.7c3.67-7.427,0.624-16.45-6.803-20.12
	c-7.43-3.671-16.424-0.637-20.094,6.789l-16.955,34.415c-1.13,2.285-5.65,5.194-8.198,5.194h-29.163
	C181.944,60.978,168,74.221,168,90.763v60.215H20.444C9.416,150.978,0,160.204,0,171.232V334c0,11.028,9.416,19.978,20.444,19.978
	h326.085c11.028,0,20.472-8.951,20.472-19.978V171.232C367,160.204,357.557,150.978,346.528,150.978z M199,225.978
	c0,2.209-1.791,4-4,4h-23c-2.209,0-4-1.791-4-4v-17c0-2.209,1.791-4,4-4h23c2.209,0,4,1.791,4,4V225.978z M199,270.978
	c0,2.209-1.791,4-4,4h-23c-2.209,0-4-1.791-4-4v-17c0-2.209,1.791-4,4-4h23c2.209,0,4,1.791,4,4V270.978z M138,225.978
	c0,2.209-1.791,4-4,4h-23c-2.209,0-4-1.791-4-4v-17c0-2.209,1.791-4,4-4h23c2.209,0,4,1.791,4,4V225.978z M76,315.978
	c0,2.209-1.791,4-4,4H49c-2.209,0-4-1.791-4-4v-17c0-2.209,1.791-4,4-4h23c2.209,0,4,1.791,4,4V315.978z M76,270.978
	c0,2.209-1.791,4-4,4H49c-2.209,0-4-1.791-4-4v-17c0-2.209,1.791-4,4-4h23c2.209,0,4,1.791,4,4V270.978z M76,225.978
	c0,2.209-1.791,4-4,4H49c-2.209,0-4-1.791-4-4v-17c0-2.209,1.791-4,4-4h23c2.209,0,4,1.791,4,4V225.978z M138,270.978
	c0,2.209-1.791,4-4,4h-23c-2.209,0-4-1.791-4-4v-17c0-2.209,1.791-4,4-4h23c2.209,0,4,1.791,4,4V270.978z M260,315.978
	c0,2.209-1.791,4-4,4H111c-2.209,0-4-1.791-4-4v-17c0-2.209,1.791-4,4-4h145c2.209,0,4,1.791,4,4V315.978z M260,270.978
	c0,2.209-1.791,4-4,4h-23c-2.209,0-4-1.791-4-4v-17c0-2.209,1.791-4,4-4h23c2.209,0,4,1.791,4,4V270.978z M260,225.978
	c0,2.209-1.791,4-4,4h-23c-2.209,0-4-1.791-4-4v-17c0-2.209,1.791-4,4-4h23c2.209,0,4,1.791,4,4V225.978z M322,315.978
	c0,2.209-1.791,4-4,4h-23c-2.209,0-4-1.791-4-4v-17c0-2.209,1.791-4,4-4h23c2.209,0,4,1.791,4,4V315.978z M322,270.978
	c0,2.209-1.791,4-4,4h-23c-2.209,0-4-1.791-4-4v-17c0-2.209,1.791-4,4-4h23c2.209,0,4,1.791,4,4V270.978z M322,225.978
	c0,2.209-1.791,4-4,4h-23c-2.209,0-4-1.791-4-4v-17c0-2.209,1.791-4,4-4h23c2.209,0,4,1.791,4,4V225.978z"/>
<g>
</g>
<g>
</g>
<g>
</g>
<g>
</g>
<g>
</g>
<g>
</g>
<g>
</g>
<g>
</g>
<g>
</g>
<g>
</g>
<g>
</g>
<g>
</g>
<g>
</g>
<g>
</g>
<g>
</g>
</svg>
