<?xml version="1.0" encoding="iso-8859-1"?>
<!-- Generator: Adobe Illustrator 17.1.0, SVG Export Plug-In . SVG Version: 6.00 Build 0)  -->
<!DOCTYPE svg PUBLIC "-//W3C//DTD SVG 1.1//EN" "http://www.w3.org/Graphics/SVG/1.1/DTD/svg11.dtd">
<svg version="1.1" id="Capa_1" xmlns="http://www.w3.org/2000/svg" xmlns:xlink="http://www.w3.org/1999/xlink" x="0px" y="0px"
	 viewBox="0 0 352.718 352.718" style="enable-background:new 0 0 352.718 352.718;" xml:space="preserve">
<g>
	<path d="M154.677,234.106c15.524,17.733,19.319,17.733,21.358,17.733c2.08,0,5.95,0,21.499-17.73
		c9.63-10.979,20.358-24.967,30.207-39.384c15.455-22.62,41.381-64.942,41.381-94.244c0-51.329-41.759-93.088-93.087-93.088
		c-51.329,0-93.088,41.759-93.088,93.088c0,29.246,26.009,71.603,41.512,94.248C134.299,209.102,145.031,223.086,154.677,234.106z
		 M176.035,45.499c28.616,0,51.897,23.281,51.897,51.898s-23.281,51.897-51.897,51.897c-28.617,0-51.899-23.281-51.899-51.897
		S147.418,45.499,176.035,45.499z"/>
	<path d="M352.322,321.191l-22.629-96.794c-2.358-12.387-14.235-22.071-27.095-22.071h-41.713c-4.676,0-8.443,1.85-10.897,5.351
		c-11.579,16.538-24.364,32.953-35.998,46.222c-18.268,20.83-27.511,27.517-38.036,27.517c-10.357,0-19.558-6.712-37.862-27.621
		c-12.069-13.787-24.525-29.738-36.021-46.131l-0.121-0.175c-0.968-1.412-3.541-5.162-10.095-5.162H50.119
		c-12.847,0-24.723,9.737-27.094,22.191L0.443,321.084l-0.048,0.229c-1.167,6.304,0.272,12.278,4.053,16.823
		c3.856,4.637,9.619,7.19,16.225,7.19h311.372c6.573,0,12.321-2.558,16.184-7.202C352.042,333.539,353.496,327.526,352.322,321.191z
		"/>
</g>
<g>
</g>
<g>
</g>
<g>
</g>
<g>
</g>
<g>
</g>
<g>
</g>
<g>
</g>
<g>
</g>
<g>
</g>
<g>
</g>
<g>
</g>
<g>
</g>
<g>
</g>
<g>
</g>
<g>
</g>
</svg>
