<?xml version="1.0" encoding="iso-8859-1"?>
<!-- Generator: Adobe Illustrator 17.1.0, SVG Export Plug-In . SVG Version: 6.00 Build 0)  -->
<!DOCTYPE svg PUBLIC "-//W3C//DTD SVG 1.1//EN" "http://www.w3.org/Graphics/SVG/1.1/DTD/svg11.dtd">
<svg version="1.1" id="Capa_1" xmlns="http://www.w3.org/2000/svg" xmlns:xlink="http://www.w3.org/1999/xlink" x="0px" y="0px"
	 viewBox="0 0 334 334" style="enable-background:new 0 0 334 334;" xml:space="preserve">
<path d="M273.416,120H268v-17.125C268,46.149,221.851,0,165.125,0h-0.25C108.149,0,62,46.149,62,102.875V120h-0.985
	C51.333,120,47,125.745,47,131.439v191.669C47,329.114,52.418,334,59.078,334h216.274c6.531,0,11.648-4.784,11.648-10.892V131.439
	C287,126.162,283.442,120,273.416,120z M189.767,213.736l-0.234,0.005c-2.951,0.139-8.532,2.694-8.532,11.374v19.76
	c0,7.768-5.93,13.852-13.5,13.852c-7.57,0-13.5-6.084-13.5-13.852v-19.76c0-7.643-5.852-10.601-8.947-11.166l-0.446,0.05h-0.453
	c-7.647,0-13.637-6.004-13.637-13.5s5.963-13.5,13.576-13.5h45.719c7.617,0,13.584,5.872,13.584,13.368
	C203.396,207.864,197.409,213.736,189.767,213.736z M97,102.875C97,65.449,127.449,35,164.875,35h0.25
	C202.551,35,233,65.449,233,102.875V120H97V102.875z"/>
<g>
</g>
<g>
</g>
<g>
</g>
<g>
</g>
<g>
</g>
<g>
</g>
<g>
</g>
<g>
</g>
<g>
</g>
<g>
</g>
<g>
</g>
<g>
</g>
<g>
</g>
<g>
</g>
<g>
</g>
</svg>
