<?xml version="1.0" encoding="iso-8859-1"?>
<!-- Generator: Adobe Illustrator 17.1.0, SVG Export Plug-In . SVG Version: 6.00 Build 0)  -->
<!DOCTYPE svg PUBLIC "-//W3C//DTD SVG 1.1//EN" "http://www.w3.org/Graphics/SVG/1.1/DTD/svg11.dtd">
<svg version="1.1" id="Capa_1" xmlns="http://www.w3.org/2000/svg" xmlns:xlink="http://www.w3.org/1999/xlink" x="0px" y="0px"
	 viewBox="0 0 338 338" style="enable-background:new 0 0 338 338;" xml:space="preserve">
<g>
	<path d="M223.771,240.924c-7.187,0-12.817,5.905-12.817,13.442c0,7.48,5.676,13.338,12.921,13.338
		c7.366,0,12.712-5.609,12.712-13.338C236.588,246.577,231.198,240.924,223.771,240.924z"/>
	<path d="M212.733,223.385c0.251,4.816,4.379,8.615,9.202,8.615h3.674c4.814,0,8.947-3.792,9.214-8.597l1.223-21.894
		c0.135-2.413-0.732-4.913-2.377-6.653c-1.646-1.74-3.975-2.856-6.392-2.856h-6.904c-2.414,0-4.743,1.143-6.39,2.879
		c-1.648,1.736-2.52,4.128-2.395,6.538L212.733,223.385z"/>
	<path d="M308.074,229.398c0-43.046-32.437-78.636-74.148-83.669V57.772c0-13.659-11.211-24.772-24.991-24.772h-24.009V10
		c0-5.514-4.486-10-10-10h-87c-5.514,0-10,4.486-10,10v23H54.561c-13.814,0-24.636,10.881-24.636,24.772v254.865
		c0,13.985,11.052,25.363,24.636,25.363h154.373c13.637,0,24.751-11.145,24.98-24.931
		C275.631,308.041,308.074,272.448,308.074,229.398z M223.771,279.044c-27.375,0-49.646-22.271-49.646-49.646
		c0-27.375,22.271-49.646,49.646-49.646s49.645,22.271,49.645,49.646C273.417,256.773,251.146,279.044,223.771,279.044z M203.926,63
		v84.477c-35.615,8.629-62.474,39.919-64.35,77.692c-30.582,0.029-61.809,0.108-79.65,0.159V63H203.926z"/>
</g>
<g>
</g>
<g>
</g>
<g>
</g>
<g>
</g>
<g>
</g>
<g>
</g>
<g>
</g>
<g>
</g>
<g>
</g>
<g>
</g>
<g>
</g>
<g>
</g>
<g>
</g>
<g>
</g>
<g>
</g>
</svg>
