<?xml version="1.0" encoding="iso-8859-1"?>
<!-- Generator: Adobe Illustrator 17.1.0, SVG Export Plug-In . SVG Version: 6.00 Build 0)  -->
<!DOCTYPE svg PUBLIC "-//W3C//DTD SVG 1.1//EN" "http://www.w3.org/Graphics/SVG/1.1/DTD/svg11.dtd">
<svg version="1.1" id="Capa_1" xmlns="http://www.w3.org/2000/svg" xmlns:xlink="http://www.w3.org/1999/xlink" x="0px" y="0px"
	 viewBox="0 0 322.578 322.578" style="enable-background:new 0 0 322.578 322.578;" xml:space="preserve">
<g>
	<path d="M161.289,76.68c-46.653,0-84.609,37.956-84.609,84.609s37.956,84.608,84.609,84.608c46.653,0,84.608-37.955,84.608-84.608
		S207.942,76.68,161.289,76.68z"/>
	<path d="M161.289,53.406c14.725,0,26.703-11.979,26.703-26.703S176.014,0,161.289,0c-14.725,0-26.703,11.979-26.703,26.703
		S146.564,53.406,161.289,53.406z"/>
	<path d="M161.289,269.172c-14.725,0-26.703,11.978-26.703,26.703s11.979,26.703,26.703,26.703
		c14.725,0,26.703-11.979,26.703-26.703S176.014,269.172,161.289,269.172z"/>
	<path d="M295.875,134.586c-14.725,0-26.703,11.979-26.703,26.703c0,14.725,11.979,26.703,26.703,26.703
		c14.725,0,26.703-11.979,26.703-26.703C322.578,146.564,310.6,134.586,295.875,134.586z"/>
	<path d="M53.406,161.289c0-14.725-11.979-26.703-26.703-26.703S0,146.564,0,161.289c0,14.725,11.979,26.703,26.703,26.703
		S53.406,176.014,53.406,161.289z"/>
	<path d="M66.122,92.825c7.132,0,13.838-2.777,18.882-7.821c5.037-5.036,7.812-11.742,7.812-18.882
		c0-7.14-2.774-13.846-7.812-18.883c-5.044-5.043-11.75-7.82-18.882-7.82c-7.132,0-13.838,2.777-18.882,7.821
		c-5.037,5.036-7.812,11.742-7.812,18.882c0,7.14,2.774,13.846,7.812,18.883C52.284,90.048,58.99,92.825,66.122,92.825z"/>
	<path d="M256.456,229.753c-7.132,0-13.838,2.777-18.882,7.821c-5.037,5.036-7.811,11.742-7.811,18.882
		c0,7.14,2.774,13.846,7.811,18.883c5.044,5.043,11.75,7.82,18.882,7.82c7.132,0,13.838-2.777,18.882-7.821
		c5.037-5.036,7.811-11.742,7.811-18.882c0-7.14-2.774-13.846-7.811-18.883C270.294,232.53,263.588,229.753,256.456,229.753z"/>
	<path d="M256.456,92.825c7.132,0,13.838-2.777,18.882-7.821c5.037-5.036,7.811-11.742,7.811-18.882
		c0-7.14-2.774-13.846-7.811-18.883c-5.044-5.043-11.75-7.82-18.882-7.82c-7.132,0-13.838,2.777-18.882,7.821
		c-5.037,5.036-7.811,11.742-7.811,18.882c0,7.14,2.774,13.846,7.811,18.883C242.618,90.048,249.324,92.825,256.456,92.825z"/>
	<path d="M66.122,229.753c-7.132,0-13.838,2.777-18.882,7.821c-5.037,5.036-7.812,11.742-7.812,18.882
		c0,7.14,2.774,13.846,7.812,18.883c5.044,5.043,11.75,7.82,18.882,7.82c7.132,0,13.838-2.777,18.882-7.821
		c5.037-5.036,7.812-11.742,7.812-18.882c0-7.14-2.774-13.846-7.812-18.883C79.96,232.53,73.254,229.753,66.122,229.753z"/>
</g>
<g>
</g>
<g>
</g>
<g>
</g>
<g>
</g>
<g>
</g>
<g>
</g>
<g>
</g>
<g>
</g>
<g>
</g>
<g>
</g>
<g>
</g>
<g>
</g>
<g>
</g>
<g>
</g>
<g>
</g>
</svg>
