<?xml version="1.0" encoding="iso-8859-1"?>
<!-- Generator: Adobe Illustrator 17.1.0, SVG Export Plug-In . SVG Version: 6.00 Build 0)  -->
<!DOCTYPE svg PUBLIC "-//W3C//DTD SVG 1.1//EN" "http://www.w3.org/Graphics/SVG/1.1/DTD/svg11.dtd">
<svg version="1.1" id="Capa_1" xmlns="http://www.w3.org/2000/svg" xmlns:xlink="http://www.w3.org/1999/xlink" x="0px" y="0px"
	 viewBox="0 0 329 329" style="enable-background:new 0 0 329 329;" xml:space="preserve">
<g>
	<path d="M312.515,239h-13.606c-0.117-0.005-0.271-0.01-0.455-0.01c-5.565,0-9.453,3.678-9.453,8.944v59.298
		c0,5.448,4.732,8.354,9.129,8.748l14.386,0.02c9.09,0,16.485-7.314,16.485-16.303v-44.793C329,246.135,321.604,239,312.515,239z"/>
	<path d="M312.515,131h-13.679c-0.05-0.001-0.111-0.002-0.185-0.002c-4.796,0-9.651,3.132-9.651,9.118v49.543
		c0,5.11,4.281,8.317,8.524,9.229l0.52,0.112h14.471c8.936,0,16.485-7.728,16.485-16.876v-35.038
		C329,138.216,321.604,131,312.515,131z"/>
	<path d="M312.515,16h-13.752l-0.143,0.002c-4.781,0.137-9.62,3.433-9.62,9.467V81.84c0,5.193,4.517,8.349,8.712,9.084L298.141,91
		h14.374C321.45,91,329,83.354,329,74.305V32.438C329,23.528,321.45,16,312.515,16z"/>
	<path d="M116.552,172.425c0,4.151,1.128,11.116,8.681,11.116c6.877,0,14.112-9.189,15.8-20.065l2.643-17.928
		c-1.276-0.262-2.79-0.472-4.645-0.472C126.637,145.077,116.552,157.346,116.552,172.425z"/>
	<path d="M244,13H20C8.972,13,0,21.972,0,33v263c0,11.028,8.972,20,20,20h224c11.028,0,20-8.972,20-20V33
		C264,21.972,255.028,13,244,13z M161.552,202.7c-9.817,0-16.362-4.921-18.376-13.639c-6.394,8.938-15.205,13.639-25.652,13.639
		c-14.694,0-24.188-10.928-24.188-27.84c0-23.627,17.152-48.738,48.941-48.738c6.974,0,14.931,1.319,20.766,3.441
		c4.585,1.668,4.068,7.854,4.043,8.117l-0.012,0.1l-5.295,32.648c-1.314,7.753-1.122,12.534,0.581,14.625
		c0.698,0.857,1.683,1.28,3.101,1.331l0.182,0.002c7.467,0,17.983-10.185,17.983-32.829c0-27.583-18.46-45.407-47.029-45.407
		c-28.211,0-56.769,21.172-56.769,61.638c0,31.404,19.814,51.696,50.478,51.696c8.383,0,16.861-1.471,23.871-4.144l0.315-0.123
		c0.829-0.325,1.963-0.771,3.186-0.771c1.507,0,3.564,0.688,4.804,3.965l1.213,3.9c0.461,1.455,1.025,5.062-3.726,6.943
		c-10.302,4.074-20.071,5.736-33.722,5.736c-32.186,0-64.768-22.456-64.768-65.376c0-44.904,33.252-78.767,77.347-78.767
		c36.354,0,62.739,25.276,62.739,60.101C201.567,182.241,185.112,202.7,161.552,202.7z"/>
</g>
<g>
</g>
<g>
</g>
<g>
</g>
<g>
</g>
<g>
</g>
<g>
</g>
<g>
</g>
<g>
</g>
<g>
</g>
<g>
</g>
<g>
</g>
<g>
</g>
<g>
</g>
<g>
</g>
<g>
</g>
</svg>
