<?xml version="1.0" encoding="iso-8859-1"?>
<!-- Generator: Adobe Illustrator 17.1.0, SVG Export Plug-In . SVG Version: 6.00 Build 0)  -->
<!DOCTYPE svg PUBLIC "-//W3C//DTD SVG 1.1//EN" "http://www.w3.org/Graphics/SVG/1.1/DTD/svg11.dtd">
<svg version="1.1" id="Capa_1" xmlns="http://www.w3.org/2000/svg" xmlns:xlink="http://www.w3.org/1999/xlink" x="0px" y="0px"
	 viewBox="0 0 338 338" style="enable-background:new 0 0 338 338;" xml:space="preserve">
<g>
	<path d="M90.297,28.448c-0.801,0-1.614,0.119-2.419,0.353L7.244,52.322C3.046,53.544,0,57.716,0,62.241v213.519
		c0,4.581,3.276,8.035,7.621,8.035c0.796,0,1.606-0.119,2.413-0.354l80.544-23.52c4.231-1.232,7.422-5.497,7.422-9.919V36.482
		C98,31.902,94.688,28.448,90.297,28.448z"/>
	<path d="M212.227,77.667l-81.363-47.491c-1.316-0.767-2.675-1.155-4.039-1.155c-3.392,0-6.826,2.563-6.826,7.462v213.519
		c0,4.038,2.43,8.385,5.772,10.332l81.363,47.492c1.316,0.766,2.675,1.155,4.038,1.155c3.393,0,6.826-2.563,6.826-7.462V87.998
		C218,83.96,215.57,79.613,212.227,77.667z"/>
	<path d="M330.38,54.206c-0.797,0-1.607,0.119-2.413,0.354l-80.545,23.52C243.19,79.313,240,83.577,240,87.998v213.519
		c0,4.581,3.311,8.034,7.703,8.034c0.801,0,1.614-0.119,2.419-0.353l80.634-23.521c4.197-1.223,7.244-5.394,7.244-9.919V62.241
		C338,57.66,334.724,54.206,330.38,54.206z"/>
</g>
<g>
</g>
<g>
</g>
<g>
</g>
<g>
</g>
<g>
</g>
<g>
</g>
<g>
</g>
<g>
</g>
<g>
</g>
<g>
</g>
<g>
</g>
<g>
</g>
<g>
</g>
<g>
</g>
<g>
</g>
</svg>
