<?xml version="1.0" encoding="iso-8859-1"?>
<!-- Generator: Adobe Illustrator 17.1.0, SVG Export Plug-In . SVG Version: 6.00 Build 0)  -->
<!DOCTYPE svg PUBLIC "-//W3C//DTD SVG 1.1//EN" "http://www.w3.org/Graphics/SVG/1.1/DTD/svg11.dtd">
<svg version="1.1" id="Capa_1" xmlns="http://www.w3.org/2000/svg" xmlns:xlink="http://www.w3.org/1999/xlink" x="0px" y="0px"
	 viewBox="0 0 348 348" style="enable-background:new 0 0 348 348;" xml:space="preserve">
<path d="M317.334,179.039c-2.941-46.493-41.706-82.912-88.251-82.912c-1.877,0-3.781,0.061-5.661,0.18
	c-8.939,0.565-17.486,2.451-25.468,5.447V49.576C197.954,23.166,172.676,0,143.859,0h-3.188c-28.616,0-53.717,23.166-53.717,49.576
	v100.847c0,26.41,25.102,49.577,53.717,49.577h1.205c1.936,10.99,5.884,21.267,11.458,30.44c-3.023,0.357-6.046,0.56-9.038,0.56
	h-4.063c-19.638,0-39.502-7.608-54.5-20.875C69.689,195.936,60.487,176.572,60.487,157c0-8.284-6.716-15-15-15
	c-8.284,0-15,6.716-15,15c0,28.162,12.892,55.716,35.371,75.597c17.041,15.074,38.756,24.773,61.096,27.564v58.909
	c0,2.626-2.504,4.93-5.359,4.93H87.747c-8.271,0-15,5.383-15,12s6.729,12,15,12h109.035c8.271,0,15-5.383,15-12s-6.729-12-15-12
	h-33.848c-2.746,0-4.98-2.212-4.98-4.93v-58.939c6.362-0.808,12.659-2.181,18.857-4.111c14.671,10.759,32.718,17.111,52.13,17.111
	c1.877,0,3.781-0.061,5.66-0.18C283.303,269.869,320.416,227.74,317.334,179.039z M225.316,126.246
	c1.252-0.079,2.52-0.119,3.767-0.119c11.825,0,22.881,3.57,32.133,9.698l-81.013,81.013c-5.467-8.26-8.908-17.996-9.574-28.514
	C168.592,156.132,193.125,128.283,225.316,126.246z M232.707,243.012c-1.251,0.079-2.518,0.119-3.766,0.119
	c-9.432,0-18.375-2.273-26.306-6.299l78.57-78.57c3.487,6.878,5.674,14.538,6.189,22.672
	C289.432,213.126,264.898,240.974,232.707,243.012z"/>
<g>
</g>
<g>
</g>
<g>
</g>
<g>
</g>
<g>
</g>
<g>
</g>
<g>
</g>
<g>
</g>
<g>
</g>
<g>
</g>
<g>
</g>
<g>
</g>
<g>
</g>
<g>
</g>
<g>
</g>
</svg>
