<?xml version="1.0" encoding="iso-8859-1"?>
<!-- Generator: Adobe Illustrator 17.1.0, SVG Export Plug-In . SVG Version: 6.00 Build 0)  -->
<!DOCTYPE svg PUBLIC "-//W3C//DTD SVG 1.1//EN" "http://www.w3.org/Graphics/SVG/1.1/DTD/svg11.dtd">
<svg version="1.1" id="Capa_1" xmlns="http://www.w3.org/2000/svg" xmlns:xlink="http://www.w3.org/1999/xlink" x="0px" y="0px"
	 viewBox="0 0 386.007 386.007" style="enable-background:new 0 0 386.007 386.007;" xml:space="preserve">
<g>
	<path style="fill:#000001;" d="M243.883,33.542c-13.597-12.026-31.303-19.038-48.73-19.038h-4.297
		c-17.428,0-35.135,7.012-48.731,19.038c-14.32,12.666-22.121,29.26-22.121,46.515v109c0,17.256,7.8,33.734,22.12,46.401
		c9.992,8.837,22.166,14.892,34.88,17.488v89.627c0,2.811-2.008,4.93-4.67,4.93h-33.848c-8.271,0-15,5.383-15,12s6.729,12,15,12
		h109.035c8.271,0,15-5.383,15-12s-6.729-12-15-12h-33.848c-2.662,0-4.67-2.119-4.67-4.93v-89.627
		c12.714-2.596,24.888-8.651,34.88-17.488c14.319-12.667,22.12-29.146,22.12-46.401v-109
		C266.003,62.802,258.203,46.208,243.883,33.542z"/>
	<path style="fill:#000001;" d="M370.1,76.531c-4.531-6.937-13.825-8.887-20.761-4.357c-6.936,4.529-8.888,13.825-4.358,20.761
		c6.596,10.099,11.026,27.133,11.026,42.387c0,15.392-4.511,32.549-11.224,42.693c-4.572,6.909-2.678,16.215,4.23,20.787
		c2.548,1.687,5.422,2.493,8.265,2.493c4.864,0,9.637-2.363,12.523-6.723c9.996-15.105,16.206-37.808,16.206-59.249
		C386.007,114.084,379.912,91.557,370.1,76.531z"/>
	<path style="fill:#000001;" d="M305.949,90.357c-6.937,4.529-8.888,13.824-4.358,20.76c3.27,5.008,5.831,15.672,5.831,24.278
		c0,8.676-2.607,19.409-5.934,24.435c-4.572,6.907-2.681,16.214,4.228,20.788c2.549,1.688,5.423,2.494,8.267,2.494
		c4.863,0,9.635-2.362,12.521-6.721c8.059-12.173,10.918-29.691,10.918-40.995c0-11.198-2.806-28.57-10.712-40.679
		C322.179,87.778,312.883,85.828,305.949,90.357z"/>
	<path style="fill:#000001;" d="M36.992,72.224c-6.909-4.573-16.215-2.677-20.787,4.231C6.209,91.56,0,114.263,0,135.705
		c0,21.237,6.095,43.764,15.908,58.789c2.877,4.406,7.676,6.8,12.573,6.8c2.812,0,5.657-0.79,8.188-2.443
		c6.936-4.529,8.887-13.825,4.357-20.761C34.431,167.992,30,150.958,30,135.705c0-15.392,4.51-32.549,11.223-42.694
		C45.795,86.102,43.901,76.796,36.992,72.224z"/>
	<path style="fill:#000001;" d="M80.292,90.409c-6.906-4.573-16.214-2.682-20.788,4.226c-8.06,12.172-10.919,29.691-10.919,40.996
		c0,11.198,2.806,28.572,10.712,40.68c2.877,4.406,7.677,6.801,12.574,6.801c2.812,0,5.657-0.79,8.187-2.442
		c6.936-4.53,8.888-13.825,4.358-20.761c-3.27-5.007-5.831-15.671-5.831-24.277c0-8.677,2.606-19.409,5.933-24.434
		C89.092,104.29,87.2,94.983,80.292,90.409z"/>
</g>
<g>
</g>
<g>
</g>
<g>
</g>
<g>
</g>
<g>
</g>
<g>
</g>
<g>
</g>
<g>
</g>
<g>
</g>
<g>
</g>
<g>
</g>
<g>
</g>
<g>
</g>
<g>
</g>
<g>
</g>
</svg>
