<?xml version="1.0" encoding="iso-8859-1"?>
<!-- Generator: Adobe Illustrator 17.1.0, SVG Export Plug-In . SVG Version: 6.00 Build 0)  -->
<!DOCTYPE svg PUBLIC "-//W3C//DTD SVG 1.1//EN" "http://www.w3.org/Graphics/SVG/1.1/DTD/svg11.dtd">
<svg version="1.1" id="Capa_1" xmlns="http://www.w3.org/2000/svg" xmlns:xlink="http://www.w3.org/1999/xlink" x="0px" y="0px"
	 viewBox="0 0 349.471 349.471" style="enable-background:new 0 0 349.471 349.471;" xml:space="preserve">
<g>
	<path d="M284.651,186.671h-7.547c-0.159,0-0.336-0.069-0.453-0.144v-7.856c0-5.607-4.193-10-9.547-10h-1.28
		c-5.515,0-10.173,4.579-10.173,10l-0.003,8h-7.997c-5.42,0-10,4.658-10,10.173v1.28c0,5.354,4.393,9.547,10,9.547h7.857
		c0.074,0.117,0.143,0.295,0.143,0.453v7.547c0,5.421,4.659,10,10.173,10h1.28c5.353,0,9.547-4.393,9.547-10v-7.456
		c0.079-0.186,0.357-0.466,0.544-0.544h7.456c5.607,0,10-4.193,10-9.547v-1.28C294.651,191.33,290.071,186.671,284.651,186.671z"/>
	<path d="M41.753,109.956c25.263,8.711,58.752,13.509,94.296,13.509s69.033-4.798,94.296-13.509
		c26.925-9.285,41.753-22.312,41.753-36.681c0-14.369-14.828-27.397-41.753-36.681c-25.263-8.711-58.751-13.509-94.296-13.509
		c-35.545,0-69.034,4.798-94.296,13.509C14.828,45.878,0,58.906,0,73.275C0,87.644,14.828,100.67,41.753,109.956z"/>
	<path d="M349.471,197.07c0-45.201-36.773-81.975-81.974-81.975c-25.683,0-48.634,11.881-63.676,30.426
		c-20.923,3.819-43.989,5.816-67.771,5.816c-38.961,0-75.986-5.368-104.255-15.116c-8.412-2.901-10.375-3.707-13.172-5.14
		c-3.002-1.57-5.798-2.366-8.309-2.366c-5.441,0-8.784,3.641-9.682,7.25C0.212,137.647,0,139.364,0,141.066
		c0,14.369,14.829,27.396,41.753,36.681c25.263,8.711,58.751,13.509,94.296,13.509c17.209,0,34.189-1.157,50.001-3.37
		c-0.338,3.017-0.528,6.079-0.528,9.185c0,6.227,0.721,12.286,2.043,18.119c-16.464,2.176-33.724,3.282-51.516,3.282
		c-38.959,0-75.984-5.369-104.256-15.117c-8.41-2.9-10.374-3.706-13.171-5.139c-3.002-1.57-5.798-2.367-8.31-2.367
		c-5.441,0-8.784,3.642-9.682,7.251C0.212,204.781,0,206.497,0,208.199c0,14.369,14.829,27.396,41.753,36.682
		c25.263,8.711,58.752,13.509,94.296,13.509c24.825,0,49.204-2.427,70.198-6.918c8.147,9.163,18.306,16.494,29.786,21.284
		c-27.681,8.852-62.95,13.712-99.984,13.712c-38.959,0-75.984-5.369-104.255-15.117c-8.411-2.901-10.375-3.707-13.172-5.139
		c-3.002-1.57-5.798-2.367-8.31-2.367c-5.441,0-8.783,3.641-9.682,7.25C0.212,272.777,0,274.494,0,276.196
		c0,14.369,14.828,27.396,41.753,36.681c25.263,8.711,58.752,13.509,94.296,13.509s69.033-4.798,94.296-13.509
		c25.212-8.694,39.816-20.669,41.573-33.955C315.07,276.616,349.471,240.787,349.471,197.07z M267.497,249.044
		c-28.659,0-51.974-23.315-51.974-51.975c0-28.659,23.315-51.975,51.974-51.975c28.659,0,51.974,23.316,51.974,51.975
		C319.471,225.729,296.155,249.044,267.497,249.044z"/>
</g>
<g>
</g>
<g>
</g>
<g>
</g>
<g>
</g>
<g>
</g>
<g>
</g>
<g>
</g>
<g>
</g>
<g>
</g>
<g>
</g>
<g>
</g>
<g>
</g>
<g>
</g>
<g>
</g>
<g>
</g>
</svg>
