<?xml version="1.0" encoding="iso-8859-1"?>
<!-- Generator: Adobe Illustrator 17.1.0, SVG Export Plug-In . SVG Version: 6.00 Build 0)  -->
<!DOCTYPE svg PUBLIC "-//W3C//DTD SVG 1.1//EN" "http://www.w3.org/Graphics/SVG/1.1/DTD/svg11.dtd">
<svg version="1.1" id="Capa_1" xmlns="http://www.w3.org/2000/svg" xmlns:xlink="http://www.w3.org/1999/xlink" x="0px" y="0px"
	 viewBox="0 0 369.198 369.198" style="enable-background:new 0 0 369.198 369.198;" xml:space="preserve">
<g>
	<path style="fill:#000001;" d="M242.366,124.8c-14.474-9.46-34.368-14.602-55.631-14.602h-4.973
		c-21.263,0-40.806,5.142-55.281,14.602c-17.022,11.125-25.882,27.299-25.882,46.901v135.435c0,19.751,7.636,36.148,22.345,47.016
		c13.133,9.705,31.099,15.046,52.215,15.046h18.178c21.117,0,39.433-5.341,52.566-15.046c14.708-10.868,22.696-27.265,22.696-47.016
		V171.701C268.599,152.1,259.389,135.925,242.366,124.8z M203.599,205.198c0,11.598-9.402,21-21,21c-11.598,0-21-9.402-21-21v-39
		c0-11.598,9.402-21,21-21c11.598,0,21,9.402,21,21V205.198z"/>
	<path style="fill:#000001;" d="M132.432,47.845C147.142,36.17,164.842,30,183.619,30c18.978,0,36.823,6.284,51.607,18.172
		c2.771,2.229,6.092,3.312,9.391,3.312c4.387,0,8.735-1.916,11.698-5.6c5.192-6.456,4.167-15.898-2.289-21.089
		C234.144,8.806,209.14,0,183.619,0C158,0,133.851,8.418,113.782,24.346c-6.489,5.15-7.575,14.585-2.425,21.074
		C116.507,51.909,125.943,52.994,132.432,47.845z"/>
	<path style="fill:#000001;" d="M230.586,71.286c-13.236-10.645-29.883-16.507-46.873-16.507c-16.812,0-33.323,5.756-46.491,16.208
		c-6.489,5.15-7.574,14.585-2.424,21.074c5.151,6.489,14.586,7.575,21.074,2.424c8.001-6.35,17.628-9.706,27.841-9.706
		c10.324,0,20.031,3.418,28.071,9.885c2.772,2.229,6.092,3.312,9.392,3.312c4.387,0,8.735-1.916,11.698-5.6
		C238.066,85.92,237.041,76.478,230.586,71.286z"/>
</g>
<g>
</g>
<g>
</g>
<g>
</g>
<g>
</g>
<g>
</g>
<g>
</g>
<g>
</g>
<g>
</g>
<g>
</g>
<g>
</g>
<g>
</g>
<g>
</g>
<g>
</g>
<g>
</g>
<g>
</g>
</svg>
