<?xml version="1.0" encoding="iso-8859-1"?>
<!-- Generator: Adobe Illustrator 17.1.0, SVG Export Plug-In . SVG Version: 6.00 Build 0)  -->
<!DOCTYPE svg PUBLIC "-//W3C//DTD SVG 1.1//EN" "http://www.w3.org/Graphics/SVG/1.1/DTD/svg11.dtd">
<svg version="1.1" id="Capa_1" xmlns="http://www.w3.org/2000/svg" xmlns:xlink="http://www.w3.org/1999/xlink" x="0px" y="0px"
	 viewBox="0 0 346.69 346.69" style="enable-background:new 0 0 346.69 346.69;" xml:space="preserve">
<path d="M310.463,300.784c0.003-0.138,0.021-0.272,0.021-0.41v-200c0-16.51-11.508-33.498-26.764-39.515L135.469,2.332
	c-9.669-3.813-19.745-2.92-27.641,2.455c-7.846,5.339-12.345,14.301-12.345,24.587v169.585c-2.154-0.258-4.365-0.398-6.627-0.398
	c-5.008,0-10.075,0.659-15.062,1.96c-25.523,6.657-42.006,28.493-36.742,48.677c4.132,15.846,20.518,26.493,40.773,26.493
	c5.009,0,10.076-0.659,15.063-1.96c12.13-3.164,22.63-9.81,29.566-18.714c6.112-7.847,8.866-16.65,8.008-25.233
	c0.003-0.138,0.021-0.272,0.021-0.41v-124.59l145,56.525v108.65c-2.154-0.258-4.365-0.398-6.627-0.398
	c-5.008,0-10.075,0.659-15.061,1.96c-25.523,6.657-42.006,28.493-36.742,48.677c4.132,15.846,20.518,26.493,40.772,26.493
	c5.009,0,10.076-0.659,15.063-1.96c12.13-3.164,22.63-9.81,29.566-18.714C308.566,318.17,311.32,309.367,310.463,300.784z
	 M130.484,67.218V37.993l140.39,55.423c1.983,0.781,4.61,4.749,4.61,6.958v23.37L130.484,67.218z"/>
<g>
</g>
<g>
</g>
<g>
</g>
<g>
</g>
<g>
</g>
<g>
</g>
<g>
</g>
<g>
</g>
<g>
</g>
<g>
</g>
<g>
</g>
<g>
</g>
<g>
</g>
<g>
</g>
<g>
</g>
</svg>
