<?xml version="1.0" encoding="iso-8859-1"?>
<!-- Generator: Adobe Illustrator 17.1.0, SVG Export Plug-In . SVG Version: 6.00 Build 0)  -->
<!DOCTYPE svg PUBLIC "-//W3C//DTD SVG 1.1//EN" "http://www.w3.org/Graphics/SVG/1.1/DTD/svg11.dtd">
<svg version="1.1" id="Capa_1" xmlns="http://www.w3.org/2000/svg" xmlns:xlink="http://www.w3.org/1999/xlink" x="0px" y="0px"
	 viewBox="0 0 378.284 378.284" style="enable-background:new 0 0 378.284 378.284;" xml:space="preserve">
<g>
	<path d="M377.981,93.97c-0.037-4.997-3.696-9.779-8.511-11.122l-49.369-13.772c-0.848-0.237-1.702-0.344-2.542-0.345
		c-1.249-0.521-2.583-0.892-3.994-1.06c-8.229-0.982-15.69,4.89-16.673,13.115l-18.311,153.329
		c-6.062-2.077-12.947-3.192-20.408-3.192c-8.614,0-17.366,1.494-26.011,4.439c-14.874,5.068-27.549,13.875-35.689,24.798
		c-8.556,11.481-11.171,23.959-7.364,35.133c5.383,15.8,22.502,25.615,44.676,25.615c8.615,0,17.366-1.494,26.012-4.439
		c26.029-8.869,43.742-28.899,44.659-48.24c0.279-0.883,0.48-1.804,0.594-2.757l16.301-136.498l45.811,12.78
		c0.857,0.239,1.727,0.36,2.584,0.36c2.31,0,4.451-0.876,6.03-2.467c1.635-1.647,2.525-3.921,2.507-6.405L377.981,93.97z"/>
	<path d="M208.518,204.289c10.703-3.647,21.589-5.538,32.354-5.621l0.642-0.002c1.964,0,4.016,0.071,6.1,0.21l4.923,0.33
		l0.396-4.917c0.304-3.757,0.442-7.53,0.415-11.213c-0.26-33.662-13.563-65.255-37.463-88.96
		c-23.886-23.692-55.561-36.74-89.188-36.74l-0.996,0.003c-33.834,0.26-65.542,13.681-89.283,37.79
		C12.675,119.279-0.256,151.19,0.004,185.025c0.259,33.661,13.563,65.253,37.462,88.958c23.886,23.692,55.56,36.74,89.187,36.741
		l0.995-0.004c9.087-0.07,18.169-1.113,26.994-3.102l6.776-1.527l-3.598-5.941c-1.803-2.977-3.27-6.11-4.362-9.314
		c-0.414-1.214-0.78-2.465-1.12-3.826l-0.088-0.309C142.045,254.717,166.761,218.517,208.518,204.289z M126.995,225.713
		l-0.328,0.001c-22.793,0-41.48-18.546-41.656-41.343c-0.086-11.129,4.168-21.625,11.976-29.555
		c7.809-7.93,18.238-12.344,29.367-12.43l0.328-0.001c22.793,0,41.48,18.547,41.656,41.345c0.086,11.128-4.167,21.624-11.976,29.554
		C148.553,221.214,138.124,225.628,126.995,225.713z"/>
</g>
<g>
</g>
<g>
</g>
<g>
</g>
<g>
</g>
<g>
</g>
<g>
</g>
<g>
</g>
<g>
</g>
<g>
</g>
<g>
</g>
<g>
</g>
<g>
</g>
<g>
</g>
<g>
</g>
<g>
</g>
</svg>
