<?xml version="1.0" encoding="iso-8859-1"?>
<!-- Generator: Adobe Illustrator 17.1.0, SVG Export Plug-In . SVG Version: 6.00 Build 0)  -->
<!DOCTYPE svg PUBLIC "-//W3C//DTD SVG 1.1//EN" "http://www.w3.org/Graphics/SVG/1.1/DTD/svg11.dtd">
<svg version="1.1" id="Capa_1" xmlns="http://www.w3.org/2000/svg" xmlns:xlink="http://www.w3.org/1999/xlink" x="0px" y="0px"
	 viewBox="0 0 1137.285 1137.285" style="enable-background:new 0 0 1137.285 1137.285;" xml:space="preserve">
<path d="M155.142,406.5C69.597,406.5,0,476.097,0,561.642s69.597,155.142,155.142,155.142s155.142-69.597,155.142-155.142
	S240.688,406.5,155.142,406.5z M112.142,618.364c0,8.284-6.716,15-15,15c-8.284,0-15-6.716-15-15v-112c0-8.284,6.716-15,15-15
	c8.284,0,15,6.716,15,15V618.364z M248.589,573.689l-79.216,51.987c-10.123,6.629-18.231,2.152-18.231-9.948V507.557
	c0-12.1,8.108-16.577,18.231-9.949l79.302,51.978C258.798,556.214,258.712,567.06,248.589,573.689z"/>
<path d="M982.142,420.5C896.596,420.5,827,490.097,827,575.642s69.597,155.142,155.143,155.142s155.143-69.597,155.143-155.142
	S1067.688,420.5,982.142,420.5z M998.086,587.689l-79.464,51.986c-10.123,6.629-18.479,2.152-18.479-9.948v-108.17
	c0-12.1,8.357-16.577,18.48-9.949l79.426,51.978C1008.171,570.214,1008.208,581.061,998.086,587.689z M1070.142,631.364
	c0,8.284-6.716,15-15,15s-15-6.716-15-15v-114c0-8.284,6.716-15,15-15s15,6.716,15,15V631.364z"/>
<g>
</g>
<g>
</g>
<g>
</g>
<g>
</g>
<g>
</g>
<g>
</g>
<g>
</g>
<g>
</g>
<g>
</g>
<g>
</g>
<g>
</g>
<g>
</g>
<g>
</g>
<g>
</g>
<g>
</g>
</svg>
