<?xml version="1.0" encoding="iso-8859-1"?>
<!-- Generator: Adobe Illustrator 17.1.0, SVG Export Plug-In . SVG Version: 6.00 Build 0)  -->
<!DOCTYPE svg PUBLIC "-//W3C//DTD SVG 1.1//EN" "http://www.w3.org/Graphics/SVG/1.1/DTD/svg11.dtd">
<svg version="1.1" id="Capa_1" xmlns="http://www.w3.org/2000/svg" xmlns:xlink="http://www.w3.org/1999/xlink" x="0px" y="0px"
	 viewBox="0 0 336.264 336.264" style="enable-background:new 0 0 336.264 336.264;" xml:space="preserve">
<path d="M305.25,230.358c0.003-0.138,0.021-0.272,0.021-0.41v-200c0-10.179-4.368-19.165-11.984-24.654
	c-7.592-5.471-17.451-6.773-27.057-3.57L118.615,50.97c-16.159,5.386-28.344,22.143-28.344,38.977v169.585
	c-2.154-0.258-4.365-0.398-6.627-0.398c-5.008,0-10.075,0.659-15.062,1.96c-25.523,6.657-42.006,28.493-36.742,48.677
	c4.132,15.846,20.518,26.493,40.773,26.493c5.009,0,10.076-0.659,15.063-1.96c12.13-3.163,22.63-9.809,29.566-18.714
	c6.112-7.847,8.866-16.65,8.008-25.233c0.003-0.138,0.021-0.272,0.021-0.41V124.426l145-51.176v126.283
	c-2.154-0.258-4.365-0.398-6.627-0.398c-5.008,0-10.075,0.659-15.061,1.96c-25.523,6.657-42.006,28.493-36.742,48.677
	c4.132,15.846,20.518,26.493,40.773,26.493c5.009,0,10.076-0.659,15.063-1.96c12.13-3.163,22.63-9.809,29.566-18.714
	C303.353,247.744,306.107,238.941,305.25,230.358z"/>
<g>
</g>
<g>
</g>
<g>
</g>
<g>
</g>
<g>
</g>
<g>
</g>
<g>
</g>
<g>
</g>
<g>
</g>
<g>
</g>
<g>
</g>
<g>
</g>
<g>
</g>
<g>
</g>
<g>
</g>
</svg>
