<?xml version="1.0" encoding="iso-8859-1"?>
<!-- Generator: Adobe Illustrator 17.1.0, SVG Export Plug-In . SVG Version: 6.00 Build 0)  -->
<!DOCTYPE svg PUBLIC "-//W3C//DTD SVG 1.1//EN" "http://www.w3.org/Graphics/SVG/1.1/DTD/svg11.dtd">
<svg version="1.1" id="Capa_1" xmlns="http://www.w3.org/2000/svg" xmlns:xlink="http://www.w3.org/1999/xlink" x="0px" y="0px"
	 viewBox="0 0 310.35 310.35" style="enable-background:new 0 0 310.35 310.35;" xml:space="preserve">
<path d="M290.143,54.024c-6.74-7.834-14.324-15.04-22.542-21.42C240.128,11.273,207.264,0,172.564,0
	c-48.337,0-93.04,21.875-122.648,60.009c-25.414,32.732-36.56,73.411-31.384,114.526c5.175,41.115,26.052,77.77,58.785,103.183
	c27.467,21.326,60.326,32.631,95.024,32.631c0.004,0,0.007,0,0.011,0c34.043,0,67.591-11.38,94.514-32.03
	c2.638-2.023,8.127-6.263,8.503-12.896c0.242-4.255-1.673-8.409-5.692-12.352l-77.811-89.887l93.306-80.771
	c3.889-2.553,6.554-7.281,7.526-13.377C293.445,64.349,293.224,57.604,290.143,54.024z M125.166,136.637
	c-20.572,0-37.249-16.677-37.249-37.25c0-20.572,16.677-37.249,37.249-37.249s37.249,16.677,37.249,37.249
	C162.416,119.96,145.739,136.637,125.166,136.637z"/>
<g>
</g>
<g>
</g>
<g>
</g>
<g>
</g>
<g>
</g>
<g>
</g>
<g>
</g>
<g>
</g>
<g>
</g>
<g>
</g>
<g>
</g>
<g>
</g>
<g>
</g>
<g>
</g>
<g>
</g>
</svg>
