<?xml version="1.0" encoding="iso-8859-1"?>
<!-- Generator: Adobe Illustrator 17.1.0, SVG Export Plug-In . SVG Version: 6.00 Build 0)  -->
<!DOCTYPE svg PUBLIC "-//W3C//DTD SVG 1.1//EN" "http://www.w3.org/Graphics/SVG/1.1/DTD/svg11.dtd">
<svg version="1.1" id="Capa_1" xmlns="http://www.w3.org/2000/svg" xmlns:xlink="http://www.w3.org/1999/xlink" x="0px" y="0px"
	 viewBox="0 0 323.331 323.331" style="enable-background:new 0 0 323.331 323.331;" xml:space="preserve">
<g>
	<path style="fill:#000001;" d="M205.555,214.037c-13.255,0-25.407,5.768-36.721,11.676c-1.021,0.534-2.049,0.793-3.141,0.794
		c-6.717,0.001-19.534-9.204-42.449-53.066c-19.574-37.467-24.668-58.989-15.142-63.968c25.819-13.485,38.133-31.258,19.777-78.124
		C119.624,10.254,108.247,0,93.095,0C81.246,0,69.53,6.502,59.192,12.238c-2.268,1.258-4.41,2.447-6.485,3.531
		c-14.65,7.653-22.274,31.981-20.394,65.079c2.064,36.315,15.169,79.049,36.901,120.651
		c41.853,80.094,97.666,121.832,131.168,121.832c0.002,0,0.003,0,0.005,0c4.276,0,8.169-0.526,11.57-1.912
		c14.796-6.029,42.338-17.164,48.895-38.583c3.517-11.488,0.632-24.245-8.575-38.006
		C238.385,224.08,223.103,214.037,205.555,214.037z"/>
	<path style="fill:#000001;" d="M270.453,85.665c-13.184-20.912-33.126-39.289-52.043-47.959c-7.529-3.45-16.434-0.146-19.886,7.386
		c-3.452,7.531-0.146,16.434,7.386,19.886c13.489,6.183,29.229,20.926,39.166,36.688c10.028,15.904,16.544,36.643,16.213,51.606
		c-0.184,8.282,6.382,15.145,14.664,15.328c0.113,0.003,0.226,0.004,0.339,0.004c8.129,0,14.809-6.499,14.989-14.669
		C291.745,132.936,283.764,106.776,270.453,85.665z"/>
	<path style="fill:#000001;" d="M173.811,110.76c7.006,3.212,16.664,12.573,22.466,21.774c5.85,9.279,10.13,22.132,9.957,29.896
		c-0.185,8.282,6.379,15.146,14.661,15.331c0.114,0.003,0.228,0.004,0.342,0.004c8.128,0,14.808-6.498,14.989-14.665
		c0.35-15.646-7.067-34.66-14.572-46.565c-7.434-11.792-21.246-26.584-35.341-33.045c-7.53-3.453-16.434-0.145-19.887,7.384
		C162.974,98.404,166.281,107.308,173.811,110.76z"/>
</g>
<g>
</g>
<g>
</g>
<g>
</g>
<g>
</g>
<g>
</g>
<g>
</g>
<g>
</g>
<g>
</g>
<g>
</g>
<g>
</g>
<g>
</g>
<g>
</g>
<g>
</g>
<g>
</g>
<g>
</g>
</svg>
