<?xml version="1.0" encoding="iso-8859-1"?>
<!-- Generator: Adobe Illustrator 17.1.0, SVG Export Plug-In . SVG Version: 6.00 Build 0)  -->
<!DOCTYPE svg PUBLIC "-//W3C//DTD SVG 1.1//EN" "http://www.w3.org/Graphics/SVG/1.1/DTD/svg11.dtd">
<svg version="1.1" id="Capa_1" xmlns="http://www.w3.org/2000/svg" xmlns:xlink="http://www.w3.org/1999/xlink" x="0px" y="0px"
	 viewBox="0 0 366.24 366.24" style="enable-background:new 0 0 366.24 366.24;" xml:space="preserve">
<path d="M312.227,65.041c-34.532-28.102-80.383-43.579-129.106-43.579S88.546,36.938,54.014,65.041
	C19.183,93.388,0,131.167,0,171.419c0,38.419,17.486,74.578,49.363,102.44c-0.574,1.293-1.031,2.653-1.322,4.082l-10.475,51.52
	c-1.245,6.122,0.427,9.774,2.049,11.759c1.875,2.294,4.654,3.558,7.826,3.558c0.001,0,0.001,0,0.001,0c2.394,0,4.969-0.707,7.65-2.1
	l60.922-31.65c21.092,6.789,43.767,10.349,67.105,10.349c48.724,0,94.574-15.477,129.106-43.579
	c34.831-28.346,54.014-66.126,54.014-106.378C366.24,131.167,347.058,93.388,312.227,65.041z M258.789,265.695
	c-15.684,12.025-66.053-1.693-115.618-55.039C93.612,157.303,82.289,104.757,96.776,91.301c12.55-11.659,28.081-32.263,49.2-3.907
	c21.125,28.346,14.488,40.521,1.532,52.554c-9.045,8.406,3.842,26.281,22.203,46.046c18.361,19.765,37.051,35.877,46.095,27.471
	c12.957-12.033,29.342-25.582,56.066-2.438C298.599,234.184,273.641,254.308,258.789,265.695z"/>
<g>
</g>
<g>
</g>
<g>
</g>
<g>
</g>
<g>
</g>
<g>
</g>
<g>
</g>
<g>
</g>
<g>
</g>
<g>
</g>
<g>
</g>
<g>
</g>
<g>
</g>
<g>
</g>
<g>
</g>
</svg>
