<?xml version="1.0" encoding="iso-8859-1"?>
<!-- Generator: Adobe Illustrator 17.1.0, SVG Export Plug-In . SVG Version: 6.00 Build 0)  -->
<!DOCTYPE svg PUBLIC "-//W3C//DTD SVG 1.1//EN" "http://www.w3.org/Graphics/SVG/1.1/DTD/svg11.dtd">
<svg version="1.1" id="Capa_1" xmlns="http://www.w3.org/2000/svg" xmlns:xlink="http://www.w3.org/1999/xlink" x="0px" y="0px"
	 viewBox="0 0 325 325" style="enable-background:new 0 0 325 325;" xml:space="preserve">
<g>
	<path d="M302.5,0h-194c-11.028,0-20,8.972-20,20v285c0,11.028,8.972,20,20,20h194c11.028,0,20-8.972,20-20V20
		C322.5,8.972,313.528,0,302.5,0z M270.818,239.766c-12.917,10.68-56.031,0.624-99.699-43.04
		c-43.663-43.67-54.896-87.849-43.039-99.704c10.273-10.271,22.792-28.217,41.574-4.844c18.786,23.364,13.541,33.889,2.937,44.49
		c-7.403,7.406,4.075,22.152,20.252,38.33c16.177,16.178,32.519,29.25,39.921,21.844c10.605-10.602,19.533-17.442,42.903,1.339
		C299.038,216.974,283.05,229.653,270.818,239.766z"/>
	<path d="M42.5,0h-20c-11.028,0-20,8.972-20,20v285c0,11.028,8.972,20,20,20h20c11.028,0,20-8.972,20-20V20
		C62.5,8.972,53.528,0,42.5,0z"/>
</g>
<g>
</g>
<g>
</g>
<g>
</g>
<g>
</g>
<g>
</g>
<g>
</g>
<g>
</g>
<g>
</g>
<g>
</g>
<g>
</g>
<g>
</g>
<g>
</g>
<g>
</g>
<g>
</g>
<g>
</g>
</svg>
