<?xml version="1.0" encoding="iso-8859-1"?>
<!-- Generator: Adobe Illustrator 17.1.0, SVG Export Plug-In . SVG Version: 6.00 Build 0)  -->
<!DOCTYPE svg PUBLIC "-//W3C//DTD SVG 1.1//EN" "http://www.w3.org/Graphics/SVG/1.1/DTD/svg11.dtd">
<svg version="1.1" id="Capa_1" xmlns="http://www.w3.org/2000/svg" xmlns:xlink="http://www.w3.org/1999/xlink" x="0px" y="0px"
	 viewBox="0 0 352 352" style="enable-background:new 0 0 352 352;" xml:space="preserve">
<g>
	<path d="M117.5,181h15h7v34.631c0,4.801,3.182,7.313,6.49,7.313c1.525,0,2.994-0.523,4.408-1.514l81.934-57.432
		c2.214-1.551,3.462-3.881,3.462-6.392c-0.001-2.51-1.281-4.839-3.493-6.388l-81.986-57.437c-1.413-0.99-2.801-1.514-4.325-1.514
		c-3.306,0-6.489,2.512-6.489,7.313V134h-7h-15h-29H54.647c-4.963,0-9.147,3.857-9.147,8.82v29.564c0,4.963,4.185,8.616,9.147,8.616
		H88.5H117.5z"/>
	<path d="M286.006,0H108.722C97.761,0,88.5,9.302,88.5,20.312V104h29V54.923c0-5.565,4.22-9.923,9.607-9.923H267.62
		c5.448,0,9.88,4.451,9.88,9.923v216.234c0,5.52-4.34,9.843-9.88,9.843H127.107c-5.388,0-9.607-4.323-9.607-9.843V211h-29v120.69
		c0,11.01,9.261,20.31,20.222,20.31h177.284c11.109,0,20.494-9.301,20.494-20.31V20.312C306.5,9.302,297.115,0,286.006,0z
		 M197.364,337.333c-11.414,0-20.667-9.253-20.667-20.667c0-11.414,9.253-20.667,20.667-20.667c11.414,0,20.667,9.253,20.667,20.667
		C218.031,328.081,208.778,337.333,197.364,337.333z"/>
</g>
<g>
</g>
<g>
</g>
<g>
</g>
<g>
</g>
<g>
</g>
<g>
</g>
<g>
</g>
<g>
</g>
<g>
</g>
<g>
</g>
<g>
</g>
<g>
</g>
<g>
</g>
<g>
</g>
<g>
</g>
</svg>
