<?xml version="1.0" encoding="iso-8859-1"?>
<!-- Generator: Adobe Illustrator 17.1.0, SVG Export Plug-In . SVG Version: 6.00 Build 0)  -->
<!DOCTYPE svg PUBLIC "-//W3C//DTD SVG 1.1//EN" "http://www.w3.org/Graphics/SVG/1.1/DTD/svg11.dtd">
<svg version="1.1" id="Capa_1" xmlns="http://www.w3.org/2000/svg" xmlns:xlink="http://www.w3.org/1999/xlink" x="0px" y="0px"
	 viewBox="0 0 352 352" style="enable-background:new 0 0 352 352;" xml:space="preserve">
<g>
	<g>
		<g>
			<circle style="fill:#FFFFFF;" cx="175.864" cy="315.667" r="15.333"/>
		</g>
	</g>
</g>
<g>
	<path d="M225.476,157c0,0-0.001,0-0.002,0l-0.212,0.248c-3.578,0-6.929-2.18-8.337-5.605c-1.46-3.56-0.517-7.655,2.347-10.281
		c2.093-1.921,2.353-5.138,0.599-7.355c-2.573-3.279-5.533-6.259-8.798-8.889c-0.966-0.777-2.179-1.198-3.417-1.198
		c-1.536,0-3.01,0.658-4.047,1.8c-1.665,1.841-4.387,2.988-7.101,2.988c-1.194,0-2.31-0.213-3.319-0.637
		c-3.604-1.508-5.876-5.156-5.655-9.07c0.172-2.888-1.943-5.408-4.809-5.734c-4.098-0.48-8.36-0.495-12.515-0.036
		c-2.816,0.312-4.948,2.777-4.852,5.617c0.14,3.879-2.157,7.464-5.713,8.92c-0.993,0.406-2.09,0.611-3.261,0.611
		c-2.709,0-5.428-1.138-7.105-2.979c-1.033-1.125-2.501-1.771-4.025-1.771c-1.205,0-2.396,0.407-3.367,1.158
		c-3.322,2.606-6.349,5.599-8.995,8.894c-1.807,2.245-1.55,5.52,0.586,7.458c2.915,2.638,3.858,6.827,2.347,10.427
		c-1.419,3.389-4.858,5.665-8.49,5.667l-0.599-0.016c-2.876-0.199-5.378,1.946-5.716,4.81c-0.49,4.173-0.498,8.428-0.024,12.646
		c0.335,2.988,3.322,4.837,5.897,4.837c3.85,0,7.258,2.248,8.683,5.722c1.456,3.564,0.513,7.721-2.343,10.341
		c-2.097,1.917-2.36,5.167-0.601,7.397c2.607,3.311,5.573,6.305,8.812,8.899c0.962,0.771,2.171,1.196,3.407,1.196h0.001
		c1.542,0,3.018-0.655,4.049-1.797c1.659-1.837,4.379-2.979,7.099-2.979c1.197,0,2.317,0.214,3.321,0.633
		c3.601,1.515,5.869,5.165,5.646,9.078c-0.17,2.881,1.944,5.399,4.814,5.733c2.122,0.246,4.277,0.37,6.407,0.37
		c2.031,0,4.085-0.113,6.104-0.337c2.817-0.312,4.948-2.776,4.851-5.611c-0.135-3.884,2.164-7.473,5.72-8.929
		c0.985-0.402,2.077-0.606,3.246-0.606c2.719,0,5.441,1.137,7.107,2.971c1.031,1.13,2.501,1.779,4.032,1.779
		c1.211,0,2.404-0.41,3.366-1.16c3.339-2.621,6.367-5.614,8.996-8.895c1.801-2.241,1.546-5.514-0.587-7.454
		c-2.912-2.637-3.853-6.829-2.343-10.43c1.439-3.429,5.07-5.645,9.169-5.646l0.194,0.003c2.813,0,5.098-2.023,5.436-4.82
		c0.489-4.17,0.497-8.669,0.025-12.889C231.172,159.093,228.149,157,225.476,157z M191.378,168.387
		c0,8.389-6.824,15.214-15.212,15.214c-8.388,0-15.213-6.825-15.213-15.214c0-8.389,6.825-15.213,15.213-15.213
		C184.554,153.174,191.378,159.998,191.378,168.387z"/>
	<path d="M264.505,0H87.222C76.261,0,67,9.302,67,20.312v311.378C67,342.699,76.261,352,87.222,352h177.283
		c11.109,0,20.495-9.301,20.495-20.311V20.312C285,9.302,275.615,0,264.505,0z M175.864,337c-11.782,0-21.333-9.551-21.333-21.333
		c0-11.782,9.551-21.333,21.333-21.333c11.782,0,21.333,9.551,21.333,21.333C197.197,327.449,187.646,337,175.864,337z M256,271.157
		c0,5.52-4.339,9.843-9.879,9.843H105.607c-5.387,0-9.607-4.323-9.607-9.843V54.922c0-5.564,4.22-9.922,9.607-9.922h140.514
		c5.447,0,9.879,4.451,9.879,9.922V271.157z"/>
</g>
<g>
</g>
<g>
</g>
<g>
</g>
<g>
</g>
<g>
</g>
<g>
</g>
<g>
</g>
<g>
</g>
<g>
</g>
<g>
</g>
<g>
</g>
<g>
</g>
<g>
</g>
<g>
</g>
<g>
</g>
</svg>
