<?xml version="1.0" encoding="iso-8859-1"?>
<!-- Generator: Adobe Illustrator 17.1.0, SVG Export Plug-In . SVG Version: 6.00 Build 0)  -->
<!DOCTYPE svg PUBLIC "-//W3C//DTD SVG 1.1//EN" "http://www.w3.org/Graphics/SVG/1.1/DTD/svg11.dtd">
<svg version="1.1" id="Capa_1" xmlns="http://www.w3.org/2000/svg" xmlns:xlink="http://www.w3.org/1999/xlink" x="0px" y="0px"
	 viewBox="0 0 325 325" style="enable-background:new 0 0 325 325;" xml:space="preserve">
<g>
	<path d="M291.5,0h-194c-11.028,0-20,8.972-20,20v285c0,11.028,8.972,20,20,20h194c11.028,0,20-8.972,20-20V20
		C311.5,8.972,302.528,0,291.5,0z M195.525,61.822c25.918,0,46.93,21.022,46.93,46.942c0,25.917-21.012,46.941-46.93,46.941
		c-25.93,0-46.939-21.024-46.939-46.941C148.586,82.843,169.595,61.822,195.525,61.822z M257.714,237.334
		c0,0-37.236,27.976-62.193,27.976c-24.957,0-62.193-27.976-62.193-27.976c-2.638-1.982-4.274-6.253-3.635-9.491l9.554-48.181
		c0.639-3.237,3.862-5.662,7.162-5.662h98.224c3.3,0,6.523,2.425,7.162,5.662l9.554,48.181
		C261.987,231.081,260.352,235.352,257.714,237.334z"/>
	<path d="M47,0.004L28.458,0C20.21,0,13.5,6.727,13.5,14.997v294.891c0,8.333,6.71,15.112,14.958,15.112h18.178
		c0.54,0,2.455-0.063,4.432-0.876c3.401-1.399,5.432-4.377,5.432-7.965V8.218C56.5,2.848,51.576,0.196,47,0.004z"/>
</g>
<g>
</g>
<g>
</g>
<g>
</g>
<g>
</g>
<g>
</g>
<g>
</g>
<g>
</g>
<g>
</g>
<g>
</g>
<g>
</g>
<g>
</g>
<g>
</g>
<g>
</g>
<g>
</g>
<g>
</g>
</svg>
