<?xml version="1.0" encoding="iso-8859-1"?>
<!-- Generator: Adobe Illustrator 17.1.0, SVG Export Plug-In . SVG Version: 6.00 Build 0)  -->
<!DOCTYPE svg PUBLIC "-//W3C//DTD SVG 1.1//EN" "http://www.w3.org/Graphics/SVG/1.1/DTD/svg11.dtd">
<svg version="1.1" id="Capa_1" xmlns="http://www.w3.org/2000/svg" xmlns:xlink="http://www.w3.org/1999/xlink" x="0px" y="0px"
	 viewBox="0 0 312.971 312.971" style="enable-background:new 0 0 312.971 312.971;" xml:space="preserve">
<path d="M284.849,0H28.766C17.738,0,8.485,9.024,8.485,20.052v211.21C8.485,242.29,17.738,251,28.766,251h66.582
	c5.514,0,10.137,4.748,10.137,10.262v38.436c0,9.169,5.2,13.273,10.421,13.273c3.053,0,6.155-1.283,9.286-3.813l61.327-49.71
	c5.482-4.431,16.457-8.448,23.506-8.448h74.823c11.028,0,19.636-8.71,19.636-19.738V20.052C304.485,9.024,295.877,0,284.849,0z
	 M226.296,207.053c-14.124,11.678-61.266,0.683-109.015-47.061c-47.743-47.75-60.026-96.057-47.06-109.02
	c11.232-11.232,24.922-30.854,45.458-5.297c20.542,25.547,14.807,37.055,3.211,48.647c-8.095,8.098,4.456,24.222,22.144,41.912
	c17.688,17.689,35.557,31.983,43.651,23.885c11.596-11.592,26.318-24.705,51.871-4.17
	C262.112,176.496,239.671,195.994,226.296,207.053z"/>
<g>
</g>
<g>
</g>
<g>
</g>
<g>
</g>
<g>
</g>
<g>
</g>
<g>
</g>
<g>
</g>
<g>
</g>
<g>
</g>
<g>
</g>
<g>
</g>
<g>
</g>
<g>
</g>
<g>
</g>
</svg>
