<?xml version="1.0" encoding="iso-8859-1"?>
<!-- Generator: Adobe Illustrator 17.1.0, SVG Export Plug-In . SVG Version: 6.00 Build 0)  -->
<!DOCTYPE svg PUBLIC "-//W3C//DTD SVG 1.1//EN" "http://www.w3.org/Graphics/SVG/1.1/DTD/svg11.dtd">
<svg version="1.1" id="Capa_1" xmlns="http://www.w3.org/2000/svg" xmlns:xlink="http://www.w3.org/1999/xlink" x="0px" y="0px"
	 viewBox="0 0 352 352" style="enable-background:new 0 0 352 352;" xml:space="preserve">
<g>
	<path d="M236.5,271.157c0,5.52-4.34,9.843-9.88,9.843H86.107c-5.388,0-9.607-4.323-9.607-9.843V54.923
		c0-5.565,4.22-9.923,9.607-9.923H226.62c5.448,0,9.88,4.451,9.88,9.923V69h29V20.312C265.5,9.302,256.115,0,245.006,0H67.722
		C56.761,0,47.5,9.302,47.5,20.312V331.69c0,11.01,9.261,20.31,20.222,20.31h177.284c11.109,0,20.494-9.301,20.494-20.31V248h-29
		V271.157z M156.364,335.333c-11.414,0-20.667-9.253-20.667-20.667c0-11.414,9.253-20.667,20.667-20.667
		c11.414,0,20.667,9.253,20.667,20.667C177.031,326.081,167.778,335.333,156.364,335.333z"/>
	<path d="M289.5,99h-24h-29h-1h-77.249c-8.271,0-14.751,7.004-14.751,15.275v89.268c0,8.271,6.48,15.457,14.751,15.457h31.061
		c2.757,0,5.188,1.786,5.188,4.543v16.182c0,7.264,4.256,10.516,8.566,10.516c2.427,0,4.823-0.98,7.214-2.913L247.592,218h47.091
		c5.72-2.239,9.816-8.01,9.816-14.457v-89.268C304.5,106.004,297.772,99,289.5,99z"/>
</g>
<g>
</g>
<g>
</g>
<g>
</g>
<g>
</g>
<g>
</g>
<g>
</g>
<g>
</g>
<g>
</g>
<g>
</g>
<g>
</g>
<g>
</g>
<g>
</g>
<g>
</g>
<g>
</g>
<g>
</g>
</svg>
