<?xml version="1.0" encoding="iso-8859-1"?>
<!-- Generator: Adobe Illustrator 17.1.0, SVG Export Plug-In . SVG Version: 6.00 Build 0)  -->
<!DOCTYPE svg PUBLIC "-//W3C//DTD SVG 1.1//EN" "http://www.w3.org/Graphics/SVG/1.1/DTD/svg11.dtd">
<svg version="1.1" id="Capa_1" xmlns="http://www.w3.org/2000/svg" xmlns:xlink="http://www.w3.org/1999/xlink" x="0px" y="0px"
	 viewBox="0 0 345 345" style="enable-background:new 0 0 345 345;" xml:space="preserve">
<g>
	<path d="M228.283,128.822c-37.729,0-68.423,30.694-68.423,68.423c0,8.284,6.716,15,15,15c8.284,0,15-6.716,15-15
		c0-21.187,17.236-38.423,38.423-38.423c8.284,0,15-6.716,15-15C243.283,135.538,236.567,128.822,228.283,128.822z"/>
	<path d="M325.283,61.5H282V50.028c0-5.514-3.986-9.528-9.5-9.528h-38.457c-5.514,0-10.043,4.015-10.043,9.528V61.5h-81V48.155
		c0-5.514-4.469-9.655-9.982-9.655H44.363C38.85,38.5,34,42.642,34,48.155V61.5H20.177C9.148,61.5,0,70.896,0,81.925v204.643
		C0,297.596,9.148,306.5,20.177,306.5h305.106c11.028,0,19.717-8.904,19.717-19.933V81.925C345,70.896,336.311,61.5,325.283,61.5z
		 M99,142.5c0,2.761-2.239,5-5,5H46c-2.762,0-5-2.239-5-5v-25c0-2.761,2.238-5,5-5h48c2.761,0,5,2.239,5,5V142.5z M223.283,269.668
		c-42.761,0-77.423-34.662-77.423-77.422c0-42.761,34.662-77.422,77.423-77.422c42.759,0,77.423,34.662,77.423,77.422
		C300.706,235.006,266.043,269.668,223.283,269.668z"/>
</g>
<g>
</g>
<g>
</g>
<g>
</g>
<g>
</g>
<g>
</g>
<g>
</g>
<g>
</g>
<g>
</g>
<g>
</g>
<g>
</g>
<g>
</g>
<g>
</g>
<g>
</g>
<g>
</g>
<g>
</g>
</svg>
