<?xml version="1.0" encoding="iso-8859-1"?>
<!-- Generator: Adobe Illustrator 17.1.0, SVG Export Plug-In . SVG Version: 6.00 Build 0)  -->
<!DOCTYPE svg PUBLIC "-//W3C//DTD SVG 1.1//EN" "http://www.w3.org/Graphics/SVG/1.1/DTD/svg11.dtd">
<svg version="1.1" id="Capa_1" xmlns="http://www.w3.org/2000/svg" xmlns:xlink="http://www.w3.org/1999/xlink" x="0px" y="0px"
	 viewBox="0 0 378.594 378.594" style="enable-background:new 0 0 378.594 378.594;" xml:space="preserve">
<g>
	<path d="M331.348,108.212c-29.94-21.772-69.808-34.017-112.256-34.479c-0.83-0.01-1.661-0.014-2.494-0.014
		c-5.205,0-12.239,1.051-16.188,6.061c-1.725,2.188-3.484,6.007-2.167,11.831c0.572,4.357,8.49,64.701,11.859,88.752
		c1.445,10.319-4.659,17.478-4.898,17.753l-0.14,0.156l-59.975,79.704c-3.492,4.413-4.655,8.598-3.456,12.441
		c1.918,6.146,8.832,8.238,12.546,9.362c19.787,5.983,40.788,9.018,62.419,9.018c42.972,0,83.431-12.039,113.926-33.898
		c30.998-22.22,48.069-51.924,48.069-83.641C378.594,159.859,361.815,130.366,331.348,108.212z"/>
	<path d="M162.509,213.171c-2.176-4.941-8.393-5.584-12.879-5.584H14.368c-5.132,0-9.008,1.48-11.52,4.258
		c-1.529,1.69-3.249,4.751-2.764,9.568c3.71,36.859,31.626,70.728,74.675,90.568c2.191,1.01,5.163,2.179,8.723,2.179
		c3.742,0,9.201-1.349,13.927-7.756l63.272-84.118C162.502,220.174,164.013,216.586,162.509,213.171z"/>
	<path d="M33.128,185.587h141.354c5.208,0,9.032-1.343,11.364-4.17c2.426-2.941,2.202-6.103,2.045-7.153l-13.239-99.255
		c-0.441-3.183-2.606-10.575-13.147-10.575c-2.148,0-4.172,0.297-5.799,0.532c-0.365,0.052-0.711,0.105-1.032,0.147
		c-35.269,4.617-67.889,17.875-91.851,37.328c-24.542,19.925-39.069,45.624-40.906,72.36l-0.016,0.22
		c-0.111,1.438-0.369,4.713,2.185,7.472C26.073,184.636,29.03,185.587,33.128,185.587z"/>
</g>
<g>
</g>
<g>
</g>
<g>
</g>
<g>
</g>
<g>
</g>
<g>
</g>
<g>
</g>
<g>
</g>
<g>
</g>
<g>
</g>
<g>
</g>
<g>
</g>
<g>
</g>
<g>
</g>
<g>
</g>
</svg>
