<?xml version="1.0" encoding="iso-8859-1"?>
<!-- Generator: Adobe Illustrator 17.1.0, SVG Export Plug-In . SVG Version: 6.00 Build 0)  -->
<!DOCTYPE svg PUBLIC "-//W3C//DTD SVG 1.1//EN" "http://www.w3.org/Graphics/SVG/1.1/DTD/svg11.dtd">
<svg version="1.1" id="Capa_1" xmlns="http://www.w3.org/2000/svg" xmlns:xlink="http://www.w3.org/1999/xlink" x="0px" y="0px"
	 viewBox="0 0 343 343" style="enable-background:new 0 0 343 343;" xml:space="preserve">
<g>
	<path d="M157.084,187.435l51.074-35.257c4.527-3.123,4.49-8.233-0.037-11.356l-51.037-35.257c-4.527-3.123-8.084-1.178-8.084,4.322
		v73.227C149,188.613,152.556,190.558,157.084,187.435z"/>
	<path d="M323,25.5H20c-11.028,0-20,8.972-20,20v252c0,11.028,8.972,20,20,20h303c11.028,0,20-8.972,20-20v-252
		C343,34.472,334.028,25.5,323,25.5z M171.592,83.286c34.912,0,63.214,28.302,63.214,63.214s-28.302,63.214-63.214,63.214
		s-63.214-28.302-63.214-63.214S136.68,83.286,171.592,83.286z M291,279.5H116.938c-3.481,10.058-10.877,17-19.438,17
		c-8.561,0-15.957-6.942-19.438-17H52c-8.284,0-15-6.716-15-15s6.716-15,15-15h27.736c3.889-7.851,10.393-13,17.764-13
		c7.371,0,13.875,5.149,17.764,13H291c8.284,0,15,6.716,15,15S299.284,279.5,291,279.5z"/>
</g>
<g>
</g>
<g>
</g>
<g>
</g>
<g>
</g>
<g>
</g>
<g>
</g>
<g>
</g>
<g>
</g>
<g>
</g>
<g>
</g>
<g>
</g>
<g>
</g>
<g>
</g>
<g>
</g>
<g>
</g>
</svg>
