<?xml version="1.0" encoding="iso-8859-1"?>
<!-- Generator: Adobe Illustrator 17.1.0, SVG Export Plug-In . SVG Version: 6.00 Build 0)  -->
<!DOCTYPE svg PUBLIC "-//W3C//DTD SVG 1.1//EN" "http://www.w3.org/Graphics/SVG/1.1/DTD/svg11.dtd">
<svg version="1.1" id="Capa_1" xmlns="http://www.w3.org/2000/svg" xmlns:xlink="http://www.w3.org/1999/xlink" x="0px" y="0px"
	 viewBox="0 0 310.285 310.285" style="enable-background:new 0 0 310.285 310.285;" xml:space="preserve">
<path d="M155.143,0.001C69.597,0.001,0,69.597,0,155.142c0,85.546,69.597,155.143,155.143,155.143s155.143-69.597,155.143-155.143
	C310.285,69.597,240.689,0.001,155.143,0.001z"/>
<g>
	<g>
		<g>
			<g>
				<path style="fill:#FFFFFF;" d="M236.275,132.852H181.59c-1.166,0-2.447-1.118-2.447-2.137V73.719
					c0-4.485-3.247-7.867-7.553-7.867h-31.584c-4.409,0-7.863,3.456-7.863,7.867v56.996c0,1.099-1.038,2.137-2.137,2.137H73.01
					c-4.411,0-7.867,3.454-7.867,7.863v31.584c0,4.306,3.382,7.553,7.867,7.553h56.996c1.018,0,2.137,1.281,2.137,2.447v54.686
					c0,4.411,3.454,7.867,7.863,7.867h31.584c4.306,0,7.553-3.382,7.553-7.867v-54.686c0-1.098,1.35-2.447,2.447-2.447h54.686
					c4.485,0,7.867-3.247,7.867-7.553v-31.584C244.143,136.306,240.686,132.852,236.275,132.852z"/>
			</g>
		</g>
	</g>
</g>
<g>
</g>
<g>
</g>
<g>
</g>
<g>
</g>
<g>
</g>
<g>
</g>
<g>
</g>
<g>
</g>
<g>
</g>
<g>
</g>
<g>
</g>
<g>
</g>
<g>
</g>
<g>
</g>
<g>
</g>
</svg>
