<?xml version="1.0" encoding="iso-8859-1"?>
<!-- Generator: Adobe Illustrator 17.1.0, SVG Export Plug-In . SVG Version: 6.00 Build 0)  -->
<!DOCTYPE svg PUBLIC "-//W3C//DTD SVG 1.1//EN" "http://www.w3.org/Graphics/SVG/1.1/DTD/svg11.dtd">
<svg version="1.1" id="Capa_1" xmlns="http://www.w3.org/2000/svg" xmlns:xlink="http://www.w3.org/1999/xlink" x="0px" y="0px"
	 viewBox="0 0 321.199 321.199" style="enable-background:new 0 0 321.199 321.199;" xml:space="preserve">
<path d="M255.918,260c-0.465,0-0.87,0.199-1.104,0.199H144.768c-0.709,0-1.464-0.185-2-0.216
	c15.242-14.316,22.831-33.196,22.831-55.811v-12.974h44.442c0.089,0,0.432-0.197,0.577-0.197c6.144,0,12.98-4.078,12.98-12.587
	v-30.241c0-9.505-6.886-13.871-13.486-13.871c-0.169,0-0.532-0.104-0.635-0.104H165.6v-28.544c0-39.575,19.726-44.152,34.46-44.152
	c11.584,0,22.869,2.754,33.402,8.186l0.439,0.211c1.545,0.813,3.766,2.042,6.461,2.042c4.267-0.001,9.239-2.631,9.239-15.162v-32.58
	c0-9.041-5.179-14.405-8.747-15.804C226.654,2.824,211.199,0,194.789,0c-30.869,0-55.583,9.265-73.855,27.537
	C102.662,45.809,93.6,70.007,93.6,99.458v34.741H70.568c-4.864,0-13.969,3.553-13.969,16.163v25.408
	c0,7.363,3.394,11.071,6.282,12.886c3.074,1.932,6.189,2.343,7.395,2.343c0.072,0,0.109,0.2,0.157,0.2H93.6v19.385
	c0,24.624-9.154,40.68-27.637,49.084l-0.404,0.051c-3.738,1.699-13.959,6.212-13.959,18.448v30.636
	c0,5.137,3.967,12.396,13.75,12.396h189.292c10.152,0,14.958-4.952,14.958-16.407v-32.825C269.6,264.596,264.206,260,255.918,260z"
	/>
<g>
</g>
<g>
</g>
<g>
</g>
<g>
</g>
<g>
</g>
<g>
</g>
<g>
</g>
<g>
</g>
<g>
</g>
<g>
</g>
<g>
</g>
<g>
</g>
<g>
</g>
<g>
</g>
<g>
</g>
</svg>
