<?xml version="1.0" encoding="iso-8859-1"?>
<!-- Generator: Adobe Illustrator 17.1.0, SVG Export Plug-In . SVG Version: 6.00 Build 0)  -->
<!DOCTYPE svg PUBLIC "-//W3C//DTD SVG 1.1//EN" "http://www.w3.org/Graphics/SVG/1.1/DTD/svg11.dtd">
<svg version="1.1" id="Capa_1" xmlns="http://www.w3.org/2000/svg" xmlns:xlink="http://www.w3.org/1999/xlink" x="0px" y="0px"
	 viewBox="0 0 354 354" style="enable-background:new 0 0 354 354;" xml:space="preserve">
<g>
	<path d="M252,259H103c-5.514,0-10,4.486-10,10v75c0,5.514,4.486,10,10,10h149c5.514,0,10-4.486,10-10v-75
		C262,263.486,257.514,259,252,259z"/>
	<path d="M334.75,136h-316C10.617,136,4,142.729,4,151v118c0,8.272,6.617,15,14.75,15h37.5c8.133,0,14.75-6.728,14.75-15v-26
		c0-2.663,2.453-5,5.25-5h201c2.663,0,4.75,2.196,4.75,5v26c0,8.131,6.983,15,15.25,15h37.5c8.267,0,15.25-6.869,15.25-15V151
		C350,142.869,343.017,136,334.75,136z M91,187c0,2.761-2.239,5-5,5H41c-2.762,0-5-2.239-5-5v-20c0-2.761,2.238-5,5-5h45
		c2.761,0,5,2.239,5,5V187z M314,187c0,2.75-2.25,5-5,5h-59c-2.75,0-5-2.25-5-5v-20c0-2.75,2.25-5,5-5h59c2.75,0,5,2.25,5,5V187z"/>
	<path d="M96.57,115h0.21H256c2.854,0,6.764,0,9.191-3.108c1.81-2.317,1.81-4.982,1.809-8.672V16c0-8.822-7.178-16-16-16H102
		c-8.822,0-16,7.178-16,16v88.219c-0.001,3.658-0.001,6.301,2.074,8.48C90.266,115,93.048,115,96.57,115z"/>
</g>
<g>
</g>
<g>
</g>
<g>
</g>
<g>
</g>
<g>
</g>
<g>
</g>
<g>
</g>
<g>
</g>
<g>
</g>
<g>
</g>
<g>
</g>
<g>
</g>
<g>
</g>
<g>
</g>
<g>
</g>
</svg>
