<?xml version="1.0" encoding="iso-8859-1"?>
<!-- Generator: Adobe Illustrator 17.1.0, SVG Export Plug-In . SVG Version: 6.00 Build 0)  -->
<!DOCTYPE svg PUBLIC "-//W3C//DTD SVG 1.1//EN" "http://www.w3.org/Graphics/SVG/1.1/DTD/svg11.dtd">
<svg version="1.1" id="Capa_1" xmlns="http://www.w3.org/2000/svg" xmlns:xlink="http://www.w3.org/1999/xlink" x="0px" y="0px"
	 viewBox="0 0 342.333 342.333" style="enable-background:new 0 0 342.333 342.333;" xml:space="preserve">
<path d="M314.574,114.333h-27.407V15c0-8.284-6.716-15-15-15s-15,6.716-15,15v99.333H28.14c-7.513,0-13.974,5.647-13.974,13.161
	v200.842c0,7.514,6.461,13.997,13.974,13.997h286.434c7.513,0,13.593-6.483,13.593-13.997V127.494
	C328.167,119.98,322.086,114.333,314.574,114.333z M77.385,300.308c-21.619,0-39.145-17.526-39.145-39.145
	c0-21.62,17.526-39.145,39.145-39.145c21.619,0,39.145,17.525,39.145,39.145C116.531,282.782,99.004,300.308,77.385,300.308z
	 M203.167,280.333c0,2.761-2.239,5-5,5h-54c-2.761,0-5-2.239-5-5v-39c0-2.761,2.239-5,5-5h54c2.762,0,5,2.239,5,5V280.333z
	 M265.329,300.308c-21.618,0-39.144-17.526-39.144-39.145c0-21.62,17.526-39.145,39.144-39.145c21.62,0,39.145,17.525,39.145,39.145
	C304.474,282.782,286.949,300.308,265.329,300.308z M291.586,185.333H51.127c-8.284,0-15-6.716-15-15c0-8.284,6.716-15,15-15
	h240.459c8.284,0,15,6.716,15,15C306.586,178.617,299.871,185.333,291.586,185.333z"/>
<g>
</g>
<g>
</g>
<g>
</g>
<g>
</g>
<g>
</g>
<g>
</g>
<g>
</g>
<g>
</g>
<g>
</g>
<g>
</g>
<g>
</g>
<g>
</g>
<g>
</g>
<g>
</g>
<g>
</g>
</svg>
