<?xml version="1.0" encoding="iso-8859-1"?>
<!-- Generator: Adobe Illustrator 17.1.0, SVG Export Plug-In . SVG Version: 6.00 Build 0)  -->
<!DOCTYPE svg PUBLIC "-//W3C//DTD SVG 1.1//EN" "http://www.w3.org/Graphics/SVG/1.1/DTD/svg11.dtd">
<svg version="1.1" id="Capa_1" xmlns="http://www.w3.org/2000/svg" xmlns:xlink="http://www.w3.org/1999/xlink" x="0px" y="0px"
	 viewBox="0 0 350.87 350.87" style="enable-background:new 0 0 350.87 350.87;" xml:space="preserve">
<g>
	<path d="M292.682,131.203c1.955-6.747,2.943-13.722,2.943-20.809c0-41.245-33.555-74.801-74.8-74.801
		c-17.158,0-33.92,5.958-47.198,16.776c-11.879,9.679-20.542,22.856-24.724,37.474c-1.86-0.183-3.716-0.275-5.55-0.275
		c-25.524,0-47.886,16.941-55.082,40.982c-4.269-0.995-8.633-1.497-13.033-1.497c-31.703,0-57.494,25.716-57.494,57.419
		s25.792,57.419,57.494,57.419h201.86c31.702,0,57.494-25.716,57.494-57.419C334.592,160.426,317.28,138.073,292.682,131.203z"/>
	<path d="M26.846,114.835l4.49-2.449c10.384-5.515,22.098-8.496,33.923-8.496c0.007,0,0.016,0,0.023,0
		c0.167,0,0.335,0.08,0.503,0.081l2.943,0.086l1.448-2.563c11.51-20.37,32.232-34.023,55.432-36.521l2.789-0.3l1.198-2.536
		c4.993-10.574,11.885-19.95,20.484-27.866l3.497-3.22l-3.04-3.656C136.056,9.985,114.782,0,92.168,0
		c-41.846,0-75.89,34.044-75.89,75.89c0,12.088,2.778,23.667,8.258,34.415L26.846,114.835z"/>
	<path d="M114.278,260.537c-1.392,0-4.651,0-14.794,14.481c-4.708,6.721-10.319,16.272-10.319,23.605
		c0,13.921,11.266,25.247,25.113,25.247c13.848,0,25.113-11.326,25.113-25.247c0-7.332-5.612-16.884-10.319-23.605
		C118.929,260.537,115.67,260.537,114.278,260.537z"/>
	<path d="M177.778,287.537c-1.392,0-4.651,0-14.794,14.481c-4.708,6.721-10.319,16.272-10.319,23.605
		c0,13.921,11.266,25.247,25.113,25.247s25.113-11.326,25.113-25.247c0-7.332-5.612-16.884-10.319-23.605
		C182.429,287.537,179.17,287.537,177.778,287.537z"/>
	<path d="M241.278,261.537c-1.392,0-4.651,0-14.794,14.481c-4.708,6.721-10.319,16.272-10.319,23.605
		c0,13.921,11.266,25.247,25.113,25.247s25.113-11.326,25.113-25.247c0-7.332-5.612-16.884-10.319-23.605
		C245.929,261.537,242.67,261.537,241.278,261.537z"/>
</g>
<g>
</g>
<g>
</g>
<g>
</g>
<g>
</g>
<g>
</g>
<g>
</g>
<g>
</g>
<g>
</g>
<g>
</g>
<g>
</g>
<g>
</g>
<g>
</g>
<g>
</g>
<g>
</g>
<g>
</g>
</svg>
