<?xml version="1.0" encoding="iso-8859-1"?>
<!-- Generator: Adobe Illustrator 17.1.0, SVG Export Plug-In . SVG Version: 6.00 Build 0)  -->
<!DOCTYPE svg PUBLIC "-//W3C//DTD SVG 1.1//EN" "http://www.w3.org/Graphics/SVG/1.1/DTD/svg11.dtd">
<svg version="1.1" id="Capa_1" xmlns="http://www.w3.org/2000/svg" xmlns:xlink="http://www.w3.org/1999/xlink" x="0px" y="0px"
	 viewBox="0 0 335 335" style="enable-background:new 0 0 335 335;" xml:space="preserve">
<g>
	<path d="M239,205H95c-8.284,0-15,6.716-15,15s6.716,15,15,15h144c8.284,0,15-6.716,15-15S247.284,205,239,205z"/>
	<path d="M239,262H95c-8.284,0-15,6.716-15,15s6.716,15,15,15h144c8.284,0,15-6.716,15-15S247.284,262,239,262z"/>
	<path d="M317,0H18C9.729,0,3,6.728,3,15v305c0,8.272,6.729,15,15,15h299c8.271,0,15-6.728,15-15V15C332,6.728,325.271,0,317,0z
		 M283,305c0,5.523-4.477,10-10,10H62c-5.523,0-10-4.477-10-10V189c0-5.523,4.477-10,10-10h211c5.523,0,10,4.477,10,10V305z M283,98
		c0,5.523-4.477,10-10,10H62c-5.523,0-10-4.477-10-10V31c0-5.523,4.477-10,10-10h211c5.523,0,10,4.477,10,10V98z"/>
	<path d="M245,35h-20c-4.411,0-8,3.589-8,8v44c0,4.411,3.589,8,8,8h20c4.411,0,8-3.589,8-8V43C253,38.589,249.411,35,245,35z"/>
</g>
<g>
</g>
<g>
</g>
<g>
</g>
<g>
</g>
<g>
</g>
<g>
</g>
<g>
</g>
<g>
</g>
<g>
</g>
<g>
</g>
<g>
</g>
<g>
</g>
<g>
</g>
<g>
</g>
<g>
</g>
</svg>
