<?xml version="1.0" encoding="iso-8859-1"?>
<!-- Generator: Adobe Illustrator 17.1.0, SVG Export Plug-In . SVG Version: 6.00 Build 0)  -->
<!DOCTYPE svg PUBLIC "-//W3C//DTD SVG 1.1//EN" "http://www.w3.org/Graphics/SVG/1.1/DTD/svg11.dtd">
<svg version="1.1" id="Capa_1" xmlns="http://www.w3.org/2000/svg" xmlns:xlink="http://www.w3.org/1999/xlink" x="0px" y="0px"
	 viewBox="0 0 362 362" style="enable-background:new 0 0 362 362;" xml:space="preserve">
<path d="M332,16.5H30c-16.542,0-30,13.458-30,30v269c0,16.542,13.458,30,30,30h302c16.542,0,30-13.458,30-30v-269
	C362,29.958,348.542,16.5,332,16.5z M117.837,45.888c5.675,0,10.276,4.601,10.276,10.276s-4.601,10.276-10.276,10.276
	c-5.675,0-10.276-4.601-10.276-10.276S112.162,45.888,117.837,45.888z M81.371,45.888c5.675,0,10.276,4.601,10.276,10.276
	s-4.601,10.276-10.276,10.276c-5.675,0-10.276-4.601-10.276-10.276S75.695,45.888,81.371,45.888z M44.904,45.888
	c5.675,0,10.276,4.601,10.276,10.276s-4.601,10.276-10.276,10.276s-10.276-4.601-10.276-10.276S39.229,45.888,44.904,45.888z
	 M236.837,315.5H125.761c-2.585-7.113-5.405-16.456-5.405-22.75c0-33.558,27.341-60.859,60.948-60.859
	c33.607,0,60.948,27.282,60.948,60.815C242.252,298.991,239.425,308.365,236.837,315.5z M332,315.5h-17v-46.164
	c0-3.081-2.154-5.913-5.124-6.735l-19.711-5.453l-5.987-14.676l10.1-17.757c1.529-2.683,1.054-6.214-1.129-8.397l-33.755-33.766
	c-1.288-1.291-3.102-2.032-4.974-2.032c-1.209,0-2.393,0.308-3.421,0.892l-17.241,9.792l-16.296-6.698l-5.548-19.897
	c-0.829-2.96-3.66-5.108-6.733-5.108h-47.766c-3.077,0-5.91,2.152-6.734,5.115l-5.546,19.918l-16.985,7.143l-16.713-9.539
	c-1.031-0.588-2.218-0.899-3.432-0.899c-1.869,0-3.679,0.739-4.965,2.025l-33.771,33.755c-2.181,2.181-2.658,5.71-1.134,8.392
	l9.972,17.547l-5.919,14.175L52.143,262.6c-2.98,0.814-5.143,3.647-5.143,6.736V315.5H30v-228h302.003l0.016,228
	C332.019,315.5,332.013,315.5,332,315.5z"/>
<g>
</g>
<g>
</g>
<g>
</g>
<g>
</g>
<g>
</g>
<g>
</g>
<g>
</g>
<g>
</g>
<g>
</g>
<g>
</g>
<g>
</g>
<g>
</g>
<g>
</g>
<g>
</g>
<g>
</g>
</svg>
