<?xml version="1.0" encoding="iso-8859-1"?>
<!-- Generator: Adobe Illustrator 17.1.0, SVG Export Plug-In . SVG Version: 6.00 Build 0)  -->
<!DOCTYPE svg PUBLIC "-//W3C//DTD SVG 1.1//EN" "http://www.w3.org/Graphics/SVG/1.1/DTD/svg11.dtd">
<svg version="1.1" id="Capa_1" xmlns="http://www.w3.org/2000/svg" xmlns:xlink="http://www.w3.org/1999/xlink" x="0px" y="0px"
	 viewBox="0 0 324.424 324.424" style="enable-background:new 0 0 324.424 324.424;" xml:space="preserve">
<path d="M289.106,39.101c-1.257,0-2.498,0.336-3.59,0.972c-9.163,5.339-21.846,8.279-35.713,8.279
	c-10.256,0-20.84-1.529-31.456-4.546c-23.884-6.786-43.982-32.8-50.585-41.348C166.554,0.896,164.571,0,162.322,0
	c-2.11,0-3.902,0.82-5.044,2.31c-6.576,8.569-26.589,34.646-50.701,41.497c-10.615,3.016-21.23,4.545-31.55,4.546
	c-13.45,0-25.392-2.604-34.538-7.533l-0.265-0.147c-1.011-0.564-2.703-1.509-4.769-1.509c-0.69,0-6.743,0.239-6.743,8.511V190.5
	c0,39.6,34.031,73.603,62.58,95.153c30.179,22.782,64.049,38.771,70.92,38.771c5.044,0,38.241-15.443,69.559-38.75
	c29.17-21.707,63.941-55.84,63.941-95.174V46.091C295.712,42.106,292.872,39.101,289.106,39.101z M244.814,140.968l-76.054,84.836
	c-2.08,2.321-5.067,3.652-8.195,3.652c-2.715,0-5.321-0.996-7.338-2.803l-58.271-52.238c-2.184-1.957-3.475-4.653-3.635-7.591
	c-0.16-2.938,0.83-5.758,2.788-7.942l15.887-17.722c2.08-2.321,5.067-3.652,8.194-3.652c2.716,0,5.322,0.996,7.339,2.804
	l32.358,29.008l52.824-58.924c2.081-2.321,5.067-3.652,8.195-3.652c2.716,0,5.323,0.996,7.339,2.805l17.721,15.886
	c2.184,1.957,3.475,4.653,3.635,7.591C247.762,135.964,246.772,138.784,244.814,140.968z"/>
<g>
</g>
<g>
</g>
<g>
</g>
<g>
</g>
<g>
</g>
<g>
</g>
<g>
</g>
<g>
</g>
<g>
</g>
<g>
</g>
<g>
</g>
<g>
</g>
<g>
</g>
<g>
</g>
<g>
</g>
</svg>
