<?xml version="1.0" encoding="iso-8859-1"?>
<!-- Generator: Adobe Illustrator 17.1.0, SVG Export Plug-In . SVG Version: 6.00 Build 0)  -->
<!DOCTYPE svg PUBLIC "-//W3C//DTD SVG 1.1//EN" "http://www.w3.org/Graphics/SVG/1.1/DTD/svg11.dtd">
<svg version="1.1" id="Capa_1" xmlns="http://www.w3.org/2000/svg" xmlns:xlink="http://www.w3.org/1999/xlink" x="0px" y="0px"
	 viewBox="0 0 324.424 324.424" style="enable-background:new 0 0 324.424 324.424;" xml:space="preserve">
<path d="M289.296,39.101c-1.217,0-2.438,0.336-3.53,0.972c-9.296,5.417-21.59,8.279-35.555,8.279
	c-10.196,0-20.749-1.529-31.365-4.546c-23.884-6.786-43.981-32.8-50.585-41.348C167.054,0.896,165.071,0,162.822,0
	c-2.11,0-3.902,0.82-5.044,2.31c-6.576,8.569-26.589,34.646-50.701,41.497c-10.615,3.016-21.263,4.545-31.646,4.546
	c-13.55,0-25.546-2.604-34.692-7.533l-0.208-0.113c-1.051-0.577-2.81-1.542-4.944-1.542c-0.704,0-6.875,0.239-6.875,8.511V190.5
	c0,39.6,34.031,73.603,62.58,95.153c30.179,22.782,64.049,38.771,70.92,38.771c5.044,0,38.241-15.443,69.559-38.75
	c29.17-21.707,63.941-55.84,63.941-95.174V46.091C295.712,41.502,292.484,39.101,289.296,39.101z M221.112,198.148
	c4.288,4.289,4.288,11.268,0.001,15.556l-15.896,15.896c-2.074,2.074-4.836,3.215-7.778,3.215c-2.942,0-5.705-1.142-7.778-3.215
	l-27.948-27.948l-27.948,27.948c-2.074,2.074-4.836,3.215-7.778,3.215c-2.942,0-5.704-1.142-7.778-3.215l-15.896-15.896
	c-4.288-4.289-4.288-11.268-0.001-15.556l27.948-27.948l-29.224-29.224c-4.289-4.288-4.289-11.267-0.001-15.556l15.896-15.896
	c2.074-2.074,4.836-3.216,7.778-3.216c2.942,0,5.704,1.142,7.778,3.215l29.224,29.224l29.224-29.224
	c2.074-2.074,4.837-3.216,7.778-3.216c2.942,0,5.704,1.142,7.778,3.215l15.896,15.896c4.289,4.29,4.289,11.268,0,15.557
	l-29.224,29.224L221.112,198.148z"/>
<g>
</g>
<g>
</g>
<g>
</g>
<g>
</g>
<g>
</g>
<g>
</g>
<g>
</g>
<g>
</g>
<g>
</g>
<g>
</g>
<g>
</g>
<g>
</g>
<g>
</g>
<g>
</g>
<g>
</g>
</svg>
