<?xml version="1.0" encoding="iso-8859-1"?>
<!-- Generator: Adobe Illustrator 17.1.0, SVG Export Plug-In . SVG Version: 6.00 Build 0)  -->
<!DOCTYPE svg PUBLIC "-//W3C//DTD SVG 1.1//EN" "http://www.w3.org/Graphics/SVG/1.1/DTD/svg11.dtd">
<svg version="1.1" id="Capa_1" xmlns="http://www.w3.org/2000/svg" xmlns:xlink="http://www.w3.org/1999/xlink" x="0px" y="0px"
	 viewBox="0 0 386.843 386.843" style="enable-background:new 0 0 386.843 386.843;" xml:space="preserve">
<g>
	<path d="M112.457,112.77v-2c0-5.514-4.486-10-10-10h-38c-5.514,0-10,4.486-10,10v2c0,5.514,4.486,10,10,10h38
		C107.971,122.77,112.457,118.285,112.457,112.77z"/>
	<path d="M371.843,25.77h-42.422c-12.278,0-23.913,8.738-27.064,20.606l-16.089,60.394H168.414
		c-2.795-43.977-39.441-78.904-84.112-78.904C37.817,27.866,0,65.684,0,112.169c0,38.07,25.372,70.312,60.091,80.742l4.433,45.195
		c0.798,8.086,7.951,14.664,15.946,14.664h183.423c7.723,0,15.382-5.952,17.439-13.553l21.464-79.475
		c0.564-1.035,1.021-1.939,1.337-3.129L330.959,55.77h40.884c8.284,0,15-6.716,15-15S380.127,25.77,371.843,25.77z M34.656,112.169
		c0-27.375,22.271-49.646,49.646-49.646s49.647,22.271,49.647,49.646s-22.272,49.645-49.647,49.645S34.656,139.543,34.656,112.169z"
		/>
	<path d="M273.457,282.77h-202c-8.284,0-15,6.716-15,15s6.716,15,15,15h8.781c-2.128,4.416-3.321,9.364-3.321,14.585
		c0,18.591,15.126,33.717,33.718,33.717s33.717-15.125,33.717-33.717c0-5.221-1.193-10.169-3.321-14.585h66.737
		c-2.128,4.416-3.321,9.364-3.321,14.585c0,18.591,15.125,33.717,33.717,33.717s33.718-15.125,33.718-33.717
		c0-5.221-1.194-10.169-3.321-14.585h4.897c8.284,0,15-6.716,15-15S281.741,282.77,273.457,282.77z"/>
</g>
<g>
</g>
<g>
</g>
<g>
</g>
<g>
</g>
<g>
</g>
<g>
</g>
<g>
</g>
<g>
</g>
<g>
</g>
<g>
</g>
<g>
</g>
<g>
</g>
<g>
</g>
<g>
</g>
<g>
</g>
</svg>
