<?xml version="1.0" encoding="iso-8859-1"?>
<!-- Generator: Adobe Illustrator 17.1.0, SVG Export Plug-In . SVG Version: 6.00 Build 0)  -->
<!DOCTYPE svg PUBLIC "-//W3C//DTD SVG 1.1//EN" "http://www.w3.org/Graphics/SVG/1.1/DTD/svg11.dtd">
<svg version="1.1" id="Capa_1" xmlns="http://www.w3.org/2000/svg" xmlns:xlink="http://www.w3.org/1999/xlink" x="0px" y="0px"
	 viewBox="0 0 373.423 373.423" style="enable-background:new 0 0 373.423 373.423;" xml:space="preserve">
<g>
	<path d="M277.925,49.061h40.885c8.284,0,15-6.716,15-15s-6.716-15-15-15h-42.422c-12.277,0-23.912,8.69-27.064,20.558
		l-16.114,60.442H14.068c-4.089,0-7.811,1.67-10.479,4.614c-2.668,2.944-3.916,6.831-3.515,10.901l11.405,115.809
		c0.787,7.974,7.945,14.676,15.957,14.676h183.424c7.754,0,15.413-6.066,17.437-13.551l21.405-79.257
		c0.594-1.067,1.069-2.063,1.397-3.298L277.925,49.061z"/>
	<path d="M220.423,276.061h-202c-8.284,0-15,6.716-15,15s6.716,15,15,15h8.781c-2.128,4.416-3.321,9.364-3.321,14.585
		c0,18.591,15.126,33.717,33.718,33.717s33.717-15.125,33.717-33.717c0-5.221-1.193-10.169-3.321-14.585h66.737
		c-2.128,4.416-3.321,9.364-3.321,14.585c0,18.591,15.125,33.717,33.717,33.717c18.592,0,33.718-15.125,33.718-33.717
		c0-5.221-1.193-10.169-3.321-14.585h4.897c8.284,0,15-6.716,15-15S228.707,276.061,220.423,276.061z"/>
	<path d="M296.423,133.061c-8.284,0-15,6.716-15,15s6.716,15,15,15h32c8.284,0,15-6.716,15-15s-6.716-15-15-15H296.423z"/>
	<path d="M358.423,195.061h-72c-8.284,0-15,6.716-15,15s6.716,15,15,15h72c8.284,0,15-6.716,15-15S366.707,195.061,358.423,195.061z
		"/>
</g>
<g>
</g>
<g>
</g>
<g>
</g>
<g>
</g>
<g>
</g>
<g>
</g>
<g>
</g>
<g>
</g>
<g>
</g>
<g>
</g>
<g>
</g>
<g>
</g>
<g>
</g>
<g>
</g>
<g>
</g>
</svg>
