<?xml version="1.0" encoding="iso-8859-1"?>
<!-- Generator: Adobe Illustrator 17.1.0, SVG Export Plug-In . SVG Version: 6.00 Build 0)  -->
<!DOCTYPE svg PUBLIC "-//W3C//DTD SVG 1.1//EN" "http://www.w3.org/Graphics/SVG/1.1/DTD/svg11.dtd">
<svg version="1.1" id="Capa_1" xmlns="http://www.w3.org/2000/svg" xmlns:xlink="http://www.w3.org/1999/xlink" x="0px" y="0px"
	 viewBox="0 0 309.85 309.85" style="enable-background:new 0 0 309.85 309.85;" xml:space="preserve">
<g>
	<path d="M210.826,256.975c-2.575-39.47-19.285-76.869-47.051-105.306c-27.715-28.392-64.615-45.994-103.9-49.565
		c-1.167-0.107-2.338-0.161-3.481-0.161c-13.647,0-18.514,7.78-18.519,15.065l0.004,19.779c0,10.089,5.628,15.505,16.724,16.096
		c0.424,0.023,0.829,0.044,1.185,0.078c55.58,5.323,99.304,49.574,103.965,105.194l0.042,0.535c1,13.248,8.963,16.028,15.468,16.028
		h0.001l20.772-0.004c5.04,0,8.944-1.469,11.599-4.361c3.945-4.283,3.489-9.736,3.249-12.599L210.826,256.975z"/>
	<path d="M309.821,257.53c-2.625-65.517-29.44-127.509-75.507-174.557C188.319,35.991,127.036,7.867,61.764,3.785l-1.491-0.107
		c-1.503-0.108-3.218-0.231-5.078-0.235C39.871,3.45,38.208,13.084,38.208,17.225v21.932c0,14.193,15.839,15.246,21.769,15.641
		l1.14,0.083c107.453,8.023,192.424,95.316,197.647,202.957c0.719,15.052,9.414,17.368,14.532,17.368h0.002l22.91-0.072v-0.034
		c4,0,7.08-1.323,9.44-3.786C309.597,267.212,309.98,261.474,309.821,257.53z"/>
	<path d="M58.219,189.913c-15.558,0-30.185,6.059-41.187,17.06c-22.71,22.71-22.71,59.664,0,82.374
		c11.001,11.001,25.629,17.06,41.187,17.06s30.186-6.059,41.187-17.06c22.71-22.71,22.71-59.664,0-82.374
		C88.405,195.972,73.778,189.913,58.219,189.913z"/>
</g>
<g>
</g>
<g>
</g>
<g>
</g>
<g>
</g>
<g>
</g>
<g>
</g>
<g>
</g>
<g>
</g>
<g>
</g>
<g>
</g>
<g>
</g>
<g>
</g>
<g>
</g>
<g>
</g>
<g>
</g>
</svg>
