<?xml version="1.0" encoding="iso-8859-1"?>
<!-- Generator: Adobe Illustrator 17.1.0, SVG Export Plug-In . SVG Version: 6.00 Build 0)  -->
<!DOCTYPE svg PUBLIC "-//W3C//DTD SVG 1.1//EN" "http://www.w3.org/Graphics/SVG/1.1/DTD/svg11.dtd">
<svg version="1.1" id="Capa_1" xmlns="http://www.w3.org/2000/svg" xmlns:xlink="http://www.w3.org/1999/xlink" x="0px" y="0px"
	 viewBox="0 0 382.309 382.309" style="enable-background:new 0 0 382.309 382.309;" xml:space="preserve">
<g>
	<path d="M252.654,230.309c-8.284,0-15,6.716-15,15v72h-152V67.752c0-0.125,0.184-0.343,0.32-0.443h40.68c8.284,0,15-6.716,15-15
		s-6.716-15-15-15H85.806c-16.344,0-30.151,13.931-30.151,30.421v284.579c0,16.542,13.525,30,30.151,30H237.31
		c16.732,0,30.345-13.458,30.345-30v-107C267.654,237.024,260.939,230.309,252.654,230.309z M161.558,361.126
		c-8.036,0-14.55-6.514-14.55-14.55c0-8.036,6.514-14.55,14.55-14.55c8.036,0,14.55,6.514,14.55,14.55
		C176.108,354.612,169.594,361.126,161.558,361.126z"/>
	<path d="M320.874,22.487c-1.116,0-2.219,0.318-3.188,0.919c-4.575,2.838-10.947,4.401-17.943,4.401
		c-5.271,0-10.736-0.844-16.242-2.509c-12.148-3.675-22.669-18.173-26.127-22.939C256.301,0.882,254.489,0,252.527,0
		c-1.905,0-3.596,0.832-4.638,2.28c-3.443,4.775-13.92,19.308-26.184,23.018c-5.506,1.665-11.026,2.509-16.411,2.509
		c-6.821,0-13.062-1.425-17.655-4.061c-0.684-0.397-2.106-1.224-3.938-1.224c-2.912,0-6.047,2.197-6.047,7.02v82.137
		c0,23.571,18.84,43.64,34.645,56.326c15.31,12.288,34.711,22.816,39.855,22.816c4.067,0,23.205-10.212,39.107-22.795
		c16.147-12.775,35.393-32.922,35.393-56.347V28.631C326.654,24.64,323.676,22.487,320.874,22.487z"/>
</g>
<g>
</g>
<g>
</g>
<g>
</g>
<g>
</g>
<g>
</g>
<g>
</g>
<g>
</g>
<g>
</g>
<g>
</g>
<g>
</g>
<g>
</g>
<g>
</g>
<g>
</g>
<g>
</g>
<g>
</g>
</svg>
