<?xml version="1.0" encoding="iso-8859-1"?>
<!-- Generator: Adobe Illustrator 17.1.0, SVG Export Plug-In . SVG Version: 6.00 Build 0)  -->
<!DOCTYPE svg PUBLIC "-//W3C//DTD SVG 1.1//EN" "http://www.w3.org/Graphics/SVG/1.1/DTD/svg11.dtd">
<svg version="1.1" id="Capa_1" xmlns="http://www.w3.org/2000/svg" xmlns:xlink="http://www.w3.org/1999/xlink" x="0px" y="0px"
	 viewBox="0 0 352 352" style="enable-background:new 0 0 352 352;" xml:space="preserve">
<g>
	<path d="M239.296,187.445c-3.245,0-6.49-1.123-9.114-3.373l-72.105-61.841c-0.044,0.292-0.077,0.595-0.077,0.926v89.947
		c0,5.544,7.092,12.896,12.44,12.896h51.992c0.866,0,1.568,0.702,1.568,1.568v43.589c0,5.52-4.34,9.843-9.88,9.843H73.607
		C68.22,281,64,276.677,64,271.157V54.922C64,49.358,68.22,45,73.607,45H214.12c5.448,0,9.88,4.451,9.88,9.922v36.51
		c0,0.866-0.702,1.568-1.568,1.568h-55.428l72.163,61.892L309.356,93h-54.789c-0.866,0-1.568-0.702-1.568-1.568V20.312
		C253,9.302,243.615,0,232.506,0H55.222C44.261,0,35,9.302,35,20.312v311.378C35,342.699,44.261,352,55.222,352h177.284
		c11.109,0,20.494-9.301,20.494-20.311V227.568c0-0.866,0.702-1.568,1.568-1.568h55.362c4.691,0,7.07-4.339,7.07-12.896v-89.513
		l-68.444,60.354C245.911,186.277,242.605,187.445,239.296,187.445z M145.904,335.565c-12.648,1.252-23.191-9.29-21.939-21.938
		c0.926-9.36,8.497-16.931,17.857-17.859c12.65-1.254,23.194,9.29,21.941,21.94C162.835,327.068,155.264,334.639,145.904,335.565z"
		/>
</g>
<g>
</g>
<g>
</g>
<g>
</g>
<g>
</g>
<g>
</g>
<g>
</g>
<g>
</g>
<g>
</g>
<g>
</g>
<g>
</g>
<g>
</g>
<g>
</g>
<g>
</g>
<g>
</g>
<g>
</g>
</svg>
