<?xml version="1.0" encoding="iso-8859-1"?>
<!-- Generator: Adobe Illustrator 17.1.0, SVG Export Plug-In . SVG Version: 6.00 Build 0)  -->
<!DOCTYPE svg PUBLIC "-//W3C//DTD SVG 1.1//EN" "http://www.w3.org/Graphics/SVG/1.1/DTD/svg11.dtd">
<svg version="1.1" id="Capa_1" xmlns="http://www.w3.org/2000/svg" xmlns:xlink="http://www.w3.org/1999/xlink" x="0px" y="0px"
	 viewBox="0 0 352 352" style="enable-background:new 0 0 352 352;" xml:space="preserve">
<path d="M289.5,99h-24V20.312C265.5,9.302,256.115,0,245.005,0H67.722C56.761,0,47.5,9.302,47.5,20.312V331.69
	c0,11.01,9.261,20.31,20.222,20.31h177.283c11.109,0,20.495-9.301,20.495-20.31V219h24c8.271,0,15-7.186,15-15.457v-89.268
	C304.5,106.004,297.771,99,289.5,99z M156.364,337c-11.782,0-21.333-9.552-21.333-21.333c0-11.782,9.551-21.334,21.333-21.334
	c11.782,0,21.333,9.552,21.333,21.334C177.697,327.448,168.146,337,156.364,337z M236.5,271.157c0,5.52-4.339,9.843-9.879,9.843
	H86.107c-5.387,0-9.607-4.323-9.607-9.843V54.923c0-5.565,4.22-9.923,9.607-9.923h140.514c5.447,0,9.879,4.451,9.879,9.923V99
	h-78.249c-8.271,0-14.751,7.004-14.751,15.275v89.268c0,8.271,6.48,15.457,14.751,15.457h31.062c2.757,0,5.187,1.786,5.187,4.543
	v16.182c0,7.264,4.256,10.516,8.566,10.516c2.427,0,4.823-0.98,7.214-2.913l26.22-21.002V271.157z M230.5,193.083v5.976
	c0,3.005-2.384,5.941-5.438,5.941h-3.157c-3.054,0-5.405-2.936-5.405-5.941v-5.502c-3-0.468-9.393-1.774-13.363-3.843
	c-2.253-1.174-3.278-3.645-2.447-6.009l1.62-4.431c0.786-2.114,2.741-3.477,4.994-3.477c0.816,0,1.602,0.179,2.345,0.531
	c0.061,0.028,7.137,3.308,12.084,3.308c5.226,0,8.874-2.611,8.874-6.35c0-2.596-1.166-5.455-9.626-8.775
	c-9.836-3.738-19.913-9.198-19.913-21.287c0-9.335,6.271-16.945,16.051-19.584l-0.007-5.427c0-3.008,2.483-5.212,5.535-5.212h3.054
	c3.054,0,5.538,2.204,5.538,5.209l0.019,5.027c2.346,0.448,7.587,1.48,10.692,2.833c1.988,0.858,3.554,3.223,2.529,5.968
	l-1.713,4.367c-0.8,2.043-2.73,3.354-4.917,3.354c-0.883,0-1.767-0.226-2.557-0.646c-0.022-0.012-4.425-2.234-10.054-2.234
	c-5.525,0-7.494,2.642-7.494,5.115c0,2.721,1.562,4.56,10.82,8.271c13.016,5.142,18.774,12.021,18.774,22.301
	C247.338,182.436,240.5,190.395,230.5,193.083z"/>
<g>
</g>
<g>
</g>
<g>
</g>
<g>
</g>
<g>
</g>
<g>
</g>
<g>
</g>
<g>
</g>
<g>
</g>
<g>
</g>
<g>
</g>
<g>
</g>
<g>
</g>
<g>
</g>
<g>
</g>
</svg>
