<?xml version="1.0" encoding="iso-8859-1"?>
<!-- Generator: Adobe Illustrator 17.1.0, SVG Export Plug-In . SVG Version: 6.00 Build 0)  -->
<!DOCTYPE svg PUBLIC "-//W3C//DTD SVG 1.1//EN" "http://www.w3.org/Graphics/SVG/1.1/DTD/svg11.dtd">
<svg version="1.1" id="Capa_1" xmlns="http://www.w3.org/2000/svg" xmlns:xlink="http://www.w3.org/1999/xlink" x="0px" y="0px"
	 viewBox="0 0 313.379 313.379" style="enable-background:new 0 0 313.379 313.379;" xml:space="preserve">
<path d="M284.731,0H28.648C17.62,0,8.689,9.433,8.689,20.461v211.21C8.689,242.699,17.62,252,28.648,252H95.23
	c5.514,0,10.46,4.157,10.46,9.671v38.436c0,9.169,5.039,13.272,10.26,13.272c3.053,0,6.074-1.282,9.204-3.813l61.287-49.415
	c5.482-4.43,16.417-8.152,23.466-8.152h74.823c11.028,0,19.959-9.301,19.959-20.329V20.461C304.689,9.433,295.759,0,284.731,0z
	 M106.079,34.786c13.947,0,25.253,11.306,25.253,25.253c0,13.947-11.306,25.253-25.253,25.253
	c-13.947,0-25.253-11.306-25.253-25.253C80.826,46.092,92.132,34.786,106.079,34.786z M106.079,212.498
	c-13.947,0-25.253-11.306-25.253-25.253c0-13.947,11.306-25.253,25.253-25.253c13.947,0,25.253,11.306,25.253,25.253
	C131.332,201.192,120.026,212.498,106.079,212.498z M172.689,139h-32c-8.284,0-15-6.716-15-15s6.716-15,15-15h32
	c8.284,0,15,6.716,15,15S180.974,139,172.689,139z M213.187,192.606c-0.375,0.245-2.462,1.52-5.068,1.52h-0.001
	c-2.374-0.001-4.497-1.05-5.977-2.955c-1.195-1.538-2.826-3.998-5.131-7.742c-1.044-1.695-1.346-3.557-0.873-5.383
	c0.727-2.81,3.064-4.486,3.949-5.034c14.915-10.882,23.707-29.637,23.529-50.21c-0.177-20.465-8.96-38.753-23.497-48.935
	c-3.349-2.205-5.373-6.653-2.788-10.954c1.044-1.736,2.71-4.084,4.32-6.354l1.06-1.496c1.153-1.636,2.984-2.573,5.023-2.573
	c2.529,0,4.764,1.408,5.54,1.959c21.675,14.028,34.612,39.833,34.612,69.051C247.885,152.757,234.914,178.591,213.187,192.606z"/>
<g>
</g>
<g>
</g>
<g>
</g>
<g>
</g>
<g>
</g>
<g>
</g>
<g>
</g>
<g>
</g>
<g>
</g>
<g>
</g>
<g>
</g>
<g>
</g>
<g>
</g>
<g>
</g>
<g>
</g>
</svg>
