<?xml version="1.0" encoding="iso-8859-1"?>
<!-- Generator: Adobe Illustrator 17.1.0, SVG Export Plug-In . SVG Version: 6.00 Build 0)  -->
<!DOCTYPE svg PUBLIC "-//W3C//DTD SVG 1.1//EN" "http://www.w3.org/Graphics/SVG/1.1/DTD/svg11.dtd">
<svg version="1.1" id="Capa_1" xmlns="http://www.w3.org/2000/svg" xmlns:xlink="http://www.w3.org/1999/xlink" x="0px" y="0px"
	 viewBox="0 0 310.285 310.285" style="enable-background:new 0 0 310.285 310.285;" xml:space="preserve">
<path d="M264.845,45.441C235.542,16.139,196.583,0,155.143,0c-41.44,0-80.4,16.139-109.701,45.441
	C16.139,74.743,0,113.703,0,155.144c0,41.439,16.139,80.399,45.441,109.701c29.302,29.303,68.262,45.44,109.701,45.44
	c41.44,0,80.399-16.138,109.702-45.44c29.303-29.302,45.44-68.262,45.44-109.701C310.285,113.703,294.147,74.743,264.845,45.441z
	 M60.004,118.502c0-18.913,15.332-34.246,34.245-34.246c18.913,0,34.246,15.333,34.246,34.246c0,18.914-15.332,34.246-34.246,34.246
	C75.337,152.747,60.004,137.415,60.004,118.502z M225.72,227.916c-18.852,18.853-43.917,29.234-70.577,29.234
	c-26.66,0-51.725-10.383-70.576-29.234c-5.858-5.858-5.858-15.355,0-21.213c5.857-5.857,15.355-5.859,21.213,0
	c13.186,13.186,30.717,20.447,49.363,20.447c18.647,0,36.179-7.262,49.364-20.447c5.857-5.857,15.355-5.857,21.213,0
	C231.578,212.561,231.578,222.059,225.72,227.916z M216.036,152.747c-18.913,0-34.246-15.332-34.246-34.246
	c0-18.913,15.332-34.246,34.246-34.246c18.913,0,34.245,15.333,34.245,34.246C250.281,137.415,234.949,152.747,216.036,152.747z"/>
<g>
</g>
<g>
</g>
<g>
</g>
<g>
</g>
<g>
</g>
<g>
</g>
<g>
</g>
<g>
</g>
<g>
</g>
<g>
</g>
<g>
</g>
<g>
</g>
<g>
</g>
<g>
</g>
<g>
</g>
</svg>
