<?xml version="1.0" encoding="iso-8859-1"?>
<!-- Generator: Adobe Illustrator 17.1.0, SVG Export Plug-In . SVG Version: 6.00 Build 0)  -->
<!DOCTYPE svg PUBLIC "-//W3C//DTD SVG 1.1//EN" "http://www.w3.org/Graphics/SVG/1.1/DTD/svg11.dtd">
<svg version="1.1" id="Capa_1" xmlns="http://www.w3.org/2000/svg" xmlns:xlink="http://www.w3.org/1999/xlink" x="0px" y="0px"
	 viewBox="0 0 362.827 362.827" style="enable-background:new 0 0 362.827 362.827;" xml:space="preserve">
<g>
	<path d="M136.657,240.444l-8.462-8.461c-1.607-1.606-3.745-2.491-6.022-2.491c-2.277,0-4.416,0.885-6.021,2.491l-13.673,13.673
		l-13.674-13.673c-1.606-1.606-3.745-2.491-6.021-2.491c-2.276,0-4.415,0.884-6.022,2.491l-8.461,8.461
		c-3.32,3.321-3.319,8.724,0.001,12.044l13.673,13.673L68.98,279.156c-3.319,3.32-3.319,8.723,0,12.043l8.461,8.461
		c1.606,1.607,3.745,2.491,6.021,2.491c2.277,0,4.416-0.884,6.022-2.491l12.994-12.994l12.994,12.995
		c1.607,1.605,3.745,2.49,6.021,2.49c2.276,0,4.415-0.884,6.021-2.491l8.461-8.461c3.319-3.32,3.319-8.723,0-12.044l-12.994-12.994
		l13.674-13.673C139.976,249.168,139.976,243.766,136.657,240.444z"/>
	<path d="M218.515,301.121l-8.461-8.461c-1.605-1.606-3.744-2.49-6.021-2.49c-2.276,0-4.415,0.884-6.022,2.491l-13.673,13.673
		l-13.674-13.674c-1.606-1.605-3.745-2.489-6.021-2.489c-2.277,0-4.416,0.885-6.021,2.491l-8.461,8.461
		c-3.32,3.321-3.32,8.723,0,12.044l13.673,13.673l-12.994,12.994c-3.319,3.32-3.319,8.723,0,12.043l8.462,8.461
		c1.607,1.606,3.745,2.491,6.021,2.491s4.415-0.884,6.021-2.491l12.994-12.994l12.994,12.994c1.606,1.606,3.745,2.491,6.021,2.491
		c2.276,0,4.414-0.884,6.022-2.491l8.461-8.461c3.319-3.32,3.319-8.723,0-12.044l-12.994-12.994l13.673-13.673
		C221.834,309.845,221.834,304.442,218.515,301.121z"/>
	<path d="M302.866,245.642c0-2.276-0.885-4.415-2.492-6.022l-8.461-8.461c-1.606-1.606-3.745-2.491-6.021-2.491
		c-2.276,0-4.415,0.884-6.021,2.491l-13.674,13.673l-13.673-13.673c-1.607-1.606-3.745-2.491-6.021-2.491s-4.414,0.884-6.023,2.491
		l-8.461,8.461c-3.32,3.321-3.319,8.724,0.001,12.043l13.673,13.673l-12.994,12.994c-3.319,3.32-3.319,8.723,0,12.044l8.461,8.461
		c1.605,1.606,3.744,2.49,6.021,2.49c2.276,0,4.415-0.884,6.023-2.491l12.993-12.994l12.994,12.993
		c1.605,1.607,3.744,2.491,6.022,2.491c2.277,0,4.416-0.885,6.022-2.491l8.461-8.461c3.319-3.32,3.319-8.723,0-12.044
		l-12.994-12.994l13.673-13.673C301.98,250.058,302.866,247.919,302.866,245.642z"/>
	<path d="M297.928,95.61c1.954-6.746,2.942-13.722,2.942-20.81c0-41.245-33.555-74.801-74.8-74.801
		c-17.158,0-33.92,5.958-47.197,16.777c-11.88,9.679-20.543,22.855-24.725,37.474c-1.861-0.183-3.717-0.275-5.551-0.275
		c-25.524,0-47.887,16.941-55.081,40.981c-4.268-0.995-8.632-1.497-13.033-1.497c-31.702,0-57.494,25.79-57.494,57.492
		s25.792,57.492,57.494,57.492h201.859c31.702,0,57.494-25.79,57.494-57.492C339.837,124.908,322.525,102.48,297.928,95.61z"/>
</g>
<g>
</g>
<g>
</g>
<g>
</g>
<g>
</g>
<g>
</g>
<g>
</g>
<g>
</g>
<g>
</g>
<g>
</g>
<g>
</g>
<g>
</g>
<g>
</g>
<g>
</g>
<g>
</g>
<g>
</g>
</svg>
