<?xml version="1.0" encoding="iso-8859-1"?>
<!-- Generator: Adobe Illustrator 17.1.0, SVG Export Plug-In . SVG Version: 6.00 Build 0)  -->
<!DOCTYPE svg PUBLIC "-//W3C//DTD SVG 1.1//EN" "http://www.w3.org/Graphics/SVG/1.1/DTD/svg11.dtd">
<svg version="1.1" id="Capa_1" xmlns="http://www.w3.org/2000/svg" xmlns:xlink="http://www.w3.org/1999/xlink" x="0px" y="0px"
	 viewBox="0 0 348.497 348.497" style="enable-background:new 0 0 348.497 348.497;" xml:space="preserve">
<g>
	<path d="M278.428,125.291c-0.409-0.491-0.836-0.959-1.267-1.389c-3.27-3.271-6.351-3.957-8.358-3.957
		c-2.456,0-4.726,0.97-6.564,2.807l-6.583,6.586c-2.056,2.056-6.159,7.59,0.131,14.588c0.1,0.111,0.195,0.216,0.276,0.314
		c15.917,19.29,15.751,47.155-0.384,66.241l-0.154,0.182c-6.063,7.052-1.573,12.561-0.052,14.083l6.917,6.914
		c2.636,2.637,5.233,3.19,6.949,3.19c0.117,0,0.234-0.002,0.345-0.007c3.9-0.161,6.219-2.902,7.161-4.017l0.234-0.273
		c12.701-14.473,19.822-33.097,20.054-52.44C297.365,158.804,290.723,140.045,278.428,125.291z"/>
	<path d="M316.748,93.135l-0.449-0.519c-0.468-0.54-1.05-1.213-1.738-1.906c-2.494-2.491-5.114-3.754-7.786-3.754
		c-1.598,0-3.97,0.467-6.196,2.692l-7.301,7.302c-4.299,4.298-3.651,9.707,1.904,16.051l0.348,0.403
		c32.234,37.436,31.503,93.261-1.699,129.85c-6.664,7.331-2.323,12.76-0.834,14.249l7.711,7.709
		c1.715,1.719,3.829,2.627,6.114,2.628l0.168-0.002c4.12-0.078,6.906-3.099,7.82-4.091c21.386-23.169,33.347-53.365,33.681-85.024
		C348.825,147.111,337.55,116.712,316.748,93.135z"/>
	<path d="M202.691,24.359c-3.226-1.764-6.799-2.697-10.477-2.697c-4.226,0-8.304,0.971-11.86,3.255L65.198,98.643H28.816
		C12.927,98.643,0,112.042,0,127.931v92.551c0,15.892,12.927,29.161,28.816,29.161h36.382l115.191,73.786
		c3.554,2.284,7.668,3.406,11.897,3.406c3.682,0,7.182-0.975,10.4-2.736c7.07-3.857,11.314-11.303,11.314-19.361V43.675
		C214,35.619,209.757,28.216,202.691,24.359z"/>
</g>
<g>
</g>
<g>
</g>
<g>
</g>
<g>
</g>
<g>
</g>
<g>
</g>
<g>
</g>
<g>
</g>
<g>
</g>
<g>
</g>
<g>
</g>
<g>
</g>
<g>
</g>
<g>
</g>
<g>
</g>
</svg>
