<?xml version="1.0" encoding="iso-8859-1"?>
<!-- Generator: Adobe Illustrator 17.1.0, SVG Export Plug-In . SVG Version: 6.00 Build 0)  -->
<!DOCTYPE svg PUBLIC "-//W3C//DTD SVG 1.1//EN" "http://www.w3.org/Graphics/SVG/1.1/DTD/svg11.dtd">
<svg version="1.1" id="Capa_1" xmlns="http://www.w3.org/2000/svg" xmlns:xlink="http://www.w3.org/1999/xlink" x="0px" y="0px"
	 viewBox="0 0 343 343" style="enable-background:new 0 0 343 343;" xml:space="preserve">
<g>
	<path d="M290.5,0h-238c-11.046,0-20,8.954-20,20v303c0,11.046,8.954,20,20,20h238c11.046,0,20-8.954,20-20V20
		C310.5,8.954,301.546,0,290.5,0z M171.999,45.508c21.583,0,39.079,17.496,39.079,39.08c0,21.584-17.496,39.08-39.079,39.08
		c-21.583,0-39.08-17.496-39.08-39.08C132.92,63.005,150.416,45.508,171.999,45.508z M171.999,298.063
		c-37.915,0-68.652-30.736-68.652-68.652c0-37.915,30.737-68.652,68.652-68.652c37.915,0,68.652,30.737,68.652,68.652
		C240.652,267.328,209.915,298.063,171.999,298.063z"/>
	<circle cx="172" cy="229.412" r="31.979"/>
</g>
<g>
</g>
<g>
</g>
<g>
</g>
<g>
</g>
<g>
</g>
<g>
</g>
<g>
</g>
<g>
</g>
<g>
</g>
<g>
</g>
<g>
</g>
<g>
</g>
<g>
</g>
<g>
</g>
<g>
</g>
</svg>
