<?xml version="1.0" encoding="iso-8859-1"?>
<!-- Generator: Adobe Illustrator 17.1.0, SVG Export Plug-In . SVG Version: 6.00 Build 0)  -->
<!DOCTYPE svg PUBLIC "-//W3C//DTD SVG 1.1//EN" "http://www.w3.org/Graphics/SVG/1.1/DTD/svg11.dtd">
<svg version="1.1" id="Capa_1" xmlns="http://www.w3.org/2000/svg" xmlns:xlink="http://www.w3.org/1999/xlink" x="0px" y="0px"
	 viewBox="0 0 305 305" style="enable-background:new 0 0 305 305;" xml:space="preserve">
<g>
	<circle cx="152.232" cy="151.855" r="37.45"/>
	<path d="M285,4H20C8.954,4,0,12.954,0,24v257c0,11.046,8.954,20,20,20h265c11.046,0,20-8.954,20-20V24C305,12.954,296.046,4,285,4z
		 M43.765,280.097c-12.082,0-21.877-9.795-21.877-21.877c0-12.082,9.795-21.877,21.877-21.877c12.082,0,21.877,9.795,21.877,21.877
		C65.642,270.302,55.848,280.097,43.765,280.097z M43.765,68.097c-12.082,0-21.877-9.795-21.877-21.877
		c0-12.083,9.795-21.877,21.877-21.877c12.082,0,21.877,9.795,21.877,21.877C65.642,58.302,55.848,68.097,43.765,68.097z
		 M152.232,236.421c-46.704,0-84.565-37.861-84.565-84.565c0-46.704,37.861-84.565,84.565-84.565
		c46.704,0,84.565,37.861,84.565,84.565C236.798,198.56,198.937,236.421,152.232,236.421z M260.765,280.097
		c-12.082,0-21.877-9.795-21.877-21.877c0-12.082,9.795-21.877,21.877-21.877c12.082,0,21.877,9.795,21.877,21.877
		C282.642,270.302,272.848,280.097,260.765,280.097z M260.765,68.097c-12.082,0-21.877-9.795-21.877-21.877
		c0-12.083,9.795-21.877,21.877-21.877c12.082,0,21.877,9.795,21.877,21.877C282.642,58.302,272.848,68.097,260.765,68.097z"/>
</g>
<g>
</g>
<g>
</g>
<g>
</g>
<g>
</g>
<g>
</g>
<g>
</g>
<g>
</g>
<g>
</g>
<g>
</g>
<g>
</g>
<g>
</g>
<g>
</g>
<g>
</g>
<g>
</g>
<g>
</g>
</svg>
