<?xml version="1.0" encoding="iso-8859-1"?>
<!-- Generator: Adobe Illustrator 17.1.0, SVG Export Plug-In . SVG Version: 6.00 Build 0)  -->
<!DOCTYPE svg PUBLIC "-//W3C//DTD SVG 1.1//EN" "http://www.w3.org/Graphics/SVG/1.1/DTD/svg11.dtd">
<svg version="1.1" id="Capa_1" xmlns="http://www.w3.org/2000/svg" xmlns:xlink="http://www.w3.org/1999/xlink" x="0px" y="0px"
	 viewBox="0 0 385.634 385.634" style="enable-background:new 0 0 385.634 385.634;" xml:space="preserve">
<path d="M302.569,108.361c-2.628,0-5.224,0.14-7.791,0.383c-1.412-0.126-2.834-0.202-4.27-0.202H95.613
	c-1.522,0-3.03,0.079-4.524,0.22c-2.642-0.259-5.316-0.401-8.024-0.401C37.263,108.361,0,146.248,0,192.817
	s37.263,84.456,83.065,84.456c37.053,0,68.508-24.799,79.177-58.927c6.212,11.081,17.927,18.574,31.336,18.574
	c12.737,0,23.944-6.761,30.361-16.935c11.153,33.277,42.175,57.288,78.63,57.288c45.802,0,83.065-37.887,83.065-84.456
	S348.371,108.361,302.569,108.361z M83.065,247.274c-29.26,0-53.065-24.429-53.065-54.457c0-30.027,23.805-54.457,53.065-54.457
	c29.26,0,53.065,24.429,53.065,54.457C136.13,222.844,112.326,247.274,83.065,247.274z M302.569,247.274
	c-29.26,0-53.065-24.429-53.065-54.457c0-30.027,23.805-54.457,53.065-54.457c29.26,0,53.065,24.429,53.065,54.457
	C355.634,222.844,331.829,247.274,302.569,247.274z"/>
<g>
</g>
<g>
</g>
<g>
</g>
<g>
</g>
<g>
</g>
<g>
</g>
<g>
</g>
<g>
</g>
<g>
</g>
<g>
</g>
<g>
</g>
<g>
</g>
<g>
</g>
<g>
</g>
<g>
</g>
</svg>
