<?xml version="1.0" encoding="iso-8859-1"?>
<!-- Generator: Adobe Illustrator 17.1.0, SVG Export Plug-In . SVG Version: 6.00 Build 0)  -->
<!DOCTYPE svg PUBLIC "-//W3C//DTD SVG 1.1//EN" "http://www.w3.org/Graphics/SVG/1.1/DTD/svg11.dtd">
<svg version="1.1" id="Capa_1" xmlns="http://www.w3.org/2000/svg" xmlns:xlink="http://www.w3.org/1999/xlink" x="0px" y="0px"
	 viewBox="0 0 327 327" style="enable-background:new 0 0 327 327;" xml:space="preserve">
<g>
	<path d="M60,7.144c0-3.67-2.975-6.644-6.645-6.644H7.644C3.975,0.5,1,3.475,1,7.144v45.711c0,3.67,2.975,6.645,6.644,6.645h45.711
		c3.67,0,6.645-2.975,6.645-6.645V7.144z"/>
	<path d="M59,274.144c0-3.669-2.975-6.644-6.644-6.644H6.644C2.975,267.5,0,270.474,0,274.144v45.713
		c0,3.669,2.975,6.644,6.644,6.644h45.712c3.669,0,6.644-2.974,6.644-6.644V274.144z"/>
	<path d="M327,274.144c0-3.669-2.975-6.644-6.645-6.644h-45.711c-3.67,0-6.645,2.974-6.645,6.644v45.713
		c0,3.669,2.975,6.644,6.645,6.644h45.711c3.67,0,6.645-2.974,6.645-6.644V274.144z"/>
	<path d="M327,7.146c0-3.67-2.975-6.646-6.645-6.646h-45.711c-3.67,0-6.645,2.975-6.645,6.646v45.709
		c0,3.67,2.975,6.646,6.645,6.646h45.711c3.67,0,6.645-2.975,6.645-6.646V7.146z"/>
	<path d="M274.614,249.712c3.515-0.127,7.386-2.576,7.386-7.263V85.013c0-7.196-5.827-7.513-8.214-7.513H250V53.442
		c0-7.097-5.174-7.942-7.514-7.942H85.159C81.386,45.5,77,48.364,77,53.526V76.5H53.348l-0.137,0.095
		C49.695,76.721,46,79.476,46,84.163v157.438c0,7.196,5.471,7.899,7.859,7.899H77v23.671c0,7.097,5.819,8.329,8.159,8.329h157.327
		c3.772,0,7.514-3.252,7.514-8.414V249.5h24.297L274.614,249.712z"/>
</g>
<g>
</g>
<g>
</g>
<g>
</g>
<g>
</g>
<g>
</g>
<g>
</g>
<g>
</g>
<g>
</g>
<g>
</g>
<g>
</g>
<g>
</g>
<g>
</g>
<g>
</g>
<g>
</g>
<g>
</g>
</svg>
