<?xml version="1.0" encoding="iso-8859-1"?>
<!-- Generator: Adobe Illustrator 17.1.0, SVG Export Plug-In . SVG Version: 6.00 Build 0)  -->
<!DOCTYPE svg PUBLIC "-//W3C//DTD SVG 1.1//EN" "http://www.w3.org/Graphics/SVG/1.1/DTD/svg11.dtd">
<svg version="1.1" id="Capa_1" xmlns="http://www.w3.org/2000/svg" xmlns:xlink="http://www.w3.org/1999/xlink" x="0px" y="0px"
	 viewBox="0 0 377 377" style="enable-background:new 0 0 377 377;" xml:space="preserve">
<path d="M335.5,35h-132V15c0-8.284-6.716-15-15-15c-8.284,0-15,6.716-15,15v20h-132c-5.514,0-10,4.486-10,10v44
	c0,5.514,4.486,10,10,10h3v128c0,17.645,14.355,32,32,32h97v17.27l-59.367,68.942c-5.406,6.278-4.699,15.749,1.579,21.155
	c2.833,2.439,6.315,3.634,9.781,3.634c4.215,0,8.407-1.768,11.374-5.212l36.633-42.542V362c0,8.284,6.716,15,15,15
	c8.284,0,15-6.716,15-15v-38.592l35.633,41.381c2.967,3.445,7.158,5.212,11.373,5.212c3.466,0,6.949-1.195,9.781-3.634
	c6.277-5.406,6.984-14.877,1.579-21.155L203.5,277.431V259h99c17.645,0,32-14.355,32-32V99h1c5.514,0,10-4.486,10-10V45
	C345.5,39.486,341.014,35,335.5,35z M304.5,227c0,1.065-0.935,2-2,2h-226c-1.065,0-2-0.935-2-2V99h230V227z"/>
<g>
</g>
<g>
</g>
<g>
</g>
<g>
</g>
<g>
</g>
<g>
</g>
<g>
</g>
<g>
</g>
<g>
</g>
<g>
</g>
<g>
</g>
<g>
</g>
<g>
</g>
<g>
</g>
<g>
</g>
</svg>
