<?xml version="1.0" encoding="iso-8859-1"?>
<!-- Generator: Adobe Illustrator 17.1.0, SVG Export Plug-In . SVG Version: 6.00 Build 0)  -->
<!DOCTYPE svg PUBLIC "-//W3C//DTD SVG 1.1//EN" "http://www.w3.org/Graphics/SVG/1.1/DTD/svg11.dtd">
<svg version="1.1" id="Capa_1" xmlns="http://www.w3.org/2000/svg" xmlns:xlink="http://www.w3.org/1999/xlink" x="0px" y="0px"
	 viewBox="0 0 338.732 338.732" style="enable-background:new 0 0 338.732 338.732;" xml:space="preserve">
<path d="M335.373,140.095c2.916-2.842,4.004-6.27,2.985-9.406c-1.019-3.136-3.915-5.271-7.944-5.857l-100.421-14.592
	c-2.733-0.396-6.471-3.113-7.692-5.589l-44.91-90.997c-1.802-3.651-4.727-5.746-8.024-5.746c-3.297,0-6.222,2.095-8.024,5.746
	l-44.91,90.997c-1.222,2.476-4.96,5.192-7.693,5.589L8.318,124.833c-4.03,0.586-6.926,2.72-7.944,5.855
	c-1.019,3.136,0.069,6.564,2.985,9.407l72.666,70.831c1.977,1.928,3.405,6.323,2.938,9.044L61.808,319.986
	c-0.708,4.129,0.577,6.695,1.779,8.121c2.511,2.979,6.904,3.572,11.205,1.311l89.819-47.221c1.145-0.602,2.922-0.961,4.755-0.961
	c1.833,0,3.61,0.359,4.754,0.961l89.819,47.221c1.773,0.932,3.523,1.404,5.202,1.404c2.395,0,4.527-0.965,6.003-2.716
	c1.202-1.426,2.487-3.992,1.779-8.121L259.769,219.97c-0.467-2.721,0.961-7.116,2.938-9.044L335.373,140.095z"/>
<g>
</g>
<g>
</g>
<g>
</g>
<g>
</g>
<g>
</g>
<g>
</g>
<g>
</g>
<g>
</g>
<g>
</g>
<g>
</g>
<g>
</g>
<g>
</g>
<g>
</g>
<g>
</g>
<g>
</g>
</svg>
