<?xml version="1.0" encoding="iso-8859-1"?>
<!-- Generator: Adobe Illustrator 17.1.0, SVG Export Plug-In . SVG Version: 6.00 Build 0)  -->
<!DOCTYPE svg PUBLIC "-//W3C//DTD SVG 1.1//EN" "http://www.w3.org/Graphics/SVG/1.1/DTD/svg11.dtd">
<svg version="1.1" id="Capa_1" xmlns="http://www.w3.org/2000/svg" xmlns:xlink="http://www.w3.org/1999/xlink" x="0px" y="0px"
	 viewBox="0 0 357.5 357.5" style="enable-background:new 0 0 357.5 357.5;" xml:space="preserve">
<path d="M340,308.5h-17v-41c0-8.271-6.729-15-15-15h-33c-8.271,0-15,6.729-15,15v41h-36v-217c0-8.271-6.729-15-15-15h-33
	c-8.271,0-15,6.729-15,15v217h-36v-105c0-8.271-6.729-15-15-15H77c-8.271,0-15,6.729-15,15v105H35v-277C35,21.835,27.165,14,17.5,14
	S0,21.835,0,31.5V316c0,15.164,12.336,27.5,27.5,27.5H340c9.665,0,17.5-7.835,17.5-17.5S349.665,308.5,340,308.5z"/>
<g>
</g>
<g>
</g>
<g>
</g>
<g>
</g>
<g>
</g>
<g>
</g>
<g>
</g>
<g>
</g>
<g>
</g>
<g>
</g>
<g>
</g>
<g>
</g>
<g>
</g>
<g>
</g>
<g>
</g>
</svg>
