<?xml version="1.0" encoding="iso-8859-1"?>
<!-- Generator: Adobe Illustrator 17.1.0, SVG Export Plug-In . SVG Version: 6.00 Build 0)  -->
<!DOCTYPE svg PUBLIC "-//W3C//DTD SVG 1.1//EN" "http://www.w3.org/Graphics/SVG/1.1/DTD/svg11.dtd">
<svg version="1.1" id="Capa_1" xmlns="http://www.w3.org/2000/svg" xmlns:xlink="http://www.w3.org/1999/xlink" x="0px" y="0px"
	 viewBox="0 0 363.5 363.5" style="enable-background:new 0 0 363.5 363.5;" xml:space="preserve">
<path d="M346,312.5h-20v-101c0-8.271-6.729-15-15-15h-33c-8.271,0-15,6.729-15,15v101h-38v-160c0-8.271-6.729-15-15-15h-33
	c-8.271,0-15,6.729-15,15v160h-37v-220c0-8.271-6.729-15-15-15H77c-8.271,0-15,6.729-15,15v220H35v-279C35,23.835,27.165,16,17.5,16
	S0,23.835,0,33.5V320c0,15.164,12.336,27.5,27.5,27.5H346c9.665,0,17.5-7.835,17.5-17.5S355.665,312.5,346,312.5z"/>
<g>
</g>
<g>
</g>
<g>
</g>
<g>
</g>
<g>
</g>
<g>
</g>
<g>
</g>
<g>
</g>
<g>
</g>
<g>
</g>
<g>
</g>
<g>
</g>
<g>
</g>
<g>
</g>
<g>
</g>
</svg>
