<?xml version="1.0" encoding="iso-8859-1"?>
<!-- Generator: Adobe Illustrator 17.1.0, SVG Export Plug-In . SVG Version: 6.00 Build 0)  -->
<!DOCTYPE svg PUBLIC "-//W3C//DTD SVG 1.1//EN" "http://www.w3.org/Graphics/SVG/1.1/DTD/svg11.dtd">
<svg version="1.1" id="Capa_1" xmlns="http://www.w3.org/2000/svg" xmlns:xlink="http://www.w3.org/1999/xlink" x="0px" y="0px"
	 viewBox="0 0 347 347" style="enable-background:new 0 0 347 347;" xml:space="preserve">
<path d="M327.364,44H19.237C8.45,44,0,52.239,0,62.757v220.382C0,293.905,8.81,303,19.237,303h308.128
	c10.643,0,19.636-9.095,19.636-19.861V62.757C347,52.239,338.375,44,327.364,44z M34.135,191.591
	c-10.083,0-18.257-8.174-18.257-18.258c0-10.083,8.174-18.257,18.257-18.257s18.257,8.174,18.257,18.257
	C52.392,183.417,44.218,191.591,34.135,191.591z M304,266.044c0,4.938-3.923,8.956-8.745,8.956H75.521
	c-4.778,0-8.521-3.934-8.521-8.956V79.853C67,74.889,70.743,71,75.521,71h219.734c4.822,0,8.745,3.971,8.745,8.853V266.044z"/>
<g>
</g>
<g>
</g>
<g>
</g>
<g>
</g>
<g>
</g>
<g>
</g>
<g>
</g>
<g>
</g>
<g>
</g>
<g>
</g>
<g>
</g>
<g>
</g>
<g>
</g>
<g>
</g>
<g>
</g>
</svg>
