<?xml version="1.0" encoding="iso-8859-1"?>
<!-- Generator: Adobe Illustrator 17.1.0, SVG Export Plug-In . SVG Version: 6.00 Build 0)  -->
<!DOCTYPE svg PUBLIC "-//W3C//DTD SVG 1.1//EN" "http://www.w3.org/Graphics/SVG/1.1/DTD/svg11.dtd">
<svg version="1.1" id="Capa_1" xmlns="http://www.w3.org/2000/svg" xmlns:xlink="http://www.w3.org/1999/xlink" x="0px" y="0px"
	 viewBox="0 0 342.116 342.116" style="enable-background:new 0 0 342.116 342.116;" xml:space="preserve">
<path d="M332.475,56.71L282.143,7.792c-4.984-4.843-13.28-7.901-21.135-7.789c-2.596,0.037-5.035,0.415-7.248,1.123L152.222,33.635
	c-8.142,2.607-19.19,9.453-25.152,15.585L6.655,173.115c-7.301,7.512-7.129,19.565,0.384,26.867l140.728,136.775
	c3.629,3.527,8.428,5.429,13.513,5.356c5.085-0.072,9.827-2.11,13.354-5.739l120.415-123.895
	c5.955-6.128,12.505-17.352,14.91-25.551l29.927-102.035C342.572,75.74,339.316,63.36,332.475,56.71z M178.931,280.045
	c-2.887,2.97-6.705,4.49-10.543,4.544c-3.839,0.055-7.698-1.355-10.668-4.242l-94.658-91.999c-5.941-5.774-6.077-15.27-0.302-21.211
	c5.774-5.941,15.271-6.076,21.211-0.302l94.658,91.999C184.57,264.608,184.705,274.104,178.931,280.045z M282.693,100.732
	c-5.857,6.027-13.711,9.413-22.115,9.532c-8.404,0.12-16.353-3.04-22.38-8.899c-12.442-12.092-12.727-32.054-0.634-44.496
	c5.858-6.028,13.713-9.413,22.117-9.533c8.404-0.12,16.352,3.041,22.379,8.898C294.502,68.328,294.786,88.29,282.693,100.732z"/>
<g>
</g>
<g>
</g>
<g>
</g>
<g>
</g>
<g>
</g>
<g>
</g>
<g>
</g>
<g>
</g>
<g>
</g>
<g>
</g>
<g>
</g>
<g>
</g>
<g>
</g>
<g>
</g>
<g>
</g>
</svg>
