<?xml version="1.0" encoding="iso-8859-1"?>
<!-- Generator: Adobe Illustrator 17.1.0, SVG Export Plug-In . SVG Version: 6.00 Build 0)  -->
<!DOCTYPE svg PUBLIC "-//W3C//DTD SVG 1.1//EN" "http://www.w3.org/Graphics/SVG/1.1/DTD/svg11.dtd">
<svg version="1.1" id="Capa_1" xmlns="http://www.w3.org/2000/svg" xmlns:xlink="http://www.w3.org/1999/xlink" x="0px" y="0px"
	 viewBox="0 0 364.605 364.605" style="enable-background:new 0 0 364.605 364.605;" xml:space="preserve">
<g>
	<path d="M182.303,0C81.78,0,0,81.78,0,182.303s81.78,182.303,182.303,182.303s182.303-81.78,182.303-182.303S282.825,0,182.303,0z
		 M182.303,334.605C98.322,334.605,30,266.283,30,182.303C30,98.322,98.322,30,182.303,30s152.303,68.322,152.303,152.303
		C334.605,266.283,266.283,334.605,182.303,334.605z"/>
	<path d="M182.303,69.669c-62.106,0-112.634,50.527-112.634,112.634c0,62.106,50.527,112.634,112.634,112.634
		c62.106,0,112.634-50.527,112.634-112.634C294.937,120.196,244.409,69.669,182.303,69.669z M182.303,264.936
		c-45.564,0-82.634-37.069-82.634-82.634c0-45.564,37.069-82.634,82.634-82.634c45.564,0,82.634,37.069,82.634,82.634
		C264.937,227.867,227.867,264.936,182.303,264.936z"/>
	<path d="M182.303,138.833c-23.97,0-43.47,19.5-43.47,43.47s19.5,43.47,43.47,43.47c23.97,0,43.47-19.5,43.47-43.47
		S206.273,138.833,182.303,138.833z"/>
</g>
<g>
</g>
<g>
</g>
<g>
</g>
<g>
</g>
<g>
</g>
<g>
</g>
<g>
</g>
<g>
</g>
<g>
</g>
<g>
</g>
<g>
</g>
<g>
</g>
<g>
</g>
<g>
</g>
<g>
</g>
</svg>
