<?xml version="1.0" encoding="iso-8859-1"?>
<!-- Generator: Adobe Illustrator 17.1.0, SVG Export Plug-In . SVG Version: 6.00 Build 0)  -->
<!DOCTYPE svg PUBLIC "-//W3C//DTD SVG 1.1//EN" "http://www.w3.org/Graphics/SVG/1.1/DTD/svg11.dtd">
<svg version="1.1" id="Capa_1" xmlns="http://www.w3.org/2000/svg" xmlns:xlink="http://www.w3.org/1999/xlink" x="0px" y="0px"
	 viewBox="0 0 372.095 372.095" style="enable-background:new 0 0 372.095 372.095;" xml:space="preserve">
<g>
	<path d="M297.025,157.004c-1.191-2.289-3.653-3.778-6.587-3.778h-4.771V84.611c0-4.962-4.296-9.385-9.259-9.385h-17.703
		c-4.963,0-9.038,4.423-9.038,9.385v68.615h-4.989c-2.933,0-5.395,1.488-6.586,3.776c-1.19,2.288-0.898,5.149,0.786,7.553
		l22.291,31.848c1.551,2.212,3.88,3.497,6.391,3.497c2.51,0,4.839-1.261,6.39-3.474l22.289-31.872
		C297.921,162.151,298.215,159.292,297.025,157.004z"/>
	<path d="M214.666,206.71V49.845C214.666,22.36,192.151,0,164.667,0c-27.485,0-50.001,22.36-50.001,49.845V206.71
		c-25,16.627-40.319,44.705-40.319,75.181c0,49.738,40.484,90.203,90.222,90.203c49.737,0,90.328-40.465,90.328-90.203
		C254.898,251.415,239.666,223.338,214.666,206.71z M164.667,28.229c11.919,0,21.999,9.697,21.999,21.616v117.957
		c-6-1.238-13.874-1.122-22-1.122s-16-0.116-22,1.122V49.845C142.666,37.925,152.747,28.229,164.667,28.229z"/>
</g>
<g>
</g>
<g>
</g>
<g>
</g>
<g>
</g>
<g>
</g>
<g>
</g>
<g>
</g>
<g>
</g>
<g>
</g>
<g>
</g>
<g>
</g>
<g>
</g>
<g>
</g>
<g>
</g>
<g>
</g>
</svg>
