<?xml version="1.0" encoding="iso-8859-1"?>
<!-- Generator: Adobe Illustrator 17.1.0, SVG Export Plug-In . SVG Version: 6.00 Build 0)  -->
<!DOCTYPE svg PUBLIC "-//W3C//DTD SVG 1.1//EN" "http://www.w3.org/Graphics/SVG/1.1/DTD/svg11.dtd">
<svg version="1.1" id="Capa_1" xmlns="http://www.w3.org/2000/svg" xmlns:xlink="http://www.w3.org/1999/xlink" x="0px" y="0px"
	 viewBox="0 0 372.095 372.095" style="enable-background:new 0 0 372.095 372.095;" xml:space="preserve">
<g>
	<path d="M296.319,112.835l-22.291-31.816c-1.551-2.213-3.88-3.482-6.39-3.482c-2.511,0-4.84,1.269-6.391,3.482l-22.289,31.814
		c-1.684,2.402-1.977,5.327-0.787,7.615c1.19,2.289,3.653,3.779,6.587,3.779h4.668v68.614c0,4.962,4.399,9.386,9.362,9.386h17.703
		c4.963,0,8.935-4.424,8.935-9.386v-68.614h5.093c2.933,0,5.395-1.489,6.586-3.776C298.295,118.161,298.002,115.238,296.319,112.835
		z"/>
	<path d="M214.426,206.71V49.845c0-27.484-22.515-49.845-50-49.845c-27.484,0-50,22.36-50,49.845V206.71
		c-25,16.627-40.159,44.704-40.159,75.181c0,49.738,40.564,90.203,90.303,90.203s90.209-40.465,90.209-90.203
		C254.779,251.415,239.426,223.337,214.426,206.71z M164.926,28.229c11.919,0,21.5,9.697,21.5,21.616v47.957
		c-6-1.237-13.374-1.121-21.5-1.121c-8.126,0-15.5-0.116-21.5,1.122V49.845C143.426,37.925,153.007,28.229,164.926,28.229z"/>
</g>
<g>
</g>
<g>
</g>
<g>
</g>
<g>
</g>
<g>
</g>
<g>
</g>
<g>
</g>
<g>
</g>
<g>
</g>
<g>
</g>
<g>
</g>
<g>
</g>
<g>
</g>
<g>
</g>
<g>
</g>
</svg>
