<?xml version="1.0" encoding="iso-8859-1"?>
<!-- Generator: Adobe Illustrator 17.1.0, SVG Export Plug-In . SVG Version: 6.00 Build 0)  -->
<!DOCTYPE svg PUBLIC "-//W3C//DTD SVG 1.1//EN" "http://www.w3.org/Graphics/SVG/1.1/DTD/svg11.dtd">
<svg version="1.1" id="Capa_1" xmlns="http://www.w3.org/2000/svg" xmlns:xlink="http://www.w3.org/1999/xlink" x="0px" y="0px"
	 viewBox="0 0 342.14 342.14" style="enable-background:new 0 0 342.14 342.14;" xml:space="preserve">
<g>
	<path d="M232.434,178.419l26.233-45.026c2.903-4.983,3.248-10.139,0.945-14.145c-2.3-4.002-6.919-6.297-12.726-6.297l-75.378,0.178
		c-2.369,0-4.268-0.789-5.345-2.222c-1.079-1.436-1.311-3.482-0.651-5.765l24.387-84.368c1.531-5.298,0.705-10.604-2.268-14.557
		C184.662,2.266,179.798,0,174.254,0L77.986,0.154c-10.632,0.017-20.6,8.579-22.222,19.086L33.768,161.732
		c-0.834,5.4,0.56,10.535,3.923,14.458c3.362,3.921,8.22,6.082,13.747,6.082l93.607-0.306c2.492,0,4.648,0.924,6.072,2.589
		c1.425,1.666,1.996,3.957,1.608,6.423L132.424,320.12c-0.823,5.236-0.419,8.411,1.351,10.482c1.115,1.305,2.728,2.165,4.425,2.165
		c0.001,0,0.001,0,0.001,0c3.907,0,6.592-3.816,8.704-7.44l11.487-19.806c14.707,22.055,39.801,36.618,68.241,36.618
		c45.201,0,81.975-36.773,81.975-81.974C308.608,216.917,274.936,181.408,232.434,178.419z M226.633,312.14
		c-28.658,0-51.974-23.316-51.974-51.974s23.315-51.974,51.974-51.974c28.659,0,51.975,23.315,51.975,51.974
		S255.292,312.14,226.633,312.14z"/>
	<path d="M244.787,248.767h-38c-5.514,0-10,4.486-10,10v2c0,5.514,4.486,10,10,10h38c5.514,0,10-4.486,10-10v-2
		C254.787,253.253,250.301,248.767,244.787,248.767z"/>
</g>
<g>
</g>
<g>
</g>
<g>
</g>
<g>
</g>
<g>
</g>
<g>
</g>
<g>
</g>
<g>
</g>
<g>
</g>
<g>
</g>
<g>
</g>
<g>
</g>
<g>
</g>
<g>
</g>
<g>
</g>
</svg>
