<?xml version="1.0" encoding="iso-8859-1"?>
<!-- Generator: Adobe Illustrator 17.1.0, SVG Export Plug-In . SVG Version: 6.00 Build 0)  -->
<!DOCTYPE svg PUBLIC "-//W3C//DTD SVG 1.1//EN" "http://www.w3.org/Graphics/SVG/1.1/DTD/svg11.dtd">
<svg version="1.1" id="Capa_1" xmlns="http://www.w3.org/2000/svg" xmlns:xlink="http://www.w3.org/1999/xlink" x="0px" y="0px"
	 viewBox="0 0 342.14 342.14" style="enable-background:new 0 0 342.14 342.14;" xml:space="preserve">
<g>
	<path d="M244.788,249.767h-7.547c-0.159,0-0.336-0.069-0.453-0.143v-7.857c0-5.607-4.193-10-9.547-10h-1.28
		c-5.515,0-10.173,4.58-10.173,10l-0.003,8h-7.997c-5.42,0-10,4.659-10,10.173v1.28c0,5.353,4.393,9.547,10,9.547h7.857
		c0.074,0.117,0.143,0.294,0.143,0.453v7.547c0,5.42,4.659,10,10.173,10h1.28c5.354,0,9.547-4.393,9.547-10v-7.456
		c0.079-0.188,0.357-0.466,0.544-0.544h7.456c5.607,0,10-4.193,10-9.547v-1.28C254.788,254.426,250.208,249.767,244.788,249.767z"/>
	<path d="M232.434,178.419l26.234-45.026c2.903-4.983,3.247-10.139,0.945-14.145c-2.3-4.002-6.919-6.297-12.726-6.297l-75.378,0.178
		c-2.369,0-4.267-0.789-5.344-2.222c-1.08-1.435-1.311-3.482-0.651-5.765L189.9,20.774c1.532-5.298,0.706-10.604-2.267-14.557
		C184.663,2.266,179.798,0,174.254,0L77.986,0.154c-10.632,0.017-20.6,8.579-22.222,19.086L33.768,161.732
		c-0.834,5.4,0.56,10.535,3.923,14.458c3.362,3.921,8.22,6.082,13.747,6.082l93.607-0.306c2.492,0,4.648,0.924,6.072,2.589
		c1.425,1.666,1.996,3.957,1.608,6.423L132.424,320.12c-0.823,5.236-0.419,8.411,1.351,10.482c1.115,1.305,2.728,2.165,4.425,2.165
		c0.001,0,0.001,0,0.001,0c3.907,0,6.592-3.816,8.704-7.44l11.487-19.806c14.707,22.054,39.801,36.618,68.241,36.618
		c45.201,0,81.974-36.773,81.974-81.974C308.607,216.917,274.935,181.408,232.434,178.419z M226.633,312.14
		c-28.659,0-51.974-23.316-51.974-51.974s23.315-51.974,51.974-51.974s51.974,23.315,51.974,51.974S255.292,312.14,226.633,312.14z"
		/>
</g>
<g>
</g>
<g>
</g>
<g>
</g>
<g>
</g>
<g>
</g>
<g>
</g>
<g>
</g>
<g>
</g>
<g>
</g>
<g>
</g>
<g>
</g>
<g>
</g>
<g>
</g>
<g>
</g>
<g>
</g>
</svg>
