<?xml version="1.0" encoding="iso-8859-1"?>
<!-- Generator: Adobe Illustrator 17.1.0, SVG Export Plug-In . SVG Version: 6.00 Build 0)  -->
<!DOCTYPE svg PUBLIC "-//W3C//DTD SVG 1.1//EN" "http://www.w3.org/Graphics/SVG/1.1/DTD/svg11.dtd">
<svg version="1.1" id="Capa_1" xmlns="http://www.w3.org/2000/svg" xmlns:xlink="http://www.w3.org/1999/xlink" x="0px" y="0px"
	 viewBox="0 0 346.674 346.674" style="enable-background:new 0 0 346.674 346.674;" xml:space="preserve">
<g>
	<path d="M125.294,48.954C125.936,57.179,133.212,64,141.462,64h64c8.25,0,15.526-6.821,16.168-15.046l2.663-34.045
		C224.936,6.684,218.712,0,210.462,0h-74c-8.25,0-14.474,6.684-13.832,14.908L125.294,48.954z"/>
	<path d="M257.262,257.94L223.412,96.492C221.721,88.418,213.587,82,205.337,82h-64c-8.25,0-16.384,6.418-18.075,14.492
		L89.412,258.035c-1.691,8.075,1.894,19.203,7.967,24.787l64.917,59.67c6.073,5.585,16.01,5.573,22.083-0.012l64.917-59.699
		C255.368,277.197,258.953,266.015,257.262,257.94z"/>
</g>
<g>
</g>
<g>
</g>
<g>
</g>
<g>
</g>
<g>
</g>
<g>
</g>
<g>
</g>
<g>
</g>
<g>
</g>
<g>
</g>
<g>
</g>
<g>
</g>
<g>
</g>
<g>
</g>
<g>
</g>
</svg>
