<?xml version="1.0" encoding="iso-8859-1"?>
<!-- Generator: Adobe Illustrator 17.1.0, SVG Export Plug-In . SVG Version: 6.00 Build 0)  -->
<!DOCTYPE svg PUBLIC "-//W3C//DTD SVG 1.1//EN" "http://www.w3.org/Graphics/SVG/1.1/DTD/svg11.dtd">
<svg version="1.1" id="Capa_1" xmlns="http://www.w3.org/2000/svg" xmlns:xlink="http://www.w3.org/1999/xlink" x="0px" y="0px"
	 viewBox="0 0 362 362" style="enable-background:new 0 0 362 362;" xml:space="preserve">
<g>
	<path d="M194.177,219.659l14.105-14.103c3.975,1.155,8.085,1.739,12.261,1.739c11.708,0,22.714-4.558,30.991-12.835
		c11.586-11.585,15.732-28.506,10.823-44.162c-0.933-2.97-3.85-5.045-7.094-5.045c-1.758,0-4.384,0.595-6.968,3.41l-15.715,15.713
		c-1.22,1.221-2.738,1.32-3.009,1.049l-6.238-6.238c-0.244-0.244-0.261-1.702,1.049-3.012l15.601-15.6
		c2.635-2.077,3.908-5.123,3.417-8.233c-0.44-2.787-2.275-5.085-4.676-5.855c-4.343-1.393-8.862-2.099-13.434-2.099
		c-11.707,0-22.714,4.559-30.992,12.837c-11.329,11.332-15.517,27.999-11.095,43.252l-14.103,14.104
		c-1.347-0.94-2.947-1.447-4.627-1.447c-2.163,0-4.195,0.84-5.723,2.367l-58.806,58.804c-3.152,3.156-3.151,8.29,0.004,11.447
		l23.06,23.059c1.527,1.526,3.56,2.367,5.724,2.367c2.164,0,4.196-0.84,5.724-2.367l58.804-58.803
		C196.069,227.197,196.375,222.815,194.177,219.659z"/>
	<path d="M227.762,229.018c-0.708-0.745-4.262-3.351-7.945-0.011c-0.762,0.692-18.618,17.73-26.567,26.076
		c-3.333,3.5-0.26,6.886-0.26,6.886l36.788,36.788c1.513,1.512,3.527,2.344,5.672,2.344c2.144,0,4.158-0.833,5.676-2.349
		l22.51-22.512c1.516-1.513,2.35-3.529,2.349-5.676c-0.001-2.144-0.834-4.158-2.347-5.671L227.762,229.018z"/>
	<path d="M134.832,187.907c3.322-2.573,15.956-14.56,18.585-16.907c2.333-2.083,2.25-4.917-1.598-8.718l-31.29-31.29
		c-1.979-1.982-5.308-3.593-8.097-3.919l-13.145-1.532c-2.522-0.298-4.788,0.566-6.394,2.302c-1.418,1.534-2.104,3.565-1.935,5.72
		l1.089,13.794c0.228,2.855,1.8,6.262,3.824,8.287l30.879,30.878C127.522,187.369,131,190.875,134.832,187.907z"/>
	<path d="M332,16.5H30c-16.542,0-30,13.458-30,30v269c0,16.542,13.458,30,30,30h302c16.542,0,30-13.458,30-30v-269
		C362,29.958,348.542,16.5,332,16.5z M117.837,45.888c5.675,0,10.276,4.601,10.276,10.276s-4.601,10.276-10.276,10.276
		c-5.675,0-10.276-4.601-10.276-10.276S112.162,45.888,117.837,45.888z M81.371,45.888c5.675,0,10.276,4.601,10.276,10.276
		s-4.601,10.276-10.276,10.276c-5.675,0-10.276-4.601-10.276-10.276S75.695,45.888,81.371,45.888z M44.904,45.888
		c5.675,0,10.276,4.601,10.276,10.276S50.58,66.439,44.904,66.439c-5.675,0-10.276-4.601-10.276-10.276S39.229,45.888,44.904,45.888
		z M332,315.5H30v-228h302.003l0.016,228C332.019,315.5,332.013,315.5,332,315.5z"/>
</g>
<g>
</g>
<g>
</g>
<g>
</g>
<g>
</g>
<g>
</g>
<g>
</g>
<g>
</g>
<g>
</g>
<g>
</g>
<g>
</g>
<g>
</g>
<g>
</g>
<g>
</g>
<g>
</g>
<g>
</g>
</svg>
