<?xml version="1.0" encoding="iso-8859-1"?>
<!-- Generator: Adobe Illustrator 17.1.0, SVG Export Plug-In . SVG Version: 6.00 Build 0)  -->
<!DOCTYPE svg PUBLIC "-//W3C//DTD SVG 1.1//EN" "http://www.w3.org/Graphics/SVG/1.1/DTD/svg11.dtd">
<svg version="1.1" id="Capa_1" xmlns="http://www.w3.org/2000/svg" xmlns:xlink="http://www.w3.org/1999/xlink" x="0px" y="0px"
	 viewBox="0 0 371.707 371.707" style="enable-background:new 0 0 371.707 371.707;" xml:space="preserve">
<path d="M293.577,83.805c-27.496-30.484-61.193-48.628-95.956-51.941V15c0-8.284-6.716-15-15-15c-8.284,0-15,6.716-15,15v17.646
	c-32.46,4.828-63.702,22.57-89.49,51.16c-27.761,30.777-44.351,69.232-44.376,102.872c0,4.194,3.28,7.657,7.443,7.882
	c0.155,0.009,0.311,0.014,0.468,0.014c2.188,0,4.288-0.876,5.75-2.392c9.8-10.1,22.934-15.662,36.978-15.662
	c13.984,0.008,27.07,5.512,36.846,15.496c1.475,1.509,3.531,2.374,5.641,2.374c1.886,0,3.713-0.678,5.144-1.909
	c10.286-8.851,22.532-15.046,35.597-18.156v146.189c0,12.082-8.492,21.193-19.754,21.193c-11.878,0-21.913-9.706-21.913-21.193
	c0-8.284-6.716-15-15-15c-8.284,0-15,6.716-15,15c0,28.228,23.288,51.193,51.913,51.193c27.899,0,49.754-22.487,49.754-51.193
	V173.062c15.478,2.43,30.098,9.121,42.056,19.413c1.43,1.235,3.259,1.915,5.15,1.915c2.139,0,4.142-0.841,5.644-2.372
	c9.772-9.987,22.858-15.49,36.846-15.498c14.042,0,27.176,5.563,36.967,15.649c1.57,1.629,3.898,2.518,6.201,2.393
	c4.188-0.227,7.468-3.689,7.468-7.888C337.925,153.036,321.336,114.581,293.577,83.805z"/>
<g>
</g>
<g>
</g>
<g>
</g>
<g>
</g>
<g>
</g>
<g>
</g>
<g>
</g>
<g>
</g>
<g>
</g>
<g>
</g>
<g>
</g>
<g>
</g>
<g>
</g>
<g>
</g>
<g>
</g>
</svg>
