<?xml version="1.0" encoding="iso-8859-1"?>
<!-- Generator: Adobe Illustrator 17.1.0, SVG Export Plug-In . SVG Version: 6.00 Build 0)  -->
<!DOCTYPE svg PUBLIC "-//W3C//DTD SVG 1.1//EN" "http://www.w3.org/Graphics/SVG/1.1/DTD/svg11.dtd">
<svg version="1.1" id="Capa_1" xmlns="http://www.w3.org/2000/svg" xmlns:xlink="http://www.w3.org/1999/xlink" x="0px" y="0px"
	 viewBox="0 0 334 334" style="enable-background:new 0 0 334 334;" xml:space="preserve">
<path d="M273.666,120H99v-17.125C99,65.449,129.449,35,166.875,35h0.25c18.13,0,35.175,7.06,47.995,19.88
	c6.834,6.834,17.914,6.834,24.748,0c6.835-6.835,6.835-17.915,0-24.749C220.438,10.701,194.604,0,167.125,0h-0.25
	C110.149,0,64,46.149,64,102.875V120h-2.735C51.464,120,47,125.93,47,131.439v191.669C47,329.835,53.399,334,59.328,334h216.274
	c6.498,0,11.397-4.683,11.397-10.892V131.439C287,125.909,283.497,120,273.666,120z M189.892,213.736l-0.227,0.005
	c-2.997,0.136-8.665,2.689-8.665,11.374v19.76c0,7.768-5.93,13.852-13.5,13.852s-13.5-6.084-13.5-13.852v-19.76
	c0-7.627-5.755-10.591-8.799-11.162L144.744,214h-0.465c-7.612,0-13.575-6.004-13.575-13.5s5.991-13.5,13.639-13.5h45.719
	c7.582,0,13.521,5.872,13.521,13.368C203.584,207.739,197.441,213.736,189.892,213.736z"/>
<g>
</g>
<g>
</g>
<g>
</g>
<g>
</g>
<g>
</g>
<g>
</g>
<g>
</g>
<g>
</g>
<g>
</g>
<g>
</g>
<g>
</g>
<g>
</g>
<g>
</g>
<g>
</g>
<g>
</g>
</svg>
