<?xml version="1.0" encoding="iso-8859-1"?>
<!-- Generator: Adobe Illustrator 17.1.0, SVG Export Plug-In . SVG Version: 6.00 Build 0)  -->
<!DOCTYPE svg PUBLIC "-//W3C//DTD SVG 1.1//EN" "http://www.w3.org/Graphics/SVG/1.1/DTD/svg11.dtd">
<svg version="1.1" id="Capa_1" xmlns="http://www.w3.org/2000/svg" xmlns:xlink="http://www.w3.org/1999/xlink" x="0px" y="0px"
	 viewBox="0 0 362.88 362.88" style="enable-background:new 0 0 362.88 362.88;" xml:space="preserve">
<g>
	<path d="M119.764,125.84h24.675v63.701c0,4.962,4.483,9.299,9.446,9.299h54.52c4.963,0,9.033-4.336,9.033-9.299V125.84h25.097
		c2.934,0,5.396-1.579,6.587-3.868c1.19-2.288,0.896-5.195-0.787-7.597l-60.793-86.828c-1.551-2.212-3.88-3.508-6.39-3.508
		c-2.511,0-4.84,1.256-6.391,3.469l-60.798,86.771c-1.684,2.402-1.978,5.41-0.787,7.698
		C114.369,124.267,116.831,125.84,119.764,125.84z"/>
	<path d="M362.435,328.349l-32.186-97.451c-1.348-4.089-5.554-7.058-10.001-7.058H42.63c-4.459,0-8.665,2.942-10.001,6.995
		L0.442,328.471c-0.836,2.539-0.476,5.157,0.99,7.183c1.465,2.025,3.836,3.186,6.507,3.186h347c2.644,0,5.005-1.167,6.477-3.204
		C362.91,333.572,363.281,330.917,362.435,328.349z"/>
</g>
<g>
</g>
<g>
</g>
<g>
</g>
<g>
</g>
<g>
</g>
<g>
</g>
<g>
</g>
<g>
</g>
<g>
</g>
<g>
</g>
<g>
</g>
<g>
</g>
<g>
</g>
<g>
</g>
<g>
</g>
</svg>
