<?xml version="1.0" encoding="iso-8859-1"?>
<!-- Generator: Adobe Illustrator 17.1.0, SVG Export Plug-In . SVG Version: 6.00 Build 0)  -->
<!DOCTYPE svg PUBLIC "-//W3C//DTD SVG 1.1//EN" "http://www.w3.org/Graphics/SVG/1.1/DTD/svg11.dtd">
<svg version="1.1" id="Capa_1" xmlns="http://www.w3.org/2000/svg" xmlns:xlink="http://www.w3.org/1999/xlink" x="0px" y="0px"
	 viewBox="0 0 375.126 375.126" style="enable-background:new 0 0 375.126 375.126;" xml:space="preserve">
<g>
	<path d="M187.571,176.296c48.594,0,88.128-39.542,88.128-88.147C275.698,39.543,236.164,0,187.571,0
		c-48.602,0-88.143,39.543-88.143,88.149C99.428,136.753,138.969,176.296,187.571,176.296z"/>
	<path d="M308.222,298.503l-15.229-77.177c-2.077-10.521-12.096-18.763-22.81-18.763H104.943c-10.714,0-20.733,8.242-22.81,18.764
		l-15.229,77.176c-1.97,9.979,2.857,22.582,10.989,28.692c2.605,1.957,64.316,47.931,109.67,47.931s107.065-45.974,109.67-47.931
		C305.365,321.085,310.192,308.482,308.222,298.503z"/>
</g>
<g>
</g>
<g>
</g>
<g>
</g>
<g>
</g>
<g>
</g>
<g>
</g>
<g>
</g>
<g>
</g>
<g>
</g>
<g>
</g>
<g>
</g>
<g>
</g>
<g>
</g>
<g>
</g>
<g>
</g>
</svg>
