<?xml version="1.0" encoding="iso-8859-1"?>
<!-- Generator: Adobe Illustrator 17.1.0, SVG Export Plug-In . SVG Version: 6.00 Build 0)  -->
<!DOCTYPE svg PUBLIC "-//W3C//DTD SVG 1.1//EN" "http://www.w3.org/Graphics/SVG/1.1/DTD/svg11.dtd">
<svg version="1.1" id="Capa_1" xmlns="http://www.w3.org/2000/svg" xmlns:xlink="http://www.w3.org/1999/xlink" x="0px" y="0px"
	 viewBox="0 0 362.159 362.159" style="enable-background:new 0 0 362.159 362.159;" xml:space="preserve">
<path d="M346.951,154.097H206.708c-8.271,0-14.549,6.289-14.549,14.561v40.439h-30v-34.42c19-17.675,31.083-42.921,31.083-70.912
	c0-53.321-43.353-96.702-96.673-96.702S0,50.444,0,103.765c0,27.99,12.16,53.236,31.16,70.911v165.455
	c0,8.272,6.494,14.966,14.766,14.966h101.339c8.271,0,14.895-6.694,14.895-14.966v-87.034h30v32.98
	c0,8.271,6.277,15.021,14.549,15.021h140.242c8.271,0,15.209-6.749,15.209-15.021V168.657
	C362.159,160.386,355.222,154.097,346.951,154.097z M121.69,277.097H72.814c-8.284,0-15-6.716-15-15c0-8.284,6.716-15,15-15h48.876
	c8.284,0,15,6.716,15,15C136.69,270.381,129.974,277.097,121.69,277.097z M143.976,150.37
	c-12.058,12.258-28.828,19.866-47.381,19.866c-18.56,0-35.334-7.613-47.392-19.877c-11.929-11.969-19.307-28.557-19.307-46.816
	c0-36.779,29.921-66.48,66.699-66.48c36.778,0,66.699,29.7,66.699,66.48C163.294,121.807,155.912,138.4,143.976,150.37z"/>
<g>
</g>
<g>
</g>
<g>
</g>
<g>
</g>
<g>
</g>
<g>
</g>
<g>
</g>
<g>
</g>
<g>
</g>
<g>
</g>
<g>
</g>
<g>
</g>
<g>
</g>
<g>
</g>
<g>
</g>
</svg>
