<?xml version="1.0" encoding="iso-8859-1"?>
<!-- Generator: Adobe Illustrator 17.1.0, SVG Export Plug-In . SVG Version: 6.00 Build 0)  -->
<!DOCTYPE svg PUBLIC "-//W3C//DTD SVG 1.1//EN" "http://www.w3.org/Graphics/SVG/1.1/DTD/svg11.dtd">
<svg version="1.1" id="Capa_1" xmlns="http://www.w3.org/2000/svg" xmlns:xlink="http://www.w3.org/1999/xlink" x="0px" y="0px"
	 viewBox="0 0 350 350" style="enable-background:new 0 0 350 350;" xml:space="preserve">
<path d="M339.891,163.618c-1.984,0-3.992,0.536-6.007,1.593l-55.24,28.918c-0.522,0.274-0.644,0.591-1.644,0.927v-21.18
	c0-8.271-6.484-15.126-14.756-15.126h-33.02c20.473-12,34.205-34.66,34.205-60.234c0-38.762-31.534-70.265-70.296-70.265
	S122.837,59.738,122.837,98.5c0,25.574,13.732,48.249,34.206,60.249H90.199c14.498-9,24.135-25.462,24.135-43.92
	c0-28.787-23.42-52.176-52.208-52.176c-28.788,0-52.208,23.374-52.208,52.161c0,18.458,9.637,34.936,24.135,43.936h-18.75
	C7.033,158.749,0,165.604,0,173.876v133.342c0,8.272,7.033,14.532,15.304,14.532h246.94c8.271,0,14.756-6.261,14.756-14.532v-21.179
	c1,0.335,1.133,0.653,1.655,0.927l55.188,28.918c2.015,1.057,4.032,1.593,6.017,1.593c5.977,0,10.14-4.678,10.14-11.375V174.993
	C350,168.295,345.867,163.618,339.891,163.618z M180,277.75c0,5.523-4.477,10-10,10H52c-5.523,0-10-4.477-10-10v-74
	c0-5.523,4.477-10,10-10h118c5.523,0,10,4.477,10,10V277.75z"/>
<g>
</g>
<g>
</g>
<g>
</g>
<g>
</g>
<g>
</g>
<g>
</g>
<g>
</g>
<g>
</g>
<g>
</g>
<g>
</g>
<g>
</g>
<g>
</g>
<g>
</g>
<g>
</g>
<g>
</g>
</svg>
