<?xml version="1.0" encoding="iso-8859-1"?>
<!-- Generator: Adobe Illustrator 17.1.0, SVG Export Plug-In . SVG Version: 6.00 Build 0)  -->
<!DOCTYPE svg PUBLIC "-//W3C//DTD SVG 1.1//EN" "http://www.w3.org/Graphics/SVG/1.1/DTD/svg11.dtd">
<svg version="1.1" id="Capa_1" xmlns="http://www.w3.org/2000/svg" xmlns:xlink="http://www.w3.org/1999/xlink" x="0px" y="0px"
	 viewBox="0 0 323 323" style="enable-background:new 0 0 323 323;" xml:space="preserve">
<g>
	<path d="M81.5,47.937V11c0-6.065-4.935-11-11-11h-15c-6.065,0-11,4.935-11,11v36.242c-14.709,6.76-24.953,21.623-24.953,38.843
		c0,17.22,10.244,32.083,24.953,38.843V312c0,6.065,4.935,11,11,11h15c6.065,0,11-4.935,11-11V124.233
		c13.933-7.049,23.513-21.496,23.513-38.148C105.013,69.433,95.433,54.986,81.5,47.937z"/>
	<path d="M180.5,180.724V11c0-6.065-4.935-11-11-11h-15c-6.065,0-11,4.935-11,11v169.242c-14.591,6.806-24.733,21.609-24.733,38.744
		c0,17.134,10.142,31.937,24.733,38.743V312c0,6.065,4.935,11,11,11h15c6.065,0,11-4.935,11-11v-54.754
		c14.052-7.007,23.733-21.521,23.733-38.261C204.233,202.245,194.552,187.731,180.5,180.724z"/>
	<path d="M303.453,134.33c0-16.828-9.781-31.409-23.953-38.374V11c0-6.065-4.935-11-11-11h-15c-6.065,0-11,4.935-11,11v84.686
		c-14.474,6.852-24.513,21.595-24.513,38.643c0,17.049,10.039,31.792,24.513,38.644V312c0,6.065,4.935,11,11,11h15
		c6.065,0,11-4.935,11-11V172.704C293.672,165.74,303.453,151.158,303.453,134.33z"/>
</g>
<g>
</g>
<g>
</g>
<g>
</g>
<g>
</g>
<g>
</g>
<g>
</g>
<g>
</g>
<g>
</g>
<g>
</g>
<g>
</g>
<g>
</g>
<g>
</g>
<g>
</g>
<g>
</g>
<g>
</g>
</svg>
