<?xml version="1.0" encoding="iso-8859-1"?>
<!-- Generator: Adobe Illustrator 17.1.0, SVG Export Plug-In . SVG Version: 6.00 Build 0)  -->
<!DOCTYPE svg PUBLIC "-//W3C//DTD SVG 1.1//EN" "http://www.w3.org/Graphics/SVG/1.1/DTD/svg11.dtd">
<svg version="1.1" id="Capa_1" xmlns="http://www.w3.org/2000/svg" xmlns:xlink="http://www.w3.org/1999/xlink" x="0px" y="0px"
	 viewBox="0 0 357.124 357.124" style="enable-background:new 0 0 357.124 357.124;" xml:space="preserve">
<g>
	<path d="M341.062,110.02c0-13.176-10.7-23.896-23.852-23.896H40.148c-13.281,0-24.086,10.72-24.086,23.896v222.524
		c0,13.324,11.03,24.58,24.086,24.58h277.062c13.152,0,23.852-11.026,23.852-24.58v-50.671c0-5.929-3.995-14.749-15-14.749h-86.5
		c-3.925,0-7.5-3.391-7.5-7.115v-77.454c0-3.973,3.893-6.432,7.5-6.432h86.5c11.005,0,15-8.672,15-14.501V110.02z"/>
	<path d="M259.102,193.124c-4.434,0-8.04,3.607-8.04,8.04v39.92c0,4.433,3.606,8.04,8.04,8.04h72.92c4.434,0,8.04-3.607,8.04-8.04
		v-39.92c0-4.433-3.606-8.04-8.04-8.04H259.102z M289.538,221.124c0-8.581,6.98-15.562,15.561-15.562
		c8.581,0,15.561,6.981,15.561,15.562c0,8.581-6.98,15.561-15.561,15.561C296.519,236.684,289.538,229.704,289.538,221.124z"/>
	<path d="M41.721,63.124h270.682c7.659,0,13.659-6.149,13.659-14V12.692c0-7.236-5.306-12.692-12.34-12.692
		c-0.715,0-1.443,0.059-2.165,0.174L40.735,43.421c-6.289,1.004-13.057,4.727-13.057,10.529
		C27.678,59.352,33.453,63.124,41.721,63.124z"/>
</g>
<g>
</g>
<g>
</g>
<g>
</g>
<g>
</g>
<g>
</g>
<g>
</g>
<g>
</g>
<g>
</g>
<g>
</g>
<g>
</g>
<g>
</g>
<g>
</g>
<g>
</g>
<g>
</g>
<g>
</g>
</svg>
