<?xml version="1.0" encoding="iso-8859-1"?>
<!-- Generator: Adobe Illustrator 17.1.0, SVG Export Plug-In . SVG Version: 6.00 Build 0)  -->
<!DOCTYPE svg PUBLIC "-//W3C//DTD SVG 1.1//EN" "http://www.w3.org/Graphics/SVG/1.1/DTD/svg11.dtd">
<svg version="1.1" id="Capa_1" xmlns="http://www.w3.org/2000/svg" xmlns:xlink="http://www.w3.org/1999/xlink" x="0px" y="0px"
	 viewBox="0 0 383 383" style="enable-background:new 0 0 383 383;" xml:space="preserve">
<g>
	<path d="M308.541,150.131c-1.75-9.348-5.744-19.596-10.651-26.56l-29.135-41.026c-4.43-6.288-11.443-11.551-19.146-14.849
		l-8.034-53.549C240.384,6.214,233.168,0,225.146,0h-87.193c-8.021,0-15.238,6.214-16.429,14.148l-7.978,53.173
		c-8.03,3.266-15.402,8.697-20.008,15.233l-28.86,41.024C58.201,132.77,53.5,147.869,53.5,159.48v63.506
		c0,11.626,4.687,26.739,11.112,35.889l28.839,41.392c4.709,6.707,12.274,12.27,20.474,15.548l7.651,53.002
		c1.148,7.953,8.342,14.183,16.377,14.183h87.193c8.035,0,15.229-6.23,16.377-14.183l7.718-53.46
		c7.889-3.352,15.154-8.747,19.602-15.08l29.112-41.394c3.734-5.318,6.945-12.586,9.026-19.905
		c12.498-0.48,22.519-10.792,22.519-23.405v-42.144C329.5,161.344,320.303,151.369,308.541,150.131z M279.5,222.986
		c0,5.034-3.02,14.274-6.09,18.646l-29.112,41.394c-1.921,2.735-8.125,5.973-11.445,5.973H129.347
		c-3.341,0-9.385-3.182-11.312-5.928L89.195,241.68c-2.874-4.093-5.695-13.352-5.695-18.693V159.48
		c0-5.314,2.824-14.539,5.708-18.631l28.86-41.024c1.918-2.722,7.926-5.824,11.278-5.824h103.506c3.4,0,9.461,3.103,11.411,5.87
		l29.135,41.026c3.079,4.371,6.102,13.576,6.102,18.584V222.986z"/>
	<path d="M196.5,183.787V136c0-8.284-6.716-15-15-15s-15,6.716-15,15v49c0,6.706,3.186,14.398,7.929,19.142l39.465,39.464
		c2.929,2.929,6.768,4.394,10.606,4.394s7.678-1.464,10.606-4.394c5.858-5.858,5.858-15.355,0-21.213L196.5,183.787z"/>
</g>
<g>
</g>
<g>
</g>
<g>
</g>
<g>
</g>
<g>
</g>
<g>
</g>
<g>
</g>
<g>
</g>
<g>
</g>
<g>
</g>
<g>
</g>
<g>
</g>
<g>
</g>
<g>
</g>
<g>
</g>
</svg>
