<?xml version="1.0" encoding="iso-8859-1"?>
<!-- Generator: Adobe Illustrator 17.1.0, SVG Export Plug-In . SVG Version: 6.00 Build 0)  -->
<!DOCTYPE svg PUBLIC "-//W3C//DTD SVG 1.1//EN" "http://www.w3.org/Graphics/SVG/1.1/DTD/svg11.dtd">
<svg version="1.1" id="Capa_1" xmlns="http://www.w3.org/2000/svg" xmlns:xlink="http://www.w3.org/1999/xlink" x="0px" y="0px"
	 viewBox="0 0 340.935 340.935" style="enable-background:new 0 0 340.935 340.935;" xml:space="preserve">
<g>
	<path d="M153.452,105.378h-65c-5.514,0-10,4.486-10,10v8c0,5.514,4.486,10,10,10h65c5.514,0,10-4.486,10-10v-8
		C163.452,109.864,158.966,105.378,153.452,105.378z"/>
	<path d="M336.55,275.491l-70.045-70.044c-2.825-2.826-6.592-4.382-10.606-4.382c-4.015,0-7.781,1.556-10.607,4.381l-9.587,9.588
		l-20.117-20.117c37.048-47.283,33.816-116.068-9.708-159.591C183.1,12.547,152.814,0.002,120.601,0.002
		c-32.214,0-62.5,12.545-85.278,35.323C12.544,58.104,0,88.39,0,120.603c0,32.213,12.544,62.499,35.323,85.277
		c22.778,22.779,53.064,35.323,85.278,35.323c27.028,0,52.696-8.835,73.715-25.132l20.176,20.175l-9.047,9.047
		c-5.848,5.848-5.848,15.364,0,21.213l70.044,70.044c2.826,2.825,6.592,4.381,10.607,4.381c4.015,0,7.781-1.556,10.607-4.381
		l39.847-39.848C342.397,290.856,342.397,281.34,336.55,275.491z M56.536,184.668C39.424,167.556,30,144.804,30,120.603
		c0-24.201,9.424-46.953,26.536-64.065C73.648,39.426,96.4,30.002,120.601,30.002c24.2,0,46.952,9.424,64.064,26.536
		c35.325,35.326,35.325,92.804,0,128.129c-17.112,17.112-39.864,26.536-64.064,26.536C96.4,211.204,73.648,201.78,56.536,184.668z"
		/>
</g>
<g>
</g>
<g>
</g>
<g>
</g>
<g>
</g>
<g>
</g>
<g>
</g>
<g>
</g>
<g>
</g>
<g>
</g>
<g>
</g>
<g>
</g>
<g>
</g>
<g>
</g>
<g>
</g>
<g>
</g>
</svg>
